<svg width="58" height="57" viewBox="0 0 58 57" fill="none" xmlns="http://www.w3.org/2000/svg">
<path d="M56.5 28.5C56.5 43.3872 44.2125 55.5 29 55.5C13.7875 55.5 1.5 43.3872 1.5 28.5C1.5 13.6128 13.7875 1.5 29 1.5C44.2125 1.5 56.5 13.6128 56.5 28.5Z" fill="#F8E800" stroke="black" stroke-width="3"/>
<path fill-rule="evenodd" clip-rule="evenodd" d="M27.1542 21.604L27.1441 21.5959C24.9878 19.8709 21.8413 20.2205 20.1163 22.3768C19.3034 23.3929 18.8925 24.9265 18.9941 26.6696C19.0952 28.4048 19.6948 30.1046 20.5913 31.3C21.5771 32.6145 23.1764 33.8969 24.875 35.0006C26.4943 36.0528 28.0707 36.858 28.9915 37.2989C29.9122 36.858 31.4885 36.0528 33.1078 35.0006C34.8062 33.8969 36.4055 32.6145 37.3913 31.3C38.2905 30.1011 38.8965 28.3979 39.0038 26.6625C39.1116 24.9188 38.7058 23.3891 37.896 22.3768C36.171 20.2205 33.0245 19.8709 30.8682 21.5959L30.8401 21.6184L30.1839 22.1057C29.4622 22.6416 28.4716 22.6302 27.7624 22.0778L27.1542 21.604ZM28.9915 20.5L28.3935 20.0342C25.3747 17.6191 20.9696 18.1086 18.5545 21.1274C16.1395 24.1462 16.6718 29.4072 18.9913 32.5C21.3813 35.6867 26.3103 38.2388 28.2158 39.1448C28.7102 39.3798 29.2728 39.3798 29.7671 39.1448C31.6726 38.2387 36.6014 35.6867 38.9913 32.5C41.3108 29.4072 41.8728 24.1462 39.4577 21.1274C37.0427 18.1086 32.6376 17.6191 29.6188 20.0342L28.9915 20.5Z" fill="black"/>
</svg>
