<svg width="58" height="57" viewBox="0 0 58 57" fill="none" xmlns="http://www.w3.org/2000/svg">
<path d="M56.5 28.5C56.5 43.3872 44.2125 55.5 29 55.5C13.7875 55.5 1.5 43.3872 1.5 28.5C1.5 13.6128 13.7875 1.5 29 1.5C44.2125 1.5 56.5 13.6128 56.5 28.5Z" fill="#F8E800" stroke="black" stroke-width="3"/>
<path d="M23.1644 24.9832C22.6196 25.074 22.1044 24.706 22.0136 24.1612C21.9228 23.6165 22.2908 23.1012 22.8356 23.0104C26.9171 22.3302 31.0829 22.3302 35.1644 23.0104C35.7092 23.1012 36.0772 23.6165 35.9864 24.1612C35.8956 24.706 35.3804 25.074 34.8356 24.9832C30.9718 24.3393 27.0282 24.3393 23.1644 24.9832Z" fill="black"/>
<path d="M22.0136 28.1612C22.1044 28.706 22.6196 29.074 23.1644 28.9832C27.0282 28.3393 30.9718 28.3393 34.8356 28.9832C35.3804 29.074 35.8956 28.706 35.9864 28.1612C36.0772 27.6165 35.7092 27.1012 35.1644 27.0104C31.0829 26.3302 26.9171 26.3302 22.8356 27.0104C22.2908 27.1012 21.9228 27.6165 22.0136 28.1612Z" fill="black"/>
<path fill-rule="evenodd" clip-rule="evenodd" d="M30.0161 40.9887C29.6865 40.9942 29.3478 40.9968 29 40.9968C26.6885 40.9968 24.77 40.8826 23.2032 40.5447C21.6252 40.2043 20.337 39.623 19.3554 38.6414C18.3738 37.6598 17.7925 36.3716 17.4522 34.7936C17.1142 33.2268 17 31.3083 17 28.9968C17 26.6854 17.1142 24.7668 17.4522 23.2001C17.7925 21.622 18.3738 20.3338 19.3554 19.3522C20.337 18.3706 21.6252 17.7893 23.2032 17.449C24.77 17.1111 26.6885 16.9968 29 16.9968C31.3115 16.9968 33.23 17.1111 34.7968 17.449C36.3748 17.7893 37.663 18.3706 38.6446 19.3522C39.6262 20.3338 40.2075 21.622 40.5478 23.2001C40.8858 24.7668 41 26.6854 41 28.9968C41 29.6945 40.9899 30.359 40.9659 30.9911L40.9846 30.9903L40.9207 31.89C40.8718 32.658 40.7973 33.3734 40.6896 34.0376C40.437 35.5995 39.9966 36.8993 39.2467 37.9346C38.5636 38.8789 37.671 39.5413 36.5694 40.0022C35.1515 40.5961 33.3882 40.8546 31.2745 40.9506C31.2214 40.953 31.1681 40.9553 31.1145 40.9575L30.015 41.0034L30.0161 40.9887ZM19 28.9968C19 26.725 19.1149 24.9768 19.4072 23.6217C19.6971 22.2779 20.147 21.389 20.7696 20.7664C21.3922 20.1439 22.281 19.6939 23.6249 19.404C24.98 19.1118 26.7281 18.9968 29 18.9968C31.2719 18.9968 33.02 19.1118 34.3751 19.404C35.719 19.6939 36.6078 20.1439 37.2304 20.7664C37.853 21.389 38.3029 22.2779 38.5928 23.6217C38.8851 24.9768 39 26.725 39 28.9968C39 29.7521 38.987 30.4469 38.9595 31.0863C36.1922 31.2756 34.0766 31.8074 32.5998 33.1215C31.1088 34.4483 30.4484 36.406 30.1736 38.9854C29.7984 38.9931 29.4074 38.9968 29 38.9968C26.7281 38.9968 24.98 38.8819 23.6249 38.5896C22.281 38.2998 21.3922 37.8498 20.7696 37.2272C20.147 36.6046 19.6971 35.7158 19.4072 34.3719C19.1149 33.0168 19 31.2687 19 28.9968ZM37.4535 36.9832C37.0786 37.4292 36.5998 37.7929 35.9694 38.0822C35.0697 38.4944 33.8584 38.7569 32.1977 38.8899C32.468 36.6917 33.028 35.4176 33.9294 34.6156C34.8651 33.7829 36.3394 33.301 38.8019 33.1038L38.7922 33.1815C38.5599 35.0052 38.1238 36.1838 37.4535 36.9832Z" fill="black"/>
</svg>
