<svg width="58" height="57" viewBox="0 0 58 57" fill="none" xmlns="http://www.w3.org/2000/svg">
<path d="M56.5 28.5C56.5 43.3872 44.2125 55.5 29 55.5C13.7875 55.5 1.5 43.3872 1.5 28.5C1.5 13.6128 13.7875 1.5 29 1.5C44.2125 1.5 56.5 13.6128 56.5 28.5Z" fill="#F8E800" stroke="black" stroke-width="3"/>
<path fill-rule="evenodd" clip-rule="evenodd" d="M29 37C34.8333 37 36 36.3333 36 33C36 29.6667 34.8333 29 29 29C23.1667 29 22 29.6667 22 33C22 36.3333 23.1667 37 29 37ZM33.8554 34.325C33.9275 34.1339 34 33.7558 34 33C34 32.2442 33.9275 31.8661 33.8554 31.675C33.8155 31.5692 33.7928 31.5423 33.6952 31.4865C33.5204 31.3866 33.132 31.2425 32.31 31.1412C31.5049 31.042 30.4366 31 29 31C27.5634 31 26.4951 31.042 25.69 31.1412C24.868 31.2425 24.4796 31.3866 24.3048 31.4865C24.2072 31.5423 24.1845 31.5692 24.1446 31.675C24.0725 31.8661 24 32.2442 24 33C24 33.7558 24.0725 34.1339 24.1446 34.325C24.1845 34.4308 24.2072 34.4577 24.3048 34.5135C24.4796 34.6134 24.868 34.7575 25.69 34.8588C26.4951 34.958 27.5634 35 29 35C30.4366 35 31.5049 34.958 32.31 34.8588C33.132 34.7575 33.5204 34.6134 33.6952 34.5135C33.7928 34.4577 33.8155 34.4308 33.8554 34.325Z" fill="black"/>
<path fill-rule="evenodd" clip-rule="evenodd" d="M32 24C32 25.6569 30.6569 27 29 27C27.3431 27 26 25.6569 26 24C26 22.3431 27.3431 21 29 21C30.6569 21 32 22.3431 32 24ZM30 24C30 24.5523 29.5523 25 29 25C28.4477 25 28 24.5523 28 24C28 23.4477 28.4477 23 29 23C29.5523 23 30 23.4477 30 24Z" fill="black"/>
<path fill-rule="evenodd" clip-rule="evenodd" d="M29 41C39 41 41 39 41 29C41 19 39 17 29 17C19 17 17 19 17 29C17 39 19 41 29 41ZM38.5762 34.6721C38.8743 33.29 39 31.4604 39 29C39 26.5396 38.8743 24.71 38.5762 23.3279C38.283 21.9683 37.8518 21.1802 37.3358 20.6642C36.8198 20.1482 36.0317 19.717 34.6721 19.4238C33.29 19.1257 31.4604 19 29 19C26.5396 19 24.71 19.1257 23.3279 19.4238C21.9683 19.717 21.1802 20.1482 20.6642 20.6642C20.1482 21.1802 19.717 21.9683 19.4238 23.3279C19.1257 24.71 19 26.5396 19 29C19 31.4604 19.1257 33.29 19.4238 34.6721C19.717 36.0317 20.1482 36.8198 20.6642 37.3358C21.1802 37.8518 21.9683 38.283 23.3279 38.5762C24.71 38.8743 26.5396 39 29 39C31.4604 39 33.29 38.8743 34.6721 38.5762C36.0317 38.283 36.8198 37.8518 37.3358 37.3358C37.8518 36.8198 38.283 36.0317 38.5762 34.6721Z" fill="black"/>
</svg>
