<svg width="54" height="54" viewBox="0 0 54 54" fill="none" xmlns="http://www.w3.org/2000/svg">
<path d="M22.8515 43.7635C22.3449 43.8173 21.8911 43.4474 21.8377 42.9373L20.186 27.1414C20.1328 26.6315 20.5002 26.1744 21.0068 26.1208L21.9241 26.0236C22.4307 25.97 22.8847 26.3399 22.9379 26.8498L24.5895 42.6457C24.643 43.1558 24.2756 43.6127 23.7689 43.6663L22.8515 43.7635Z" fill="black"/>
<path d="M31.1528 43.6663C30.6462 43.6127 30.2788 43.1558 30.332 42.6457L31.9837 26.8498C32.0371 26.3399 32.4909 25.97 32.9975 26.0236L33.9147 26.1208C34.4214 26.1744 34.789 26.6315 34.7355 27.1414L33.0839 42.9373C33.0307 43.4474 32.5767 43.8173 32.0701 43.7635L31.1528 43.6663Z" fill="black"/>
<path fill-rule="evenodd" clip-rule="evenodd" d="M22.9949 1.92857C21.8881 1.92857 20.8875 2.59268 20.4515 3.61694L18.4032 8.42857H9.47508C7.43747 8.42857 5.78564 10.0915 5.78564 12.1429V16.7857C5.78564 18.6787 7.19223 20.2409 9.01056 20.4708L14.7137 50.5785C14.8861 51.4466 15.6432 52.0714 16.5226 52.0714H39.2477C40.1609 52.0714 40.9366 51.3989 41.0719 50.4898L45.2186 20.4344C46.9246 20.1077 48.2142 18.5983 48.2142 16.7857V12.1429C48.2142 10.0915 46.5624 8.42857 44.5249 8.42857H35.5938L33.5455 3.61694C33.1094 2.59268 32.1091 1.92857 31.0021 1.92857H22.9949ZM31.5797 8.42857L30.8731 6.76844C30.5824 6.08559 29.9154 5.64287 29.1775 5.64287H24.8195C24.0816 5.64287 23.4147 6.08559 23.1239 6.76844L22.4173 8.42857H31.5797ZM41.4052 21.3138C41.4696 20.8494 41.1082 20.4353 40.6394 20.4365L13.7204 20.4978C13.2379 20.499 12.8748 20.9377 12.964 21.412L17.739 46.7852C17.9106 47.6968 18.7068 48.3572 19.6343 48.3572H35.9792C36.9421 48.3572 37.7575 47.6469 37.8896 46.6932L41.4052 21.3138ZM42.68 16.7857C43.6988 16.7857 44.5249 15.9542 44.5249 14.9286V14C44.5249 12.9743 43.6988 12.1429 42.68 12.1429H11.3198C10.301 12.1429 9.47508 12.9743 9.47508 14V14.9286C9.47508 15.9542 10.301 16.7857 11.3198 16.7857H42.68Z" fill="black"/>
</svg>
