<svg width="347" height="274" viewBox="0 0 347 274" fill="none" xmlns="http://www.w3.org/2000/svg">
<path d="M303.232 194.046L309.244 196.69C309.244 196.69 313.793 196.1 314.527 190.96L305.28 186.109L302.932 189.929L303.232 194.046Z" fill="#F9B499"/>
<path d="M282.591 121.574L275.753 115.391C275.753 115.391 284.35 105.124 286.895 104.522C286.895 104.522 297.657 100.51 307.833 109.124L302.647 119.015C302.647 119.015 300.887 126.361 299.809 127.637H285.817C285.817 127.637 283.958 124.403 282.591 121.574Z" fill="#F2D600"/>
<path d="M81.9002 90.4907C82.6883 90.4907 83.3271 89.4345 83.3271 88.1315C83.3271 86.8285 82.6883 85.7722 81.9002 85.7722C81.1122 85.7722 80.4734 86.8285 80.4734 88.1315C80.4734 89.4345 81.1122 90.4907 81.9002 90.4907Z" fill="#F4A790"/>
<path d="M109.852 59.72H226.414C228.703 59.72 230.898 60.6301 232.516 62.2501C234.134 63.8702 235.043 66.0675 235.043 68.3586V223.958H101.223V68.3586C101.223 66.0675 102.132 63.8702 103.75 62.2501C105.369 60.6301 107.564 59.72 109.852 59.72Z" fill="#CCCCCC"/>
<path d="M101.223 88.4805H235.043V67.1428C235.043 65.0748 234.223 63.0915 232.763 61.6288C231.302 60.1661 229.322 59.3439 227.256 59.3428H109.191C107.078 59.3428 105.051 60.1832 103.557 61.6791C102.063 63.175 101.223 65.2038 101.223 67.3194V88.4805Z" fill="#2F2E41"/>
<path d="M125.379 79.1197C128.968 79.1197 131.877 76.2078 131.877 72.6157C131.877 69.0236 128.968 66.1116 125.379 66.1116C121.791 66.1116 118.882 69.0236 118.882 72.6157C118.882 76.2078 121.791 79.1197 125.379 79.1197Z" fill="#CCCCCC"/>
<path d="M170.406 79.3444C173.994 79.3444 176.903 76.4324 176.903 72.8404C176.903 69.2483 173.994 66.3363 170.406 66.3363C166.818 66.3363 163.909 69.2483 163.909 72.8404C163.909 76.4324 166.818 79.3444 170.406 79.3444Z" fill="#CCCCCC"/>
<path d="M214.755 79.1197C218.343 79.1197 221.252 76.2078 221.252 72.6157C221.252 69.0236 218.343 66.1116 214.755 66.1116C211.167 66.1116 208.258 69.0236 208.258 72.6157C208.258 76.2078 211.167 79.1197 214.755 79.1197Z" fill="#CCCCCC"/>
<path d="M125.676 51.1134H125.067C123.194 51.1134 121.676 52.6332 121.676 54.5079V72.387C121.676 74.2617 123.194 75.7814 125.067 75.7814H125.676C127.549 75.7814 129.067 74.2617 129.067 72.387V54.5079C129.067 52.6332 127.549 51.1134 125.676 51.1134Z" fill="#3F3D56"/>
<path d="M170.478 50.8887H169.869C167.996 50.8887 166.478 52.4085 166.478 54.2832V72.1623C166.478 74.037 167.996 75.5567 169.869 75.5567H170.478C172.351 75.5567 173.869 74.037 173.869 72.1623V54.2832C173.869 52.4085 172.351 50.8887 170.478 50.8887Z" fill="#3F3D56"/>
<path d="M214.831 50.8887H214.222C212.349 50.8887 210.831 52.4085 210.831 54.2832V72.1623C210.831 74.037 212.349 75.5567 214.222 75.5567H214.831C216.704 75.5567 218.222 74.037 218.222 72.1623V54.2832C218.222 52.4085 216.704 50.8887 214.831 50.8887Z" fill="#3F3D56"/>
<g opacity="0.2">
<path d="M125.676 51.1134H125.067C123.194 51.1134 121.676 52.6332 121.676 54.5079V72.387C121.676 74.2617 123.194 75.7814 125.067 75.7814H125.676C127.549 75.7814 129.067 74.2617 129.067 72.387V54.5079C129.067 52.6332 127.549 51.1134 125.676 51.1134Z" fill="#5E5F60"/>
<path d="M170.478 50.8888H169.869C167.996 50.8888 166.478 52.4085 166.478 54.2832V72.1623C166.478 74.037 167.996 75.5567 169.869 75.5567H170.478C172.351 75.5567 173.869 74.037 173.869 72.1623V54.2832C173.869 52.4085 172.351 50.8888 170.478 50.8888Z" fill="#5E5F60"/>
<path d="M214.831 50.8888H214.222C212.349 50.8888 210.831 52.4085 210.831 54.2832V72.1623C210.831 74.037 212.349 75.5567 214.222 75.5567H214.831C216.704 75.5567 218.222 74.037 218.222 72.1623V54.2832C218.222 52.4085 216.704 50.8888 214.831 50.8888Z" fill="#5E5F60"/>
</g>
<path opacity="0.2" d="M147.961 110.007H121.836V135.57H147.961V110.007Z" fill="#5E5F60"/>
<path opacity="0.2" d="M182.402 110.007H156.277V135.57H182.402V110.007Z" fill="#5E5F60"/>
<path opacity="0.2" d="M216.45 110.007H190.326V135.57H216.45V110.007Z" fill="#5E5F60"/>
<path d="M147.961 142.033H121.836V167.596H147.961V142.033Z" fill="#808285"/>
<path opacity="0.2" d="M182.402 142.033H156.277V167.596H182.402V142.033Z" fill="#5E5F60"/>
<path opacity="0.2" d="M216.45 142.033H190.326V167.596H216.45V142.033Z" fill="#5E5F60"/>
<g opacity="0.2">
<path d="M147.961 174.943H121.836V200.506H147.961V174.943Z" fill="#5E5F60"/>
<path d="M182.402 174.943H156.277V200.506H182.402V174.943Z" fill="#5E5F60"/>
</g>
<path d="M67.5314 194.435L86.6618 179.401C88.0236 178.33 89.0541 176.894 89.6338 175.261C90.2134 173.628 90.3183 171.863 89.9364 170.172L82.5896 137.592L74.0525 149.557L72.4253 162.304L75.3511 171.729L54.2288 187.971L67.5314 194.435Z" fill="#2F2E41"/>
<path opacity="0.2" d="M67.5314 194.435L86.6618 179.401C88.0236 178.33 89.0541 176.894 89.6338 175.261C90.2134 173.628 90.3183 171.863 89.9364 170.172L82.5896 137.592L74.0525 149.557L72.4253 162.304L75.3511 171.729L54.2288 187.971L67.5314 194.435Z" fill="#5E5F60"/>
<path d="M55.888 207.266L55.5955 215.199C55.5955 215.199 60.7819 216.178 63.327 213.241V207.363L55.888 207.266Z" fill="#F9B499"/>
<path d="M54.0324 214.613L51.7799 221.566L77.7079 221.37L63.5235 212.751C63.5235 212.751 61.1747 216.571 54.0324 214.613Z" fill="#3F3D56"/>
<path d="M54.0324 214.613L51.7799 221.566L77.7079 221.37L63.5235 212.751C63.5235 212.751 61.1747 216.571 54.0324 214.613Z" fill="#F2D600"/>
<path d="M77.7239 223.621L51.7438 223.906V221.554L77.7079 221.37L77.7239 223.621Z" fill="#2F2E41"/>
<path opacity="0.4" d="M77.7239 223.621L51.7438 223.906V221.554L77.7079 221.37L77.7239 223.621Z" fill="#5E5F60"/>
<path d="M54.5094 187.778L50.5013 190.523C50.5013 190.523 52.7499 195.221 54.4132 195.418L54.5094 187.778Z" fill="#F9B499"/>
<path d="M50.0203 189.343L43.4631 192.192L53.9321 205.316L54.4211 195.402C54.4211 195.402 52.2688 195.025 50.0203 189.343Z" fill="#3F3D56"/>
<path d="M50.0203 189.343L43.4631 192.192L53.9321 205.316L54.4211 195.402C54.4211 195.402 52.2688 195.025 50.0203 189.343Z" fill="#F2D600"/>
<path d="M43.4631 192.184L41.5072 193.749L55.888 211.576V207.708H53.7838L53.884 205.26L43.4631 192.184Z" fill="#2F2E41"/>
<path opacity="0.4" d="M43.4631 192.184L41.5072 193.749L55.888 211.576V207.708H53.7838L53.884 205.26L43.4631 192.184Z" fill="#5E5F60"/>
<path d="M95.7 118.457L87.5917 104.895C85.7761 100.622 81.1789 100.514 81.1789 100.514L61.9403 99.9599C61.0135 99.9329 60.0922 100.11 59.2411 100.478C58.39 100.846 57.6299 101.396 57.0144 102.09L44.9702 115.704C43.2187 117.68 42.2781 120.246 42.337 122.887L42.7778 143.025H52.7979L53.2228 123.264L57.0625 119.653L56.7579 136.761L82.5777 137.616L83.8442 121.566L87.7961 127.035C88.4394 127.935 89.3181 128.64 90.3357 129.073C91.3532 129.505 92.4701 129.649 93.5637 129.487H93.6599L114.361 126.606L114.466 116.138L95.7 118.457Z" fill="#F2D600"/>
<path opacity="0.2" d="M57.0745 119.632L62.5174 114.079L56.9663 128.175L57.0745 119.632Z" fill="#5E5F60"/>
<path opacity="0.2" d="M83.8562 121.554L84.2209 113.425L85.9284 124.552L83.8562 121.554Z" fill="#5E5F60"/>
<path d="M69.6236 93.6324L69.4553 100.173L66.7539 100.096C66.7539 100.096 67.0144 104.213 72.6898 104.682C74.273 104.829 75.8496 104.341 77.0746 103.326C77.9042 102.62 78.5856 101.721 78.4654 100.437L76.5696 100.381L76.5455 95.8472C76.7836 95.7832 77.0178 95.7055 77.2469 95.6145C78.5627 95.0906 79.69 94.1816 80.4816 93.0062C81.2732 91.8308 81.6921 90.4438 81.6838 89.0262L81.6518 80.6685C81.6518 80.6685 75.1187 82.2734 70.1206 80.5561C70.1206 80.5561 70.1928 85.8444 68.8381 86.4864C68.8381 86.4864 67.4833 84.7009 66.0525 84.9176C66.0525 84.9176 64.4052 85.0099 64.0485 87.1886C63.977 87.6466 64.0176 88.1152 64.1669 88.5541C64.3161 88.9929 64.5696 89.389 64.9054 89.7082C65.2412 90.0275 65.6494 90.2603 66.095 90.3868C66.5405 90.5133 67.0101 90.5297 67.4633 90.4346H67.5435C67.5435 90.4346 68.3371 93.0627 69.6236 93.6324Z" fill="#F9B499"/>
<path d="M66.0525 84.9176C66.0525 84.9176 59.7198 72.5555 74.7619 74.8425C74.7619 74.8425 76.7419 69.8833 82.5455 74.02C83.2856 74.5286 83.8665 75.2367 84.2209 76.0623C84.7019 77.266 84.77 78.9271 82.4854 80.3355C82.0093 80.6298 81.4837 80.8351 80.9343 80.9413C79.1587 81.3024 74.5214 81.9926 70.1126 80.5401C70.1126 80.5401 70.317 85.6398 68.83 86.4703C68.838 86.4864 67.5394 84.733 66.0525 84.9176Z" fill="#2F2E41"/>
<path d="M76.5535 95.8472C76.5535 95.8472 71.9844 96.2766 70.4894 94.3466C70.4894 94.3466 72.1888 98.6077 76.5415 98.2506L76.5535 95.8472Z" fill="#F4A790"/>
<path d="M285.441 99.6229C288.874 99.6229 291.657 95.8594 291.657 91.217C291.657 86.5745 288.874 82.8111 285.441 82.8111C282.007 82.8111 279.224 86.5745 279.224 91.217C279.224 95.8594 282.007 99.6229 285.441 99.6229Z" fill="#F9B499"/>
<path d="M277.477 87.8707C277.733 85.3429 279.34 77.9441 289.348 78.6904C289.348 78.6904 292.555 79.4608 293.837 80.4879C293.837 80.4879 295.064 73.8996 300.571 74.024C301.939 74.0488 303.271 74.4671 304.408 75.2291C305.545 75.9911 306.439 77.0645 306.984 78.3213C307.785 80.2632 308.03 83.1361 305.016 85.7602C305.016 85.7602 302.447 88.0753 297.801 86.3941C297.822 88.4499 297.264 90.47 296.191 92.2228C295.117 93.9756 293.573 95.3903 291.733 96.3046L291.228 93.0867C291.228 93.0867 286.655 89.3633 286.27 86.9278L278.21 88.5648C278.113 88.5845 278.013 88.5805 277.918 88.5533C277.823 88.526 277.735 88.4763 277.663 88.4082C277.592 88.3402 277.537 88.2558 277.504 88.1623C277.472 88.0687 277.462 87.9687 277.477 87.8707Z" fill="#2F2E41"/>
<path d="M291.296 93.5482L293.156 103.443C293.156 103.443 294.623 103.346 295.505 103.736C295.505 103.736 291.296 111.279 286.11 108.731C286.11 108.731 284.154 106.97 286.912 104.522L285.934 99.4263L291.296 93.5482Z" fill="#F9B499"/>
<path d="M289.93 96.9787C289.93 96.9787 291.396 99.9158 286.603 102.857L285.917 99.671C285.917 99.671 287.873 99.8195 289.93 96.9787Z" fill="#F4A790"/>
<path opacity="0.2" d="M281.905 108.735C281.905 108.735 279.36 115.496 282.591 121.574L275.753 115.391L281.905 108.735Z" fill="#5E5F60"/>
<path opacity="0.2" d="M297.072 114.806C297.072 114.806 299.713 120.977 301.669 122.83L302.647 119.011L297.072 114.806Z" fill="#5E5F60"/>
<path d="M307.344 110.199L310.92 113.449C312.839 115.195 314.535 117.173 315.97 119.336C318.92 123.789 324.15 131.979 327.97 139.55C328.285 140.169 328.828 140.643 329.485 140.87C331.585 141.604 336.218 143.747 335.898 148.301C335.898 148.301 335.898 148.79 335.26 148.497C335.26 148.497 335.701 150.066 334.283 149.87C334.283 149.87 334.331 151.045 332.523 150.508C332.523 150.508 331.248 152.072 330.519 150.455C330.519 150.455 329.785 146.588 327.633 146.042V146.692C327.624 147.002 327.492 147.296 327.266 147.508C327.041 147.721 326.741 147.836 326.431 147.827C326.154 147.821 325.888 147.716 325.682 147.532C325.476 147.347 325.342 147.095 325.305 146.82L324.707 142.515L311.685 126.064C310.316 124.329 308.664 122.837 306.799 121.651L302.643 119.007L307.344 110.199Z" fill="#F9B499"/>
<path d="M285.817 127.637C285.817 127.637 277.4 154.961 275.937 168.92C275.937 168.92 274.03 180.38 279.897 183.465L300.15 195.366L307.489 183.906L295.016 175.826L293.108 127.489L285.817 127.637Z" fill="#2F2E41"/>
<path opacity="0.2" d="M285.817 127.637C285.817 127.637 277.4 154.961 275.937 168.92C275.937 168.92 274.03 180.38 279.897 183.465L300.15 195.366L307.489 183.906L295.016 175.826L293.108 127.489L285.817 127.637Z" fill="#5E5F60"/>
<path d="M293.841 206.681L294.723 213.437C294.723 213.437 298.098 216.816 303.088 214.613L301.324 204.032L293.841 206.681Z" fill="#F9B499"/>
<path d="M303.088 214.613L305.878 221.077H279.897L294.575 212.555L303.088 214.613Z" fill="#F2D600"/>
<path d="M306.022 221.077H279.897V223.573H306.022V221.077Z" fill="#2F2E41"/>
<path d="M306.463 212.996L307.489 195.956L309.252 196.69C309.252 196.69 314.387 195.807 314.683 189.929L321.725 192.429L306.463 212.996Z" fill="#F2D600"/>
<path d="M323.633 193.749L321.725 192.429L306.463 212.996L308.663 214.906L323.633 193.749Z" fill="#2F2E41"/>
<path d="M59.4753 56.9314H14.0922C13.7829 56.9314 13.4862 57.0544 13.2675 57.2733C13.0488 57.4923 12.9259 57.7893 12.9259 58.099V71.5123C12.9259 71.8219 13.0488 72.1189 13.2675 72.3379C13.4862 72.5569 13.7829 72.6799 14.0922 72.6799H48.8419L55.5714 78.1768V72.6799H59.4753C59.7846 72.6799 60.0813 72.5569 60.3 72.3379C60.5187 72.1189 60.6416 71.8219 60.6416 71.5123V58.099C60.6406 57.7896 60.5173 57.4933 60.2988 57.2745C60.0803 57.0558 59.7843 56.9324 59.4753 56.9314Z" fill="#2F2E41"/>
<path d="M53.1907 62.0391H22.8579C22.444 62.0391 22.1084 62.375 22.1084 62.7894V62.9218C22.1084 63.3362 22.444 63.6721 22.8579 63.6721H53.1907C53.6047 63.6721 53.9402 63.3362 53.9402 62.9218V62.7894C53.9402 62.375 53.6047 62.0391 53.1907 62.0391Z" fill="white"/>
<path d="M31.1545 65.7144H22.6534C22.2395 65.7144 21.9039 66.0503 21.9039 66.4647V66.5971C21.9039 67.0115 22.2395 67.3474 22.6534 67.3474H31.1545C31.5684 67.3474 31.904 67.0115 31.904 66.5971V66.4647C31.904 66.0503 31.5684 65.7144 31.1545 65.7144Z" fill="white"/>
<path d="M221.176 114.324L231.981 90.7676L255.509 101.344L245.184 125.137L221.176 114.324Z" fill="#808285"/>
<path d="M233.079 136.597H220.606V140.417H233.079V136.597Z" fill="#2F2E41"/>
<path opacity="0.2" d="M233.079 136.597H220.606V140.417H233.079V136.597Z" fill="#5E5F60"/>
<path d="M235.404 129.659H218.254C216.505 129.659 215.087 131.079 215.087 132.829V133.395C215.087 135.145 216.505 136.565 218.254 136.565H235.404C237.153 136.565 238.57 135.145 238.57 133.395V132.829C238.57 131.079 237.153 129.659 235.404 129.659Z" fill="#2F2E41"/>
<path d="M190.226 153.934L193.604 157.609L200.354 150.263L196.831 146.443L190.226 153.934Z" fill="#2F2E41"/>
<path opacity="0.2" d="M190.226 153.934L193.604 157.609L200.354 150.263L196.831 146.443L190.226 153.934Z" fill="#5E5F60"/>
<path d="M195.906 142.896L185.539 153.274C184.724 154.09 184.724 155.414 185.539 156.23L185.803 156.494C186.618 157.311 187.94 157.311 188.756 156.494L199.123 146.116C199.938 145.299 199.938 143.976 199.123 143.16L198.859 142.896C198.044 142.079 196.722 142.079 195.906 142.896Z" fill="#2F2E41"/>
<path d="M123.143 116.936L126.442 115.52C126.587 115.459 126.718 115.37 126.828 115.258C126.937 115.145 127.023 115.012 127.081 114.866C127.138 114.719 127.165 114.563 127.161 114.406C127.156 114.249 127.12 114.094 127.055 113.951C126.934 113.689 126.72 113.481 126.455 113.367C126.191 113.253 125.893 113.241 125.62 113.333L119.536 115.363C119.536 115.363 117.933 111.503 114.49 116.11L114.401 125.426L115.139 125.306C115.797 125.196 116.469 125.207 117.123 125.338C119.74 125.868 127.055 126.586 123.143 116.936Z" fill="#F9B499"/>
<path d="M56.7699 136.741L82.5897 137.596L74.0526 149.561L66.5856 207.664L53.7839 207.708L56.7699 136.741Z" fill="#2F2E41"/>
<path d="M33.896 147.366V173.081H61.1186V147.466L33.896 147.366Z" fill="#808285"/>
<path d="M43.415 142.96C43.415 142.96 38.6054 150.439 46.381 152.189C46.381 152.189 51.892 153.497 52.8139 147.45H54.4492C54.4548 145.829 53.8723 144.26 52.8099 143.037L43.415 142.96Z" fill="#F9B499"/>
<path d="M291.228 93.0787C292.716 93.0787 293.921 91.8715 293.921 90.3824C293.921 88.8933 292.716 87.6861 291.228 87.6861C289.741 87.6861 288.535 88.8933 288.535 90.3824C288.535 91.8715 289.741 93.0787 291.228 93.0787Z" fill="#F9B499"/>
<path d="M291.493 207.708L285.917 178.016C285.917 178.016 284.046 171.055 284.895 161.477C284.988 160.426 285.052 159.367 285.08 158.312L285.817 127.625H299.801C299.801 127.625 305.942 129.298 304.759 145.083C304.558 147.675 304.195 150.252 303.673 152.799C302.695 157.65 300.467 169.422 301.024 172.435L304.839 207.403L291.493 207.708Z" fill="#2F2E41"/>
<path d="M226.675 222.301C249.667 222.301 268.306 203.642 268.306 180.624C268.306 157.607 249.667 138.948 226.675 138.948C203.682 138.948 185.043 157.607 185.043 180.624C185.043 203.642 203.682 222.301 226.675 222.301Z" fill="#2F2E41"/>
<path opacity="0.2" d="M226.675 220.098C248.452 220.098 266.106 202.425 266.106 180.624C266.106 158.824 248.452 141.151 226.675 141.151C204.897 141.151 187.244 158.824 187.244 180.624C187.244 202.425 204.897 220.098 226.675 220.098Z" fill="white"/>
<path d="M226.675 216.178C246.289 216.178 262.19 200.26 262.19 180.624C262.19 160.989 246.289 145.071 226.675 145.071C207.06 145.071 191.159 160.989 191.159 180.624C191.159 200.26 207.06 216.178 226.675 216.178Z" fill="#2F2E41"/>
<path d="M228.679 176.616V162.236C228.679 161.71 228.47 161.206 228.099 160.834C227.727 160.462 227.224 160.254 226.699 160.254C226.171 160.254 225.665 160.462 225.29 160.833C224.915 161.204 224.701 161.708 224.695 162.236V176.797C223.726 177.294 222.957 178.109 222.515 179.105C222.073 180.101 221.985 181.218 222.265 182.271C222.544 183.324 223.176 184.25 224.054 184.894C224.931 185.539 226.003 185.863 227.091 185.814C228.178 185.764 229.216 185.344 230.032 184.622C230.848 183.901 231.392 182.921 231.575 181.847C231.759 180.773 231.569 179.668 231.039 178.717C230.508 177.765 229.668 177.024 228.659 176.616H228.679Z" fill="white"/>
<path d="M226.923 149.673H226.763C226.28 149.673 225.889 150.065 225.889 150.548V152.911C225.889 153.394 226.28 153.786 226.763 153.786H226.923C227.406 153.786 227.797 153.394 227.797 152.911V150.548C227.797 150.065 227.406 149.673 226.923 149.673Z" fill="white"/>
<path d="M248.976 159.197L248.862 159.083C248.521 158.741 247.968 158.741 247.627 159.083L245.957 160.754C245.616 161.096 245.616 161.65 245.957 161.991L246.071 162.105C246.412 162.446 246.965 162.446 247.307 162.105L248.976 160.434C249.317 160.092 249.317 159.538 248.976 159.197Z" fill="white"/>
<path d="M258.25 181.415V181.254C258.25 180.771 257.859 180.38 257.376 180.38H255.016C254.533 180.38 254.142 180.771 254.142 181.254V181.415C254.142 181.898 254.533 182.29 255.016 182.29H257.376C257.859 182.29 258.25 181.898 258.25 181.415Z" fill="white"/>
<path d="M199.544 181.415V181.254C199.544 180.771 199.153 180.38 198.67 180.38H196.31C195.827 180.38 195.436 180.771 195.436 181.254V181.415C195.436 181.898 195.827 182.29 196.31 182.29H198.67C199.153 182.29 199.544 181.898 199.544 181.415Z" fill="white"/>
<path d="M249.125 203.778L249.243 203.669C249.597 203.342 249.619 202.788 249.292 202.433L247.69 200.697C247.363 200.342 246.81 200.32 246.456 200.648L246.338 200.757C245.983 201.084 245.961 201.638 246.289 201.993L247.89 203.729C248.218 204.084 248.771 204.106 249.125 203.778Z" fill="white"/>
<path d="M207.737 162.051L207.855 161.942C208.21 161.614 208.232 161.061 207.904 160.706L206.303 158.97C205.975 158.615 205.422 158.593 205.068 158.921L204.95 159.029C204.596 159.357 204.574 159.911 204.901 160.265L206.503 162.002C206.83 162.357 207.383 162.379 207.737 162.051Z" fill="white"/>
<path d="M204.323 203.184L204.432 203.302C204.759 203.657 205.312 203.679 205.666 203.351L207.401 201.748C207.755 201.42 207.777 200.867 207.45 200.512L207.341 200.394C207.014 200.039 206.461 200.017 206.107 200.345L204.372 201.948C204.018 202.276 203.996 202.829 204.323 203.184Z" fill="white"/>
<path d="M226.923 208.59H226.763C226.28 208.59 225.889 208.982 225.889 209.465V211.828C225.889 212.312 226.28 212.703 226.763 212.703H226.923C227.406 212.703 227.797 212.312 227.797 211.828V209.465C227.797 208.982 227.406 208.59 226.923 208.59Z" fill="white"/>
<path d="M277.733 117.205L274.102 120.74L255.108 113.883L251.035 108.41C250.901 108.227 250.701 108.103 250.477 108.063C250.253 108.023 250.022 108.072 249.833 108.197C249.734 108.261 249.649 108.344 249.583 108.442C249.517 108.539 249.471 108.649 249.447 108.764C249.424 108.88 249.423 108.999 249.446 109.114C249.469 109.23 249.515 109.339 249.581 109.437L250.234 110.4C250.482 110.766 250.634 111.189 250.675 111.63C250.716 112.07 250.646 112.514 250.47 112.92L248.35 117.815H253.328L274.086 129.05C274.086 129.05 276.891 130.193 279.064 128.428L283.994 124.255L282.451 121.318L277.733 117.205Z" fill="#F9B499"/>
</svg>
