<svg width="497" height="435" viewBox="0 0 497 435" fill="none" xmlns="http://www.w3.org/2000/svg">
<path d="M275.907 361.5L269.18 359.617L269.126 359.809L275.853 361.692L275.907 361.5Z" fill="black" fill-opacity="0.25"/>
<path d="M380.686 119.534L268.14 88.0242C262.461 86.4342 256.571 89.7384 254.985 95.4043L187.39 336.839C185.803 342.505 189.121 348.387 194.8 349.977L307.346 381.487C313.025 383.077 318.915 379.773 320.501 374.107L388.096 132.672C389.683 127.006 386.365 121.124 380.686 119.534Z" fill="black"/>
<path d="M374.453 117.789L261.907 86.2792C256.228 84.6892 250.339 87.9934 248.752 93.6594L181.157 335.094C179.571 340.76 182.889 346.642 188.568 348.232L301.113 379.742C306.792 381.332 312.682 378.028 314.268 372.362L381.864 130.927C383.45 125.261 380.132 119.379 374.453 117.789Z" fill="#EAEDF0"/>
<path opacity="0.2" d="M374.453 117.789L261.907 86.2792C256.228 84.6892 250.339 87.9934 248.752 93.6594L181.157 335.094C179.571 340.76 182.889 346.642 188.568 348.232L301.113 379.742C306.792 381.332 312.682 378.028 314.268 372.362L381.864 130.927C383.45 125.261 380.132 119.379 374.453 117.789Z" fill="#2F2E41"/>
<path d="M321.16 115.743L303.699 110.855C303.574 110.82 303.468 110.737 303.405 110.624C303.341 110.511 303.325 110.378 303.36 110.254C303.395 110.129 303.478 110.024 303.591 109.96C303.703 109.897 303.837 109.881 303.962 109.916L321.418 114.803C321.543 114.838 321.648 114.921 321.712 115.034C321.776 115.147 321.792 115.28 321.757 115.404C321.722 115.529 321.639 115.634 321.526 115.698C321.413 115.761 321.28 115.777 321.155 115.742L321.16 115.743Z" fill="#5E5F60"/>
<path d="M325.843 118.401C326.794 118.667 327.78 118.114 328.046 117.165C328.311 116.216 327.756 115.232 326.805 114.965C325.854 114.699 324.868 115.252 324.603 116.201C324.337 117.15 324.893 118.135 325.843 118.401Z" fill="#5E5F60"/>
<path d="M375.067 139.657L250.757 104.854L188.479 327.295L312.789 362.099L375.067 139.657Z" fill="white"/>
<path d="M366.012 142.902L367 143.178C367.04 143.189 367.074 143.216 367.094 143.252C367.114 143.288 367.12 143.331 367.108 143.37L366.785 144.525C366.774 144.565 366.747 144.599 366.711 144.619C366.675 144.639 366.632 144.644 366.593 144.633L365.605 144.356L366.012 142.902Z" fill="black"/>
<path d="M362.165 140.736L358.575 139.731L357.604 143.2L361.194 144.204L362.165 140.736Z" fill="#F8E800"/>
<path d="M351.242 140.052L350.772 139.92L350.417 141.187L350.887 141.319L351.242 140.052Z" fill="black"/>
<path d="M352.29 139.662L351.819 139.53L351.287 141.431L351.757 141.563L352.29 139.662Z" fill="black"/>
<path d="M353.373 139.145L352.902 139.014L352.157 141.675L352.628 141.806L353.373 139.145Z" fill="black"/>
<path d="M355.357 138.744L354.886 138.613L353.893 142.16L354.364 142.292L355.357 138.744Z" fill="black"/>
<path d="M354.416 138.754L353.945 138.622L353.023 141.917L353.493 142.049L354.416 138.754Z" fill="black"/>
<path d="M340.637 216.939L236.756 187.855L240.37 174.945L344.252 204.028L340.637 216.939ZM237.358 187.518L340.298 216.338L343.65 204.366L240.709 175.546L237.358 187.518Z" fill="black"/>
<path d="M331.692 248.89L227.811 219.806L231.425 206.895L335.306 235.979L331.692 248.89ZM228.412 219.468L331.353 248.289L334.705 236.317L231.764 207.496L228.412 219.468Z" fill="black"/>
<path d="M322.786 281.641L218.905 252.557L222.518 239.651L326.4 268.735L322.786 281.641ZM219.507 252.219L322.447 281.04L325.798 269.072L222.857 240.252L219.507 252.219Z" fill="black"/>
<path d="M223.711 265.486L216.133 263.365L214.016 270.925L221.594 273.047L223.711 265.486Z" fill="#F8E800"/>
<path d="M279.455 304.763L212.88 286.124C210.877 285.563 208.8 286.729 208.24 288.727L204.053 303.684C203.494 305.682 204.664 307.757 206.667 308.318L273.241 326.957C275.244 327.518 277.321 326.352 277.881 324.354L282.068 309.397C282.628 307.399 281.458 305.324 279.455 304.763Z" fill="#F8E800"/>
<path d="M257.972 114.015C257.909 113.843 257.906 113.655 257.964 113.481C258.01 113.31 258.105 113.157 258.238 113.04C258.371 112.923 258.535 112.848 258.711 112.825C258.933 112.797 259.159 112.814 259.374 112.874C259.59 112.934 259.792 113.037 259.967 113.176C260.107 113.292 260.21 113.446 260.264 113.619C260.314 113.784 260.315 113.96 260.269 114.126C260.222 114.303 260.121 114.46 259.981 114.577C259.836 114.689 259.662 114.756 259.48 114.771C259.651 114.88 259.783 115.039 259.86 115.226C259.932 115.42 259.939 115.631 259.879 115.829C259.831 116.025 259.723 116.202 259.57 116.334C259.417 116.465 259.23 116.548 259.031 116.573C258.8 116.606 258.564 116.588 258.34 116.522C258.118 116.463 257.91 116.357 257.733 116.21C257.579 116.084 257.464 115.916 257.401 115.727C257.339 115.535 257.339 115.328 257.4 115.135C257.45 114.933 257.566 114.754 257.73 114.625C257.891 114.503 258.088 114.437 258.29 114.438C258.145 114.33 258.035 114.183 257.972 114.015ZM258.203 114.803C258.109 114.839 258.026 114.898 257.961 114.975C257.897 115.051 257.852 115.142 257.832 115.241C257.802 115.334 257.794 115.433 257.808 115.53C257.822 115.626 257.858 115.719 257.913 115.8C258.053 115.97 258.242 116.093 258.454 116.152C258.666 116.211 258.891 116.204 259.099 116.132C259.188 116.091 259.267 116.031 259.329 115.955C259.392 115.88 259.436 115.791 259.459 115.696C259.491 115.603 259.499 115.503 259.484 115.406C259.469 115.308 259.431 115.215 259.373 115.136C259.235 114.967 259.044 114.85 258.832 114.802C258.628 114.733 258.407 114.733 258.203 114.803ZM259.76 113.554C259.636 113.397 259.463 113.288 259.268 113.244C259.082 113.182 258.88 113.186 258.697 113.256C258.614 113.295 258.541 113.353 258.485 113.425C258.428 113.497 258.39 113.581 258.373 113.671C258.347 113.753 258.341 113.84 258.355 113.925C258.369 114.01 258.403 114.09 258.454 114.16C258.567 114.317 258.735 114.427 258.925 114.469C259.112 114.532 259.316 114.526 259.498 114.452C259.578 114.418 259.648 114.366 259.705 114.3C259.761 114.234 259.801 114.156 259.823 114.072C259.855 113.987 259.867 113.894 259.856 113.803C259.845 113.712 259.813 113.625 259.761 113.549L259.76 113.554Z" fill="black"/>
<path d="M260.804 114.807C260.764 114.736 260.754 114.653 260.776 114.574C260.798 114.496 260.85 114.43 260.921 114.39C260.993 114.349 261.078 114.338 261.157 114.36C261.197 114.368 261.234 114.386 261.266 114.412C261.298 114.437 261.323 114.47 261.339 114.507C261.378 114.579 261.387 114.663 261.365 114.742C261.343 114.821 261.292 114.888 261.221 114.929C261.188 114.952 261.149 114.967 261.109 114.973C261.069 114.978 261.028 114.974 260.989 114.961C260.95 114.949 260.913 114.929 260.881 114.902C260.849 114.876 260.823 114.844 260.804 114.807ZM260.223 116.882C260.182 116.808 260.172 116.722 260.194 116.641C260.218 116.562 260.271 116.495 260.343 116.455C260.415 116.415 260.499 116.404 260.579 116.425C260.618 116.436 260.654 116.454 260.686 116.479C260.717 116.505 260.743 116.536 260.761 116.572C260.781 116.607 260.793 116.647 260.798 116.687C260.802 116.727 260.798 116.768 260.787 116.807C260.766 116.887 260.714 116.957 260.642 116.999C260.607 117.019 260.569 117.032 260.529 117.036C260.489 117.041 260.449 117.037 260.411 117.026C260.372 117.015 260.335 116.997 260.303 116.972C260.27 116.948 260.243 116.917 260.223 116.882Z" fill="black"/>
<path d="M262.499 114.007C262.778 113.893 263.088 113.883 263.374 113.978C263.572 114.029 263.755 114.126 263.909 114.26C264.042 114.368 264.137 114.515 264.182 114.68C264.227 114.846 264.224 115.02 264.173 115.184C264.126 115.372 264.015 115.537 263.859 115.653C263.708 115.764 263.522 115.82 263.333 115.809C263.518 115.906 263.664 116.063 263.747 116.254C263.826 116.462 263.832 116.69 263.763 116.901C263.716 117.075 263.624 117.234 263.497 117.363C263.366 117.487 263.202 117.569 263.025 117.6C262.81 117.636 262.59 117.621 262.382 117.557C262.074 117.484 261.801 117.306 261.611 117.053C261.527 116.927 261.47 116.785 261.444 116.637C261.417 116.489 261.422 116.336 261.457 116.19L261.885 116.31C261.854 116.494 261.891 116.684 261.988 116.845C262.106 117.014 262.282 117.134 262.483 117.18C262.575 117.213 262.673 117.227 262.77 117.221C262.868 117.216 262.963 117.19 263.05 117.147C263.128 117.103 263.196 117.042 263.249 116.97C263.301 116.897 263.338 116.814 263.356 116.726C263.392 116.628 263.403 116.522 263.387 116.418C263.371 116.314 263.328 116.216 263.263 116.134C263.07 115.952 262.832 115.826 262.574 115.769L262.461 115.737L262.563 115.371L262.681 115.404C262.911 115.481 263.157 115.495 263.394 115.447C263.488 115.423 263.573 115.371 263.637 115.299C263.702 115.227 263.743 115.138 263.756 115.042C263.78 114.967 263.788 114.887 263.779 114.808C263.769 114.73 263.743 114.654 263.701 114.586C263.6 114.441 263.447 114.339 263.274 114.3C263.105 114.248 262.924 114.256 262.76 114.323C262.684 114.356 262.615 114.404 262.557 114.465C262.499 114.525 262.454 114.596 262.424 114.674L261.991 114.553C262.081 114.311 262.264 114.114 262.499 114.007Z" fill="black"/>
<path d="M265.219 115.016C265.37 114.901 265.545 114.823 265.731 114.787C265.917 114.751 266.109 114.759 266.292 114.81C266.474 114.862 266.642 114.954 266.783 115.082C266.923 115.209 267.032 115.367 267.101 115.543C267.189 116.01 267.152 116.492 266.994 116.94C266.89 117.401 266.67 117.827 266.353 118.178C266.212 118.31 266.037 118.399 265.847 118.435C265.657 118.472 265.461 118.454 265.281 118.384C265.092 118.348 264.916 118.26 264.773 118.131C264.631 118.001 264.526 117.836 264.472 117.651C264.387 117.187 264.422 116.709 264.571 116.262C264.676 115.798 264.899 115.368 265.219 115.016ZM266.73 116.072C266.752 115.889 266.719 115.704 266.635 115.539C266.528 115.384 266.369 115.271 266.187 115.22C266.005 115.169 265.811 115.183 265.638 115.26C265.479 115.356 265.353 115.497 265.276 115.665C265.168 115.888 265.082 116.122 265.02 116.362C264.947 116.605 264.898 116.854 264.873 117.106C264.853 117.289 264.887 117.475 264.972 117.639C265.08 117.795 265.238 117.908 265.42 117.959C265.602 118.01 265.797 117.995 265.969 117.919C266.126 117.822 266.25 117.68 266.326 117.513C266.436 117.284 266.523 117.046 266.587 116.801C266.658 116.563 266.706 116.319 266.73 116.072Z" fill="black"/>
<path d="M244.875 168.569L244.776 168.921L243.304 168.508L242.986 169.644L244.18 169.979L244.079 170.34L242.885 170.005L242.46 171.521L242.023 171.399L242.966 168.029L244.875 168.569Z" fill="black"/>
<path d="M247.546 170.096L246.805 172.743L246.363 172.619L246.472 172.23C246.349 172.342 246.196 172.417 246.031 172.445C245.865 172.481 245.692 172.476 245.528 172.431C245.332 172.38 245.153 172.281 245.005 172.143C244.864 172.01 244.765 171.838 244.722 171.649C244.676 171.428 244.688 171.199 244.756 170.985L245.19 169.436L245.627 169.559L245.205 171.065C245.131 171.279 245.141 171.514 245.235 171.721C245.285 171.812 245.353 171.892 245.437 171.954C245.52 172.017 245.615 172.061 245.717 172.084C245.818 172.118 245.926 172.131 246.033 172.12C246.14 172.11 246.243 172.078 246.337 172.025C246.534 171.889 246.67 171.682 246.716 171.448L247.124 169.993L247.546 170.096Z" fill="black"/>
<path d="M249.006 169.503L248.005 173.079L247.567 172.956L248.568 169.38L249.006 169.503Z" fill="black"/>
<path d="M250.201 169.837L249.199 173.413L248.757 173.289L249.759 169.713L250.201 169.837Z" fill="black"/>
<path d="M253.998 172.165C254.072 172.307 254.116 172.462 254.127 172.621C254.139 172.78 254.117 172.94 254.063 173.09L253.626 174.653L253.188 174.53L253.608 173.033C253.683 172.817 253.673 172.581 253.579 172.372C253.529 172.281 253.461 172.202 253.378 172.139C253.295 172.077 253.199 172.032 253.098 172.01C252.997 171.976 252.889 171.963 252.783 171.974C252.677 171.984 252.575 172.017 252.482 172.07C252.383 172.136 252.298 172.221 252.232 172.319C252.166 172.418 252.12 172.529 252.098 172.646L251.688 174.11L251.246 173.986L251.987 171.339L252.429 171.463L252.324 171.838C252.45 171.728 252.604 171.654 252.769 171.624C252.944 171.593 253.124 171.602 253.295 171.65C253.441 171.684 253.578 171.747 253.699 171.835C253.82 171.924 253.922 172.036 253.998 172.165Z" fill="black"/>
<path d="M254.904 172.804C255.069 172.637 255.277 172.519 255.506 172.466C255.733 172.407 255.973 172.411 256.198 172.478C256.411 172.532 256.606 172.643 256.763 172.798C256.898 172.932 256.993 173.1 257.037 173.285L257.169 172.815L257.616 172.94L256.874 175.587L256.428 175.462L256.559 174.993C256.421 175.128 256.249 175.223 256.061 175.268C255.848 175.322 255.625 175.317 255.415 175.255C255.188 175.195 254.982 175.072 254.822 174.9C254.662 174.728 254.554 174.514 254.511 174.283C254.468 174.033 254.481 173.778 254.549 173.534C254.617 173.291 254.739 173.066 254.905 172.875L254.904 172.804ZM256.811 173.55C256.776 173.388 256.697 173.238 256.582 173.117C256.458 173 256.308 172.916 256.144 172.87C255.98 172.824 255.808 172.818 255.641 172.853C255.481 172.897 255.335 172.984 255.221 173.105C255.091 173.241 254.998 173.409 254.953 173.592C254.897 173.775 254.888 173.969 254.926 174.156C254.961 174.319 255.041 174.469 255.155 174.59C255.274 174.713 255.426 174.799 255.593 174.839C255.756 174.889 255.93 174.894 256.096 174.853C256.257 174.809 256.402 174.722 256.516 174.601C256.646 174.463 256.739 174.294 256.786 174.11C256.846 173.933 256.861 173.744 256.828 173.56L256.811 173.55Z" fill="black"/>
<path d="M262.101 174.277C262.243 174.407 262.34 174.578 262.38 174.765C262.424 174.986 262.413 175.214 262.346 175.429L261.909 176.992L261.471 176.869L261.891 175.372C261.966 175.157 261.956 174.92 261.863 174.711C261.756 174.533 261.585 174.402 261.384 174.346C261.184 174.29 260.969 174.313 260.785 174.41C260.591 174.548 260.454 174.753 260.401 174.986L259.992 176.445L259.56 176.324L259.979 174.827C260.055 174.611 260.045 174.375 259.951 174.166C259.902 174.076 259.834 173.998 259.753 173.936C259.672 173.874 259.578 173.83 259.478 173.806C259.378 173.772 259.272 173.76 259.167 173.772C259.062 173.783 258.961 173.818 258.871 173.874C258.676 174.012 258.54 174.217 258.487 174.45L258.078 175.909L257.607 175.777L258.349 173.13L258.791 173.254L258.684 173.634C258.808 173.521 258.961 173.444 259.126 173.414C259.293 173.38 259.465 173.387 259.628 173.433C259.846 173.483 260.045 173.591 260.205 173.746C260.181 173.798 260.169 173.855 260.169 173.912C260.169 173.969 260.182 174.025 260.206 174.077C260.23 174.129 260.265 174.175 260.309 174.212C260.352 174.249 260.403 174.276 260.458 174.291C260.513 174.307 260.571 174.31 260.628 174.301C260.684 174.292 260.738 174.271 260.785 174.239C260.833 174.208 260.873 174.166 260.903 174.117C260.932 174.068 260.951 174.014 260.958 173.957C261.16 173.904 261.373 173.906 261.575 173.963C261.776 174.018 261.957 174.127 262.101 174.277Z" fill="black"/>
<path d="M265.352 176.706L263.226 176.11C263.196 176.225 263.189 176.345 263.206 176.463C263.222 176.58 263.262 176.694 263.323 176.796C263.444 176.988 263.634 177.126 263.854 177.182C264.02 177.233 264.196 177.233 264.361 177.182C264.512 177.133 264.642 177.033 264.729 176.901L265.2 177.033C265.063 177.265 264.85 177.443 264.597 177.537C264.319 177.636 264.017 177.642 263.735 177.554C263.499 177.491 263.283 177.368 263.11 177.196C262.942 177.032 262.824 176.824 262.771 176.595C262.716 176.34 262.727 176.075 262.804 175.825C262.869 175.573 262.995 175.341 263.171 175.149C263.335 174.981 263.544 174.864 263.772 174.811C264.012 174.761 264.26 174.769 264.496 174.835C264.732 174.901 264.948 175.023 265.127 175.19C265.288 175.354 265.398 175.56 265.443 175.785C265.494 176.014 265.486 176.252 265.421 176.477C265.405 176.555 265.382 176.632 265.352 176.706ZM265.019 175.757C264.979 175.62 264.901 175.496 264.794 175.401C264.68 175.298 264.542 175.224 264.393 175.187C264.184 175.123 263.959 175.141 263.764 175.239C263.559 175.349 263.404 175.534 263.331 175.755L265.01 176.225C265.067 176.064 265.073 175.889 265.028 175.724L265.019 175.757Z" fill="black"/>
<path d="M233.574 203.261L234.759 203.592L234.658 203.954L233.035 203.499L233.98 200.125L234.418 200.248L233.574 203.261Z" fill="black"/>
<path d="M235.644 204.093C235.476 203.929 235.358 203.72 235.305 203.492C235.255 203.237 235.265 202.974 235.335 202.724C235.405 202.473 235.533 202.243 235.708 202.051C235.875 201.887 236.083 201.77 236.31 201.714C236.551 201.66 236.802 201.669 237.038 201.74C237.278 201.803 237.499 201.926 237.679 202.097C237.844 202.263 237.961 202.471 238.018 202.698C238.079 202.951 238.071 203.217 237.996 203.466C237.93 203.72 237.797 203.952 237.61 204.137C237.443 204.302 237.235 204.419 237.008 204.475C236.764 204.53 236.509 204.521 236.269 204.45C236.033 204.387 235.818 204.264 235.644 204.093ZM236.86 204.079C237.023 204.041 237.172 203.958 237.292 203.841C237.427 203.698 237.523 203.523 237.571 203.332C237.63 203.146 237.638 202.947 237.596 202.757C237.561 202.595 237.479 202.447 237.36 202.331C237.244 202.221 237.102 202.141 236.948 202.098C236.794 202.054 236.632 202.05 236.475 202.084C236.316 202.124 236.171 202.208 236.057 202.326C235.927 202.47 235.835 202.644 235.789 202.833C235.729 203.021 235.717 203.221 235.753 203.415C235.784 203.573 235.862 203.718 235.976 203.832C236.09 203.942 236.23 204.021 236.383 204.062C236.538 204.106 236.702 204.112 236.86 204.079Z" fill="black"/>
<path d="M238.807 202.904C238.972 202.736 239.18 202.619 239.409 202.566C239.673 202.509 239.947 202.523 240.204 202.608C240.46 202.692 240.689 202.843 240.868 203.045C241.038 203.266 241.122 203.542 241.102 203.82L240.632 203.688C240.638 203.523 240.582 203.361 240.475 203.234C240.364 203.1 240.213 203.004 240.044 202.962C239.931 202.925 239.811 202.913 239.692 202.928C239.574 202.943 239.461 202.984 239.36 203.049C239.147 203.221 238.992 203.455 238.918 203.719C238.844 203.983 238.855 204.264 238.948 204.522C239 204.63 239.075 204.725 239.168 204.8C239.261 204.875 239.369 204.928 239.486 204.956C239.652 205.002 239.829 205.001 239.994 204.952C240.152 204.894 240.284 204.782 240.367 204.636L240.837 204.768C240.702 205.009 240.488 205.198 240.231 205.301C239.952 205.405 239.647 205.412 239.363 205.322C239.126 205.261 238.91 205.138 238.738 204.964C238.57 204.8 238.452 204.592 238.399 204.363C238.345 204.106 238.357 203.84 238.433 203.589C238.496 203.332 238.625 203.096 238.807 202.904Z" fill="black"/>
<path d="M241.747 203.727C241.909 203.559 242.113 203.44 242.338 203.38C242.563 203.321 242.8 203.325 243.023 203.391C243.237 203.443 243.432 203.552 243.589 203.706C243.721 203.842 243.816 204.01 243.864 204.193L243.995 203.724L244.442 203.849L243.7 206.5L243.253 206.375L243.391 205.883C243.254 206.018 243.082 206.112 242.894 206.153C242.682 206.209 242.458 206.204 242.249 206.14C242.022 206.081 241.817 205.958 241.658 205.787C241.493 205.621 241.375 205.413 241.319 205.186C241.268 204.932 241.28 204.67 241.355 204.422C241.425 204.161 241.56 203.922 241.747 203.727ZM243.658 204.475C243.622 204.311 243.541 204.161 243.425 204.04C243.308 203.925 243.164 203.842 243.006 203.798C242.848 203.754 242.682 203.75 242.522 203.787C242.361 203.826 242.215 203.912 242.103 204.034C241.973 204.17 241.88 204.338 241.835 204.521C241.779 204.704 241.77 204.898 241.808 205.085C241.843 205.248 241.922 205.398 242.037 205.519C242.154 205.633 242.299 205.716 242.456 205.76C242.614 205.804 242.781 205.808 242.94 205.771C243.102 205.728 243.249 205.642 243.365 205.521C243.494 205.382 243.585 205.212 243.63 205.028C243.685 204.849 243.695 204.659 243.658 204.475Z" fill="black"/>
<path d="M245.629 204.556L245.192 206.118C245.173 206.166 245.163 206.216 245.165 206.267C245.166 206.318 245.178 206.368 245.2 206.414C245.264 206.5 245.359 206.558 245.465 206.574L245.789 206.665L245.684 207.041L245.284 206.929C245.082 206.887 244.903 206.772 244.781 206.606C244.735 206.511 244.709 206.409 244.704 206.304C244.699 206.199 244.716 206.094 244.754 205.996L245.192 204.433L244.844 204.336L244.945 203.974L245.293 204.072L245.479 203.405L245.917 203.528L245.73 204.194L246.426 204.389L246.325 204.751L245.629 204.556Z" fill="black"/>
<path d="M247.117 204.026C247.077 203.952 247.069 203.866 247.092 203.786C247.103 203.747 247.121 203.71 247.146 203.678C247.17 203.646 247.201 203.619 247.236 203.599C247.31 203.558 247.396 203.548 247.478 203.57C247.516 203.581 247.551 203.599 247.581 203.625C247.612 203.65 247.637 203.681 247.655 203.716C247.674 203.751 247.687 203.79 247.691 203.831C247.696 203.871 247.692 203.912 247.68 203.951C247.659 204.031 247.607 204.1 247.535 204.143C247.502 204.163 247.464 204.176 247.425 204.18C247.386 204.185 247.347 204.182 247.309 204.171C247.229 204.15 247.159 204.097 247.117 204.026ZM247.4 204.662L246.658 207.313L246.216 207.19L246.958 204.538L247.4 204.662Z" fill="black"/>
<path d="M247.926 207.532C247.758 207.368 247.64 207.159 247.587 206.931C247.529 206.675 247.535 206.409 247.606 206.157C247.677 205.904 247.809 205.674 247.991 205.485C248.156 205.318 248.364 205.201 248.593 205.148C248.835 205.098 249.084 205.107 249.322 205.173C249.559 205.24 249.777 205.362 249.957 205.53C250.125 205.694 250.243 205.902 250.296 206.131C250.358 206.384 250.35 206.649 250.274 206.899C250.208 207.153 250.075 207.385 249.888 207.57C249.715 207.736 249.498 207.851 249.263 207.901C249.03 207.954 248.788 207.948 248.558 207.883C248.328 207.819 248.118 207.698 247.946 207.532L247.926 207.532ZM249.142 207.518C249.304 207.479 249.452 207.396 249.569 207.278C249.708 207.138 249.806 206.962 249.853 206.771C249.911 206.584 249.92 206.386 249.877 206.195C249.843 206.033 249.761 205.885 249.641 205.77C249.526 205.66 249.384 205.579 249.23 205.536C249.076 205.493 248.913 205.488 248.757 205.522C248.596 205.558 248.45 205.643 248.339 205.765C248.206 205.911 248.113 206.089 248.068 206.281C248.01 206.47 247.999 206.67 248.037 206.864C248.068 207.022 248.146 207.167 248.26 207.281C248.372 207.394 248.513 207.473 248.667 207.511C248.822 207.554 248.986 207.556 249.142 207.518Z" fill="black"/>
<path d="M253.268 206.568C253.341 206.71 253.385 206.866 253.395 207.026C253.405 207.185 253.382 207.345 253.328 207.496L252.891 209.058L252.458 208.937L252.878 207.435C252.955 207.219 252.943 206.981 252.845 206.773C252.796 206.682 252.727 206.603 252.644 206.54C252.561 206.478 252.465 206.434 252.364 206.411C252.263 206.377 252.155 206.364 252.049 206.375C251.943 206.385 251.841 206.418 251.748 206.471C251.554 206.61 251.417 206.814 251.364 207.047L250.953 208.516L250.52 208.395L251.262 205.743L251.704 205.867L251.599 206.242C251.725 206.132 251.879 206.058 252.045 206.028C252.279 205.991 252.519 206.022 252.736 206.118C252.953 206.213 253.138 206.37 253.268 206.568Z" fill="black"/>
<path d="M226.661 234.783C226.512 234.852 226.35 234.89 226.185 234.896C226.021 234.902 225.857 234.876 225.703 234.818L225.053 234.636L224.659 236.044L224.217 235.921L225.162 232.546L226.253 232.852C226.575 232.916 226.859 233.103 227.046 233.372C227.114 233.49 227.158 233.621 227.175 233.756C227.192 233.891 227.182 234.028 227.145 234.159C227.108 234.29 227.046 234.413 226.961 234.519C226.876 234.626 226.771 234.715 226.652 234.78L226.661 234.783ZM226.395 234.445C226.475 234.403 226.544 234.343 226.597 234.27C226.65 234.198 226.685 234.114 226.701 234.025C226.816 233.612 226.636 233.333 226.156 233.199L225.507 233.017L225.153 234.28L225.802 234.462C225.995 234.53 226.207 234.524 226.395 234.445Z" fill="black"/>
<path d="M229.608 234.657C229.748 234.788 229.844 234.96 229.881 235.148C229.926 235.368 229.913 235.597 229.843 235.81L229.405 237.373L228.973 237.252L229.393 235.75C229.467 235.534 229.456 235.297 229.36 235.088C229.31 234.997 229.242 234.918 229.158 234.855C229.075 234.793 228.98 234.748 228.878 234.726C228.777 234.692 228.67 234.679 228.564 234.69C228.458 234.7 228.355 234.733 228.263 234.786C228.069 234.924 227.932 235.129 227.879 235.362L227.467 236.831L227.025 236.707L228.028 233.126L228.47 233.25L228.105 234.554C228.233 234.444 228.388 234.371 228.555 234.341C228.742 234.306 228.935 234.315 229.119 234.366C229.302 234.418 229.471 234.511 229.613 234.638L229.608 234.657Z" fill="black"/>
<path d="M230.65 237.585C230.482 237.421 230.364 237.212 230.311 236.984C230.257 236.729 230.266 236.465 230.336 236.214C230.406 235.963 230.536 235.733 230.714 235.543C230.881 235.379 231.089 235.262 231.316 235.206C231.558 235.154 231.809 235.161 232.048 235.228C232.286 235.295 232.505 235.419 232.685 235.589C232.85 235.755 232.967 235.963 233.024 236.19C233.085 236.443 233.077 236.709 233.002 236.958C232.936 237.212 232.802 237.444 232.616 237.629C232.451 237.797 232.243 237.914 232.014 237.967C231.77 238.022 231.515 238.013 231.275 237.942C231.039 237.879 230.824 237.756 230.65 237.585ZM231.861 237.57C232.025 237.533 232.175 237.45 232.293 237.331C232.429 237.189 232.525 237.013 232.573 236.823C232.631 236.636 232.639 236.438 232.597 236.247C232.562 236.085 232.48 235.937 232.361 235.822C232.245 235.712 232.104 235.631 231.949 235.588C231.795 235.545 231.633 235.54 231.476 235.574C231.318 235.614 231.174 235.698 231.063 235.818C230.928 235.958 230.833 236.133 230.79 236.324C230.731 236.512 230.718 236.711 230.754 236.906C230.786 237.065 230.865 237.211 230.982 237.324C231.092 237.435 231.232 237.515 231.384 237.553C231.539 237.601 231.704 237.607 231.861 237.57Z" fill="black"/>
<path d="M235.988 236.62C236.06 236.762 236.104 236.918 236.115 237.078C236.126 237.237 236.105 237.398 236.052 237.549L235.615 239.112L235.177 238.989L235.598 237.487C235.673 237.272 235.663 237.035 235.57 236.827C235.519 236.735 235.449 236.655 235.365 236.593C235.281 236.53 235.185 236.486 235.083 236.463C234.982 236.429 234.875 236.416 234.769 236.427C234.663 236.437 234.56 236.47 234.468 236.523C234.273 236.662 234.136 236.866 234.083 237.099L233.672 238.568L233.234 238.445L233.977 235.794L234.414 235.916L234.309 236.292C234.435 236.181 234.589 236.107 234.755 236.077C234.931 236.046 235.112 236.055 235.285 236.104C235.431 236.138 235.568 236.201 235.689 236.29C235.81 236.378 235.912 236.491 235.988 236.62Z" fill="black"/>
<path d="M239.073 238.825L236.947 238.23C236.889 238.463 236.923 238.71 237.043 238.919C237.167 239.11 237.359 239.247 237.58 239.303C237.745 239.353 237.922 239.353 238.087 239.303C238.238 239.253 238.368 239.154 238.455 239.021L238.926 239.153C238.789 239.384 238.578 239.562 238.327 239.659C238.05 239.758 237.747 239.764 237.465 239.675C237.227 239.615 237.009 239.491 236.835 239.317C236.668 239.153 236.55 238.944 236.496 238.716C236.442 238.46 236.453 238.195 236.529 237.946C236.594 237.695 236.72 237.464 236.895 237.274C237.059 237.106 237.268 236.989 237.497 236.936C237.739 236.879 237.993 236.887 238.231 236.959C238.466 237.021 238.68 237.144 238.852 237.315C239.024 237.476 239.142 237.686 239.191 237.916C239.247 238.224 239.214 238.542 239.097 238.831L239.073 238.825ZM238.739 237.881C238.701 237.741 238.624 237.616 238.515 237.52C238.401 237.417 238.263 237.343 238.114 237.306C237.905 237.242 237.68 237.26 237.485 237.358C237.28 237.468 237.125 237.653 237.052 237.874L238.731 238.344C238.778 238.194 238.781 238.033 238.739 237.881Z" fill="black"/>
<path d="M243.392 238.693C243.464 238.835 243.508 238.991 243.519 239.151C243.53 239.31 243.508 239.471 243.456 239.622L243.019 241.185L242.581 241.062L243.002 239.56C243.077 239.345 243.067 239.108 242.973 238.9C242.862 238.72 242.687 238.589 242.483 238.532C242.279 238.475 242.061 238.496 241.873 238.591C241.678 238.73 241.542 238.935 241.488 239.167L241.077 240.636L240.64 240.513L241.382 237.862L241.819 237.984L241.714 238.36C241.841 238.249 241.995 238.175 242.16 238.145C242.336 238.116 242.517 238.127 242.689 238.177C242.834 238.212 242.972 238.276 243.092 238.364C243.213 238.453 243.315 238.564 243.392 238.693Z" fill="black"/>
<path d="M246.837 239.394L246.095 242.046L245.653 241.922L245.763 241.528C245.641 241.642 245.49 241.719 245.326 241.749C245.149 241.781 244.968 241.771 244.795 241.723C244.601 241.671 244.421 241.574 244.271 241.439C244.13 241.306 244.031 241.134 243.989 240.945C243.945 240.724 243.956 240.496 244.022 240.281L244.457 238.728L244.895 238.85L244.477 240.343C244.401 240.558 244.411 240.795 244.505 241.003C244.618 241.181 244.793 241.311 244.996 241.368C245.199 241.425 245.416 241.405 245.605 241.312C245.802 241.176 245.938 240.969 245.985 240.735L246.392 239.28L246.837 239.394Z" fill="black"/>
<path d="M251.312 240.733C251.452 240.865 251.548 241.036 251.585 241.225C251.631 241.445 251.62 241.674 251.551 241.888L251.114 243.451L250.676 243.329L251.097 241.827C251.172 241.612 251.164 241.377 251.074 241.167C251.025 241.077 250.958 240.998 250.877 240.936C250.795 240.874 250.701 240.83 250.601 240.807C250.5 240.774 250.393 240.762 250.288 240.774C250.182 240.785 250.08 240.819 249.989 240.874C249.792 241.01 249.656 241.217 249.609 241.451L249.199 242.915L248.762 242.793L249.182 241.291C249.258 241.075 249.248 240.839 249.154 240.63C249.107 240.54 249.041 240.461 248.96 240.399C248.879 240.338 248.786 240.294 248.687 240.271C248.586 240.238 248.479 240.226 248.373 240.238C248.268 240.249 248.166 240.283 248.075 240.338C247.878 240.474 247.742 240.681 247.695 240.915L247.285 242.379L246.843 242.255L247.585 239.604L248.027 239.727L247.921 240.108C248.044 239.994 248.198 239.917 248.363 239.887C248.529 239.853 248.702 239.86 248.865 239.906C249.074 239.959 249.265 240.069 249.416 240.222C249.557 240.373 249.648 240.565 249.673 240.77C249.795 240.607 249.969 240.49 250.167 240.438C250.368 240.383 250.58 240.385 250.779 240.442C250.978 240.494 251.161 240.593 251.312 240.733Z" fill="black"/>
<path d="M253.389 241.34C253.6 241.288 253.821 241.294 254.029 241.357C254.255 241.419 254.461 241.539 254.625 241.706C254.79 241.873 254.907 242.08 254.965 242.307C255.016 242.56 255.004 242.82 254.93 243.067C254.865 243.317 254.739 243.548 254.564 243.739C254.398 243.903 254.19 244.02 253.962 244.076C253.736 244.135 253.499 244.134 253.274 244.071C253.06 244.017 252.865 243.906 252.709 243.751C252.574 243.613 252.477 243.443 252.426 243.257L252.288 243.749L251.851 243.627L252.854 240.046L253.291 240.169L252.897 241.577C253.04 241.46 253.209 241.379 253.389 241.34ZM254.48 242.389C254.448 242.227 254.368 242.078 254.25 241.961C254.13 241.84 253.978 241.753 253.813 241.712C253.65 241.659 253.475 241.654 253.309 241.697C253.147 241.739 252.999 241.826 252.884 241.948C252.756 242.086 252.662 242.253 252.611 242.435C252.56 242.617 252.553 242.809 252.591 242.994C252.626 243.158 252.707 243.309 252.825 243.429C252.944 243.552 253.096 243.638 253.262 243.678C253.426 243.728 253.599 243.733 253.765 243.692C253.926 243.648 254.072 243.561 254.186 243.441C254.316 243.301 254.41 243.13 254.457 242.944C254.512 242.765 254.52 242.573 254.48 242.389Z" fill="black"/>
<path d="M257.851 244.082L255.725 243.487C255.667 243.721 255.701 243.968 255.821 244.177C255.945 244.368 256.137 244.505 256.358 244.56C256.523 244.61 256.7 244.61 256.865 244.56C257.011 244.504 257.134 244.402 257.216 244.269L257.686 244.4C257.549 244.631 257.339 244.809 257.088 244.906C256.81 245.006 256.508 245.011 256.226 244.923C255.988 244.862 255.77 244.738 255.596 244.564C255.428 244.4 255.31 244.192 255.257 243.963C255.202 243.708 255.213 243.443 255.29 243.193C255.355 242.942 255.48 242.712 255.656 242.521C255.82 242.354 256.029 242.237 256.257 242.183C256.5 242.126 256.753 242.134 256.991 242.207C257.226 242.268 257.44 242.391 257.612 242.563C257.774 242.725 257.884 242.932 257.928 243.157C257.984 243.465 257.951 243.782 257.834 244.072L257.851 244.082ZM257.531 243.142C257.493 243.003 257.416 242.877 257.307 242.781C257.195 242.679 257.058 242.606 256.91 242.569C256.701 242.504 256.474 242.522 256.277 242.619C256.072 242.73 255.917 242.914 255.844 243.135L257.523 243.606C257.571 243.455 257.573 243.294 257.531 243.142Z" fill="black"/>
<path d="M259.616 243.053C259.801 243.009 259.996 243.016 260.178 243.074L260.047 243.543L259.929 243.51C259.435 243.372 259.111 243.569 258.961 244.104L258.556 245.55L258.119 245.427L258.861 242.776L259.299 242.898L259.186 243.302C259.302 243.179 259.451 243.092 259.616 243.053Z" fill="black"/>
<path d="M227.327 269.004C227.304 268.969 227.29 268.928 227.285 268.887C227.28 268.845 227.284 268.803 227.298 268.763C227.321 268.684 227.374 268.617 227.446 268.577C227.482 268.557 227.521 268.545 227.561 268.541C227.602 268.537 227.643 268.54 227.682 268.552C227.72 268.562 227.756 268.58 227.788 268.604C227.819 268.629 227.846 268.659 227.865 268.694C227.884 268.73 227.897 268.769 227.901 268.809C227.906 268.849 227.902 268.89 227.89 268.929C227.881 268.969 227.863 269.007 227.838 269.04C227.813 269.074 227.782 269.101 227.745 269.121C227.711 269.141 227.672 269.154 227.633 269.158C227.593 269.163 227.553 269.159 227.515 269.148C227.475 269.137 227.439 269.119 227.406 269.095C227.374 269.07 227.347 269.039 227.327 269.004ZM227.605 269.639L226.863 272.29L226.426 272.168L227.168 269.516L227.605 269.639Z" fill="black"/>
<path d="M229.681 270.868C229.845 270.7 230.054 270.583 230.283 270.53C230.51 270.471 230.749 270.475 230.975 270.542C231.188 270.596 231.383 270.706 231.539 270.862C231.673 270.995 231.768 271.161 231.815 271.344L231.947 270.874L232.394 271L231.651 273.651L231.204 273.526L231.342 273.033C231.202 273.166 231.031 273.261 230.844 273.309C230.624 273.358 230.394 273.349 230.178 273.284C229.962 273.219 229.766 273.1 229.609 272.938C229.441 272.773 229.323 272.565 229.27 272.337C229.227 272.087 229.24 271.832 229.308 271.588C229.376 271.345 229.498 271.119 229.664 270.929L229.681 270.868ZM231.587 271.614C231.552 271.448 231.472 271.296 231.354 271.174C231.237 271.051 231.088 270.964 230.924 270.922C230.76 270.874 230.587 270.869 230.421 270.908C230.261 270.95 230.116 271.035 230.001 271.155C229.875 271.295 229.782 271.463 229.731 271.646C229.68 271.828 229.672 272.02 229.707 272.206C229.772 272.452 229.931 272.662 230.149 272.793C230.367 272.924 230.628 272.965 230.875 272.908C231.037 272.862 231.182 272.773 231.297 272.651C231.424 272.511 231.516 272.344 231.567 272.162C231.618 271.981 231.626 271.79 231.59 271.605L231.587 271.614Z" fill="black"/>
<path d="M234.89 271.795C235.026 271.927 235.124 272.094 235.17 272.278L235.302 271.809L235.772 271.94L235.014 274.648C234.957 274.876 234.841 275.084 234.677 275.253C234.526 275.413 234.328 275.524 234.112 275.57C233.874 275.623 233.627 275.613 233.394 275.541C233.082 275.467 232.802 275.296 232.593 275.053C232.5 274.946 232.431 274.819 232.392 274.682C232.354 274.546 232.345 274.402 232.368 274.262L232.805 274.384C232.806 274.561 232.875 274.731 232.997 274.858C233.132 275.006 233.307 275.112 233.501 275.161C233.609 275.196 233.723 275.208 233.836 275.197C233.949 275.186 234.059 275.152 234.158 275.097C234.262 275.035 234.352 274.952 234.423 274.853C234.493 274.754 234.542 274.642 234.567 274.523L234.726 273.955C234.588 274.088 234.418 274.184 234.233 274.232C234.021 274.288 233.797 274.283 233.587 274.219C233.363 274.154 233.159 274.032 232.995 273.865C232.832 273.697 232.716 273.491 232.657 273.265C232.614 273.015 232.627 272.76 232.695 272.516C232.764 272.273 232.885 272.048 233.051 271.857C233.216 271.689 233.424 271.572 233.653 271.519C233.879 271.459 234.116 271.463 234.34 271.529C234.543 271.569 234.732 271.661 234.89 271.795ZM234.965 272.56C234.929 272.397 234.849 272.247 234.735 272.126C234.621 272.005 234.476 271.917 234.315 271.872C234.152 271.823 233.978 271.818 233.812 271.857C233.652 271.899 233.507 271.985 233.393 272.104C233.266 272.245 233.173 272.413 233.122 272.595C233.071 272.778 233.063 272.969 233.099 273.156C233.133 273.319 233.212 273.471 233.326 273.594C233.443 273.708 233.587 273.791 233.745 273.835C233.903 273.88 234.069 273.883 234.229 273.847C234.392 273.803 234.54 273.715 234.656 273.591C234.778 273.449 234.868 273.282 234.918 273.101C234.969 272.92 234.979 272.73 234.949 272.545L234.965 272.56Z" fill="black"/>
<path d="M237.349 272.453C237.534 272.409 237.729 272.416 237.911 272.473L237.779 272.943L237.662 272.91C237.168 272.772 236.844 272.969 236.694 273.504L236.291 274.945L235.853 274.823L236.595 272.171L237.033 272.293L236.912 272.725C237.027 272.592 237.179 272.497 237.349 272.453Z" fill="black"/>
<path d="M240.495 274.857L238.369 274.262C238.34 274.374 238.333 274.492 238.35 274.607C238.367 274.723 238.406 274.834 238.465 274.934C238.525 275.034 238.604 275.122 238.697 275.192C238.79 275.262 238.897 275.313 239.01 275.342C239.175 275.392 239.352 275.392 239.517 275.342C239.668 275.291 239.799 275.193 239.89 275.062L240.36 275.194C240.22 275.422 240.009 275.597 239.759 275.693C239.481 275.793 239.178 275.799 238.897 275.71C238.658 275.649 238.441 275.525 238.267 275.351C238.099 275.187 237.981 274.979 237.928 274.75C237.873 274.495 237.885 274.23 237.961 273.98C238.022 273.727 238.148 273.493 238.328 273.304C238.492 273.136 238.701 273.019 238.929 272.966C239.172 272.913 239.424 272.923 239.662 272.994C239.897 273.055 240.111 273.176 240.284 273.345C240.446 273.508 240.556 273.715 240.6 273.94C240.652 274.17 240.645 274.41 240.577 274.637C240.567 274.716 240.539 274.791 240.495 274.857ZM240.162 273.908C240.123 273.769 240.045 273.644 239.938 273.547C239.824 273.447 239.688 273.374 239.541 273.335C239.332 273.27 239.106 273.29 238.912 273.391C238.809 273.443 238.717 273.515 238.642 273.603C238.567 273.69 238.51 273.792 238.475 273.902L240.163 274.374C240.206 274.222 240.206 274.061 240.162 273.908Z" fill="black"/>
<path d="M243.6 275.726L241.473 275.131C241.415 275.363 241.45 275.609 241.571 275.816C241.693 276.007 241.882 276.145 242.102 276.203C242.267 276.253 242.444 276.253 242.609 276.203C242.758 276.15 242.887 276.051 242.977 275.921L243.447 276.053C243.311 276.282 243.1 276.459 242.85 276.554C242.571 276.653 242.267 276.658 241.984 276.569C241.748 276.507 241.532 276.383 241.358 276.212C241.191 276.048 241.073 275.839 241.019 275.611C240.965 275.356 240.976 275.091 241.052 274.841C241.118 274.589 241.244 274.357 241.419 274.164C241.584 273.997 241.792 273.88 242.021 273.827C242.262 273.773 242.513 273.782 242.749 273.853C242.985 273.914 243.201 274.036 243.376 274.206C243.538 274.368 243.648 274.575 243.691 274.8C243.744 275.031 243.736 275.271 243.669 275.497C243.652 275.576 243.629 275.652 243.6 275.726ZM243.267 274.778C243.227 274.639 243.15 274.514 243.043 274.416C242.926 274.317 242.789 274.244 242.641 274.203C242.432 274.14 242.206 274.16 242.012 274.259C241.808 274.369 241.653 274.552 241.579 274.771L243.259 275.241C243.304 275.09 243.307 274.93 243.267 274.778Z" fill="black"/>
<path d="M246.536 275.329L246.099 276.891C246.08 276.939 246.071 276.991 246.072 277.042C246.073 277.094 246.085 277.145 246.106 277.192C246.171 277.276 246.266 277.333 246.371 277.352L246.695 277.443L246.591 277.814L246.192 277.702C245.99 277.66 245.81 277.545 245.688 277.379C245.64 277.285 245.612 277.182 245.606 277.077C245.601 276.971 245.618 276.866 245.657 276.768L246.094 275.205L245.751 275.109L245.852 274.747L246.195 274.843L246.382 274.177L246.824 274.301L246.638 274.967L247.334 275.162L247.233 275.524L246.536 275.329Z" fill="black"/>
<path d="M247.737 277.998C247.569 277.834 247.451 277.625 247.398 277.397C247.348 277.141 247.358 276.877 247.428 276.626C247.499 276.375 247.627 276.144 247.803 275.951C247.967 275.784 248.176 275.667 248.404 275.614C248.646 275.564 248.895 275.573 249.133 275.639C249.37 275.706 249.588 275.828 249.768 275.996C249.936 276.16 250.054 276.368 250.107 276.597C250.168 276.852 250.16 277.118 250.084 277.369C250.018 277.624 249.885 277.856 249.698 278.041C249.523 278.205 249.307 278.32 249.073 278.372C248.83 278.426 248.578 278.418 248.339 278.349C248.112 278.283 247.906 278.162 247.737 277.998ZM248.953 277.984C249.116 277.948 249.265 277.865 249.38 277.744C249.519 277.606 249.617 277.432 249.663 277.242C249.721 277.054 249.73 276.854 249.689 276.662C249.651 276.501 249.569 276.354 249.453 276.236C249.337 276.126 249.195 276.045 249.041 276.002C248.887 275.959 248.725 275.954 248.568 275.989C248.409 276.029 248.264 276.113 248.15 276.231C248.021 276.378 247.927 276.552 247.874 276.741C247.822 276.929 247.812 277.127 247.846 277.32C247.875 277.479 247.952 277.626 248.067 277.741C248.182 277.85 248.322 277.929 248.475 277.972C248.631 278.015 248.795 278.02 248.953 277.984Z" fill="black"/>
<path d="M252.99 277.136L252.553 278.698C252.533 278.746 252.524 278.798 252.526 278.849C252.527 278.901 252.538 278.952 252.56 278.999C252.625 279.083 252.719 279.14 252.824 279.159L253.149 279.25L253.045 279.621L252.645 279.509C252.443 279.467 252.264 279.352 252.142 279.186C252.094 279.092 252.066 278.989 252.06 278.883C252.055 278.778 252.072 278.673 252.11 278.574L252.548 277.012L252.205 276.916L252.306 276.554L252.649 276.65L252.836 275.984L253.278 276.108L253.091 276.774L253.787 276.969L253.686 277.33L252.99 277.136Z" fill="black"/>
<path d="M256.253 277.746C256.394 277.877 256.489 278.049 256.527 278.237C256.571 278.458 256.559 278.686 256.493 278.901L256.056 280.463L255.618 280.341L256.033 278.858C256.109 278.642 256.099 278.406 256.005 278.197C255.894 278.017 255.719 277.885 255.515 277.828C255.311 277.771 255.093 277.792 254.905 277.889C254.71 278.028 254.573 278.232 254.52 278.465L254.11 279.929L253.673 279.806L254.675 276.226L255.113 276.348L254.746 277.658C254.872 277.544 255.029 277.47 255.196 277.445C255.379 277.413 255.567 277.424 255.745 277.477C255.934 277.523 256.109 277.615 256.253 277.746Z" fill="black"/>
<path d="M259.607 280.208L257.467 279.609C257.436 279.723 257.428 279.843 257.445 279.961C257.462 280.079 257.502 280.192 257.564 280.294C257.686 280.484 257.876 280.622 258.095 280.68C258.26 280.731 258.437 280.731 258.602 280.68C258.752 280.628 258.88 280.529 258.97 280.399L259.441 280.531C259.305 280.762 259.092 280.939 258.839 281.03C258.561 281.13 258.259 281.136 257.977 281.047C257.74 280.984 257.522 280.86 257.347 280.688C257.179 280.524 257.062 280.316 257.008 280.087C256.954 279.832 256.965 279.567 257.041 279.317C257.102 279.064 257.229 278.83 257.408 278.641C257.572 278.473 257.781 278.356 258.01 278.303C258.252 278.25 258.505 278.26 258.743 278.331C258.977 278.391 259.192 278.512 259.365 278.682C259.535 278.844 259.653 279.054 259.704 279.283C259.754 279.514 259.745 279.753 259.676 279.979C259.66 280.057 259.637 280.134 259.607 280.208ZM259.279 279.261C259.238 279.121 259.159 278.995 259.05 278.898C258.936 278.797 258.8 278.725 258.653 278.686C258.444 278.621 258.218 278.641 258.024 278.742C257.818 278.849 257.662 279.033 257.591 279.254L259.266 279.723C259.313 279.573 259.317 279.413 259.279 279.261Z" fill="black"/>
<path d="M264.391 279.174L264.291 279.53L263.35 279.267L262.507 282.28L262.065 282.156L262.908 279.143L261.967 278.88L262.067 278.523L264.391 279.174Z" fill="black"/>
<path d="M266.823 282.228L264.697 281.633C264.644 281.863 264.683 282.104 264.805 282.307C264.927 282.509 265.123 282.656 265.352 282.717C265.517 282.767 265.694 282.767 265.859 282.717C266.01 282.666 266.141 282.568 266.232 282.437L266.702 282.569C266.563 282.798 266.351 282.974 266.101 283.068C265.823 283.168 265.52 283.174 265.239 283.085C265 283.024 264.782 282.9 264.608 282.727C264.441 282.562 264.323 282.354 264.269 282.126C264.215 281.87 264.226 281.605 264.303 281.355C264.364 281.102 264.49 280.869 264.669 280.679C264.834 280.511 265.043 280.394 265.271 280.341C265.514 280.288 265.766 280.298 266.004 280.369C266.239 280.429 266.453 280.55 266.626 280.72C266.788 280.883 266.898 281.09 266.941 281.315C266.994 281.545 266.986 281.785 266.919 282.012C266.882 282.082 266.85 282.154 266.823 282.228ZM266.49 281.279C266.452 281.14 266.374 281.014 266.266 280.918C266.152 280.818 266.016 280.745 265.869 280.706C265.66 280.641 265.434 280.661 265.24 280.762C265.136 280.814 265.045 280.886 264.97 280.974C264.895 281.061 264.838 281.163 264.802 281.273L266.505 281.749C266.544 281.594 266.539 281.432 266.49 281.279Z" fill="black"/>
<path d="M268.681 281.225C268.867 281.181 269.061 281.189 269.244 281.246L269.112 281.715L268.995 281.682C268.501 281.544 268.176 281.742 268.027 282.277L267.623 283.717L267.181 283.594L267.923 280.942L268.366 281.066L268.245 281.497C268.359 281.365 268.511 281.27 268.681 281.225Z" fill="black"/>
<path d="M273.564 282.592C273.703 282.725 273.8 282.897 273.842 283.085C273.886 283.305 273.874 283.533 273.808 283.748L273.371 285.311L272.933 285.189L273.348 283.706C273.424 283.49 273.414 283.254 273.32 283.045C273.272 282.955 273.205 282.876 273.123 282.814C273.042 282.752 272.948 282.708 272.848 282.685C272.748 282.652 272.642 282.64 272.537 282.652C272.432 282.664 272.331 282.698 272.241 282.753C272.042 282.89 271.904 283.097 271.855 283.333L271.446 284.793L271.013 284.672L271.434 283.17C271.51 282.954 271.5 282.718 271.406 282.509C271.358 282.419 271.29 282.34 271.209 282.278C271.127 282.216 271.033 282.172 270.933 282.149C270.833 282.116 270.727 282.104 270.622 282.116C270.517 282.128 270.416 282.162 270.326 282.217C270.128 282.354 269.99 282.561 269.94 282.797L269.532 284.257L269.09 284.133L269.832 281.481L270.274 281.605L270.166 281.99C270.29 281.876 270.443 281.8 270.609 281.77C270.775 281.736 270.947 281.742 271.11 281.789C271.319 281.842 271.51 281.951 271.661 282.105C271.637 282.157 271.625 282.213 271.625 282.27C271.625 282.327 271.638 282.384 271.662 282.435C271.686 282.487 271.721 282.533 271.765 282.57C271.808 282.607 271.859 282.634 271.914 282.65C271.969 282.665 272.027 282.669 272.084 282.66C272.14 282.651 272.194 282.629 272.241 282.598C272.289 282.566 272.329 282.524 272.359 282.475C272.388 282.427 272.407 282.372 272.414 282.315C272.616 282.259 272.83 282.261 273.031 282.321C273.229 282.363 273.413 282.457 273.564 282.592Z" fill="black"/>
<path d="M274.601 285.575C274.468 285.47 274.365 285.333 274.301 285.177C274.242 285.027 274.23 284.863 274.265 284.706L274.736 284.838C274.725 284.904 274.727 284.971 274.743 285.035C274.759 285.1 274.788 285.16 274.829 285.213C274.933 285.339 275.076 285.427 275.235 285.464C275.374 285.511 275.524 285.51 275.662 285.462C275.717 285.443 275.766 285.412 275.805 285.37C275.844 285.328 275.872 285.277 275.887 285.221C275.904 285.168 275.905 285.111 275.891 285.058C275.876 285.004 275.846 284.956 275.804 284.919C275.675 284.804 275.532 284.705 275.379 284.624C275.23 284.537 275.088 284.44 274.954 284.332C274.845 284.245 274.758 284.134 274.699 284.008C274.622 283.871 274.595 283.711 274.623 283.556C274.66 283.421 274.74 283.302 274.85 283.215C274.972 283.122 275.116 283.063 275.269 283.044C275.448 283.021 275.631 283.036 275.804 283.088C276.064 283.149 276.295 283.297 276.457 283.508C276.525 283.609 276.571 283.722 276.592 283.841C276.613 283.961 276.608 284.083 276.578 284.2L276.136 284.076C276.15 284.011 276.151 283.944 276.138 283.878C276.125 283.813 276.098 283.751 276.06 283.696C275.967 283.585 275.844 283.503 275.706 283.46C275.568 283.417 275.421 283.414 275.281 283.452C275.229 283.469 275.181 283.498 275.143 283.538C275.105 283.578 275.079 283.627 275.065 283.68C275.054 283.719 275.05 283.76 275.054 283.8C275.059 283.841 275.071 283.88 275.091 283.915C275.133 283.992 275.192 284.059 275.264 284.111C275.368 284.189 275.476 284.262 275.589 284.328C275.738 284.411 275.881 284.506 276.017 284.61C276.12 284.694 276.203 284.8 276.26 284.921C276.32 285.055 276.33 285.207 276.287 285.348C276.248 285.489 276.167 285.615 276.055 285.708C275.934 285.806 275.789 285.867 275.635 285.884C275.457 285.91 275.276 285.895 275.104 285.842C274.919 285.789 274.748 285.698 274.601 285.575Z" fill="black"/>
<path d="M280.803 287.392L280.492 286.799C280.298 286.92 280.081 286.998 279.854 287.03C279.407 287.082 278.958 286.956 278.603 286.68C278.45 286.555 278.338 286.388 278.282 286.199C278.227 286.009 278.229 285.808 278.291 285.621C278.348 285.394 278.481 285.194 278.668 285.053C278.875 284.902 279.122 284.813 279.379 284.797C279.318 284.669 279.274 284.534 279.248 284.396C279.235 284.276 279.245 284.155 279.276 284.039C279.315 283.904 279.389 283.781 279.492 283.685C279.602 283.589 279.738 283.526 279.882 283.506C280.048 283.476 280.219 283.488 280.38 283.539C280.545 283.578 280.697 283.658 280.822 283.774C280.928 283.869 281.001 283.996 281.03 284.136C281.06 284.278 281.052 284.426 281.006 284.564L280.564 284.44C280.585 284.386 280.594 284.327 280.59 284.268C280.586 284.21 280.57 284.152 280.543 284.1C280.482 284.002 280.386 283.929 280.274 283.899C280.218 283.879 280.158 283.872 280.098 283.876C280.039 283.88 279.981 283.896 279.928 283.923C279.879 283.947 279.836 283.981 279.803 284.023C279.769 284.065 279.745 284.115 279.733 284.167C279.705 284.267 279.706 284.372 279.734 284.471C279.774 284.614 279.833 284.751 279.909 284.879L280.633 286.17L280.76 286.059L281.243 285.602L281.714 285.734L281.127 286.309C281.037 286.395 280.942 286.479 280.844 286.558L281.393 287.532L280.803 287.392ZM279.788 286.652C279.963 286.621 280.129 286.552 280.275 286.45L279.561 285.177C279.103 285.221 278.826 285.411 278.73 285.754C278.703 285.842 278.696 285.935 278.709 286.026C278.722 286.117 278.755 286.204 278.806 286.281C278.915 286.452 279.087 286.573 279.285 286.618C279.447 286.669 279.62 286.681 279.788 286.652Z" fill="black"/>
<path d="M285.72 286.952C285.417 287.085 285.074 287.096 284.763 286.982L284.113 286.801L283.719 288.209L283.277 288.085L284.218 284.725L285.309 285.03C285.63 285.095 285.914 285.279 286.103 285.546C286.172 285.664 286.216 285.794 286.234 285.93C286.251 286.065 286.241 286.202 286.205 286.333C286.168 286.465 286.105 286.587 286.02 286.694C285.935 286.8 285.829 286.889 285.709 286.954L285.72 286.952ZM285.454 286.614C285.532 286.57 285.6 286.51 285.653 286.437C285.705 286.365 285.742 286.282 285.759 286.194C285.876 285.776 285.694 285.502 285.215 285.368L284.565 285.186L284.219 286.425L284.868 286.607C285.051 286.673 285.252 286.674 285.435 286.609L285.454 286.614Z" fill="black"/>
<path d="M287.676 286.543C287.862 286.499 288.056 286.507 288.238 286.564L288.107 287.033L287.989 287C287.519 286.868 287.171 287.059 287.021 287.594L286.618 289.035L286.18 288.913L286.923 286.261L287.36 286.384L287.239 286.815C287.356 286.685 287.507 286.591 287.676 286.543Z" fill="black"/>
<path d="M288.99 286.268C288.95 286.195 288.94 286.11 288.963 286.03C288.985 285.95 289.038 285.882 289.11 285.841C289.145 285.822 289.185 285.809 289.225 285.805C289.265 285.801 289.306 285.804 289.345 285.816C289.384 285.826 289.42 285.844 289.452 285.868C289.483 285.893 289.509 285.923 289.529 285.958C289.548 285.994 289.56 286.033 289.565 286.073C289.569 286.114 289.566 286.154 289.554 286.193C289.545 286.234 289.527 286.272 289.502 286.305C289.477 286.338 289.445 286.365 289.409 286.385C289.374 286.405 289.336 286.418 289.296 286.422C289.257 286.427 289.217 286.423 289.178 286.412C289.139 286.402 289.102 286.383 289.07 286.359C289.038 286.334 289.011 286.303 288.99 286.268ZM289.274 286.904L288.531 289.556L288.089 289.432L288.832 286.78L289.274 286.904Z" fill="black"/>
<path d="M290.48 289.661L291.931 287.648L292.402 287.78L290.62 290.141L290.107 289.997L289.805 287.053L290.276 287.185L290.48 289.661Z" fill="black"/>
<path d="M292.77 288.531C292.934 288.364 293.143 288.246 293.372 288.193C293.599 288.134 293.838 288.138 294.063 288.205C294.277 288.259 294.472 288.37 294.628 288.525C294.762 288.658 294.857 288.824 294.904 289.007L295.036 288.538L295.506 288.669L294.764 291.321L294.298 291.191L294.436 290.698C294.296 290.83 294.124 290.925 293.938 290.973C293.609 291.052 293.263 290.998 292.975 290.822C292.686 290.647 292.479 290.364 292.399 290.036L292.411 289.994C292.368 289.745 292.381 289.489 292.449 289.246C292.517 289.002 292.639 288.777 292.805 288.586L292.77 288.531ZM294.676 289.277C294.641 289.116 294.561 288.968 294.446 288.848C294.361 288.759 294.258 288.688 294.144 288.639C294.03 288.59 293.908 288.565 293.784 288.564C293.66 288.563 293.538 288.588 293.423 288.635C293.309 288.683 293.206 288.753 293.119 288.841C292.997 288.984 292.907 289.153 292.856 289.334C292.805 289.516 292.794 289.706 292.825 289.893C292.86 290.058 292.94 290.21 293.057 290.332C293.171 290.448 293.314 290.532 293.471 290.574C293.635 290.623 293.808 290.628 293.974 290.589C294.136 290.545 294.283 290.456 294.396 290.332C294.523 290.193 294.615 290.025 294.666 289.844C294.717 289.662 294.725 289.471 294.689 289.286L294.676 289.277Z" fill="black"/>
<path d="M296.143 289.475C296.307 289.308 296.516 289.191 296.744 289.138C296.98 289.08 297.227 289.086 297.46 289.156C297.751 289.225 298.012 289.387 298.203 289.617C298.372 289.84 298.455 290.117 298.436 290.396L297.966 290.264C297.971 290.097 297.916 289.935 297.81 289.805C297.672 289.648 297.484 289.543 297.277 289.508C297.071 289.474 296.859 289.511 296.677 289.615C296.467 289.79 296.315 290.024 296.241 290.287C296.167 290.55 296.175 290.83 296.264 291.088C296.317 291.195 296.393 291.289 296.486 291.364C296.579 291.439 296.687 291.493 296.802 291.522C296.969 291.569 297.145 291.567 297.311 291.518C297.467 291.46 297.598 291.35 297.682 291.207L298.152 291.338C298.017 291.58 297.801 291.766 297.543 291.866C297.264 291.97 296.958 291.977 296.675 291.886C296.44 291.825 296.226 291.702 296.054 291.53C295.886 291.366 295.769 291.158 295.715 290.929C295.669 290.674 295.682 290.411 295.752 290.16C295.822 289.91 295.948 289.679 296.12 289.484L296.143 289.475Z" fill="black"/>
<path d="M301.631 290.364L298.94 293.816L298.469 293.684L299.349 292.554L299.016 289.632L299.486 289.763L299.717 292.146L301.142 290.227L301.631 290.364Z" fill="black"/>
<path d="M305.269 292.425C304.966 292.558 304.623 292.569 304.312 292.456L303.663 292.274L303.269 293.682L302.827 293.558L303.767 290.198L304.859 290.503C305.179 290.568 305.463 290.753 305.653 291.019C305.721 291.137 305.765 291.268 305.782 291.403C305.799 291.538 305.789 291.675 305.752 291.806C305.715 291.937 305.653 292.06 305.568 292.166C305.483 292.273 305.378 292.362 305.259 292.427L305.269 292.425ZM305.004 292.088C305.082 292.044 305.15 291.983 305.202 291.911C305.255 291.838 305.291 291.755 305.309 291.667C305.426 291.249 305.244 290.976 304.764 290.841L304.115 290.66L303.768 291.899L304.417 292.08C304.606 292.153 304.814 292.156 305.004 292.088Z" fill="black"/>
<path d="M306.249 294.38C306.081 294.215 305.963 294.007 305.91 293.779C305.86 293.523 305.87 293.259 305.94 293.008C306.011 292.757 306.139 292.526 306.315 292.333C306.481 292.169 306.689 292.052 306.916 291.996C307.158 291.946 307.407 291.955 307.645 292.021C307.882 292.088 308.1 292.21 308.28 292.377C308.448 292.542 308.566 292.75 308.619 292.978C308.68 293.234 308.672 293.5 308.596 293.751C308.53 294.006 308.397 294.238 308.21 294.423C308.044 294.587 307.836 294.704 307.608 294.76C307.366 294.815 307.113 294.807 306.874 294.737C306.638 294.674 306.423 294.55 306.249 294.38ZM307.465 294.366C307.628 294.33 307.777 294.246 307.892 294.126C308.031 293.988 308.129 293.814 308.175 293.623C308.233 293.435 308.242 293.236 308.201 293.043C308.163 292.883 308.081 292.735 307.965 292.618C307.849 292.508 307.707 292.427 307.553 292.384C307.399 292.341 307.237 292.336 307.08 292.37C306.921 292.411 306.776 292.495 306.662 292.613C306.533 292.76 306.439 292.934 306.386 293.122C306.333 293.311 306.324 293.509 306.358 293.701C306.389 293.861 306.466 294.007 306.579 294.123C306.694 294.232 306.834 294.311 306.987 294.353C307.143 294.397 307.307 294.401 307.465 294.366Z" fill="black"/>
<path d="M310.358 291.805L309.356 295.386L308.913 295.262L309.916 291.681L310.358 291.805Z" fill="black"/>
<path d="M311.122 292.465C311.102 292.428 311.089 292.389 311.085 292.347C311.08 292.306 311.085 292.264 311.098 292.225C311.108 292.186 311.126 292.149 311.151 292.117C311.176 292.085 311.207 292.058 311.242 292.037C311.315 291.998 311.402 291.99 311.482 292.014C311.52 292.023 311.555 292.041 311.586 292.065C311.617 292.09 311.642 292.12 311.66 292.155C311.68 292.19 311.692 292.229 311.697 292.27C311.701 292.31 311.697 292.351 311.686 292.39C311.676 292.43 311.659 292.468 311.634 292.501C311.609 292.534 311.577 292.562 311.541 292.582C311.507 292.602 311.47 292.615 311.431 292.619C311.392 292.624 311.352 292.621 311.315 292.61C311.234 292.588 311.165 292.536 311.122 292.465ZM311.406 293.101L310.663 295.752L310.221 295.628L310.964 292.977L311.406 293.101Z" fill="black"/>
<path d="M312.084 293.938C312.248 293.771 312.457 293.654 312.686 293.601C312.923 293.542 313.172 293.549 313.406 293.62C313.695 293.689 313.955 293.851 314.145 294.08C314.313 294.303 314.396 294.58 314.378 294.859L313.908 294.727C313.913 294.561 313.857 294.398 313.752 294.269C313.641 294.134 313.49 294.039 313.321 293.996C313.208 293.959 313.087 293.948 312.969 293.963C312.851 293.978 312.738 294.019 312.637 294.083C312.423 294.255 312.268 294.489 312.194 294.754C312.12 295.018 312.131 295.299 312.225 295.557C312.276 295.664 312.352 295.759 312.445 295.834C312.538 295.909 312.646 295.963 312.762 295.991C312.929 296.037 313.105 296.036 313.271 295.986C313.427 295.929 313.558 295.819 313.642 295.675L314.113 295.807C313.979 296.048 313.765 296.235 313.508 296.336C313.229 296.44 312.923 296.447 312.64 296.356C312.403 296.296 312.187 296.172 312.015 295.999C311.847 295.835 311.729 295.626 311.676 295.398C311.629 295.142 311.642 294.879 311.712 294.629C311.782 294.378 311.908 294.147 312.08 293.952L312.084 293.938Z" fill="black"/>
<path d="M317.582 294.83L314.891 298.282L314.42 298.15L315.3 297.02L314.967 294.098L315.437 294.229L315.668 296.612L317.093 294.693L317.582 294.83Z" fill="black"/>
<path d="M227.585 304.7L226.644 304.437L225.02 299.366L223.821 303.647L222.881 303.383L224.489 297.639L225.43 297.902L227.055 302.968L228.252 298.692L229.193 298.956L227.585 304.7Z" fill="#5E5F60"/>
<path d="M233.673 304.335L230.192 303.36C230.113 303.697 230.17 304.051 230.352 304.346C230.535 304.635 230.822 304.842 231.154 304.925C231.371 305.003 231.608 305.013 231.831 304.953C232.054 304.893 232.254 304.767 232.403 304.592L233.424 304.877C233.172 305.25 232.81 305.536 232.388 305.696C231.919 305.863 231.407 305.871 230.931 305.718C230.521 305.61 230.145 305.397 229.842 305.099C229.553 304.81 229.353 304.445 229.264 304.047C229.167 303.611 229.184 303.157 229.313 302.73C229.424 302.298 229.641 301.901 229.946 301.576C230.221 301.278 230.58 301.07 230.975 300.978C231.391 300.893 231.822 300.908 232.231 301.022C232.64 301.137 233.016 301.348 233.327 301.637C233.609 301.911 233.805 302.261 233.892 302.645C233.986 303.058 233.97 303.488 233.847 303.893C233.8 304.044 233.742 304.192 233.673 304.335ZM232.945 303.311C232.991 303.154 233.003 302.989 232.979 302.826C232.955 302.664 232.896 302.509 232.807 302.372C232.614 302.09 232.324 301.888 231.992 301.804C231.685 301.712 231.355 301.739 231.068 301.88C230.77 302.034 230.539 302.291 230.419 302.604L232.945 303.311Z" fill="#5E5F60"/>
<path d="M236.855 304.816L237.684 307.528L236.616 307.229L236.065 305.409L234.692 306.69L233.728 306.42L235.826 304.598L235.001 301.872L236.069 302.171L236.62 303.991L237.993 302.71L238.976 302.985L236.855 304.816Z" fill="#5E5F60"/>
<path d="M240.708 304.3L240.003 306.816C239.978 306.88 239.967 306.949 239.97 307.018C239.974 307.087 239.992 307.154 240.023 307.216C240.117 307.335 240.252 307.416 240.401 307.443L241.003 307.612L240.784 308.396L240.04 308.187C239.681 308.116 239.362 307.913 239.145 307.618C239.058 307.456 239.007 307.278 238.995 307.094C238.983 306.911 239.011 306.728 239.077 306.556L239.781 304.041L239.245 303.891L239.46 303.121L239.997 303.271L240.313 302.14L241.254 302.403L240.937 303.535L242.057 303.848L241.841 304.618L240.708 304.3Z" fill="#5E5F60"/>
<path d="M245.001 309.419C244.744 309.219 244.549 308.95 244.437 308.644C244.329 308.342 244.32 308.013 244.411 307.706L245.422 307.989C245.375 308.226 245.418 308.473 245.543 308.68C245.7 308.909 245.939 309.068 246.21 309.125C246.48 309.218 246.774 309.21 247.038 309.104C247.147 309.053 247.243 308.979 247.319 308.887C247.396 308.794 247.451 308.686 247.481 308.57C247.51 308.486 247.522 308.397 247.515 308.308C247.509 308.219 247.484 308.133 247.443 308.053C247.361 307.895 247.243 307.759 247.099 307.653C246.893 307.505 246.679 307.369 246.457 307.246C246.169 307.078 245.892 306.891 245.63 306.685C245.421 306.518 245.26 306.298 245.164 306.049C245.054 305.751 245.05 305.425 245.154 305.125C245.232 304.814 245.404 304.536 245.646 304.327C245.886 304.121 246.182 303.99 246.497 303.952C246.862 303.902 247.235 303.932 247.588 304.04C248.084 304.158 248.525 304.441 248.84 304.841C248.978 305.027 249.074 305.24 249.121 305.467C249.168 305.693 249.165 305.927 249.112 306.152L248.087 305.865C248.11 305.757 248.109 305.645 248.084 305.538C248.059 305.43 248.01 305.329 247.941 305.242C247.777 305.031 247.545 304.882 247.283 304.82C247.048 304.745 246.793 304.753 246.562 304.841C246.456 304.889 246.363 304.961 246.29 305.051C246.217 305.142 246.167 305.248 246.143 305.361C246.092 305.52 246.106 305.693 246.18 305.843C246.264 305.992 246.378 306.122 246.515 306.225C246.713 306.371 246.919 306.506 247.132 306.63C247.43 306.8 247.716 306.991 247.986 307.203C248.198 307.373 248.363 307.593 248.466 307.844C248.574 308.149 248.577 308.481 248.476 308.788C248.394 309.08 248.233 309.343 248.009 309.548C247.767 309.767 247.47 309.914 247.149 309.975C246.773 310.048 246.385 310.028 246.019 309.917C245.649 309.824 245.302 309.655 245.001 309.419Z" fill="#5E5F60"/>
<path d="M251.428 307.302L250.724 309.817C250.698 309.881 250.687 309.95 250.69 310.019C250.694 310.088 250.712 310.156 250.743 310.217C250.838 310.336 250.972 310.417 251.121 310.445L251.7 310.607L251.48 311.39L250.737 311.182C250.378 311.111 250.058 310.907 249.841 310.613C249.754 310.451 249.703 310.272 249.691 310.089C249.68 309.906 249.708 309.722 249.773 309.551L250.478 307.036L249.941 306.885L250.157 306.116L250.693 306.266L251.01 305.135L251.951 305.398L251.634 306.529L252.744 306.84L252.529 307.61L251.428 307.302Z" fill="#5E5F60"/>
<path d="M257.197 310.921L253.711 309.945C253.632 310.279 253.689 310.632 253.869 310.925C254.049 311.218 254.338 311.428 254.673 311.51C254.892 311.587 255.128 311.596 255.352 311.537C255.576 311.478 255.776 311.353 255.928 311.178L256.944 311.462C256.695 311.839 256.332 312.126 255.908 312.281C255.438 312.448 254.926 312.456 254.451 312.303C254.042 312.194 253.668 311.982 253.366 311.685C253.076 311.396 252.874 311.031 252.783 310.632C252.7 310.195 252.72 309.744 252.84 309.316C252.959 308.888 253.177 308.494 253.475 308.163C253.75 307.866 254.109 307.658 254.504 307.566C254.92 307.48 255.351 307.495 255.76 307.61C256.169 307.724 256.545 307.935 256.856 308.224C257.136 308.501 257.331 308.85 257.421 309.232C257.515 309.645 257.499 310.075 257.376 310.48C257.326 310.631 257.266 310.778 257.197 310.921ZM256.469 309.897C256.518 309.74 256.531 309.575 256.507 309.412C256.483 309.249 256.423 309.094 256.331 308.958C256.14 308.676 255.851 308.474 255.521 308.392C255.214 308.297 254.883 308.324 254.597 308.467C254.299 308.621 254.068 308.879 253.948 309.191L256.469 309.897Z" fill="#5E5F60"/>
<path d="M260.612 309.195C260.892 309.137 261.18 309.135 261.461 309.189C261.742 309.243 262.009 309.352 262.248 309.509C262.487 309.666 262.692 309.868 262.852 310.105C263.013 310.341 263.125 310.607 263.182 310.886C263.271 311.314 263.252 311.757 263.125 312.176C263.014 312.605 262.799 313 262.499 313.326C262.228 313.624 261.88 313.84 261.492 313.95C261.11 314.06 260.704 314.059 260.321 313.947C259.993 313.863 259.69 313.7 259.44 313.472C259.221 313.274 259.045 313.033 258.922 312.765L258.134 315.581L257.193 315.318L259.072 308.607L260.013 308.87L259.825 309.541C260.06 309.371 260.328 309.253 260.612 309.195ZM262.172 311.033C262.115 310.787 261.993 310.561 261.819 310.378C261.644 310.195 261.423 310.063 261.179 309.994C260.936 309.926 260.678 309.925 260.434 309.99C260.19 310.056 259.968 310.186 259.792 310.367C259.584 310.578 259.437 310.841 259.366 311.128C259.28 311.413 259.269 311.715 259.333 312.005C259.383 312.261 259.51 312.496 259.697 312.679C259.867 312.856 260.082 312.985 260.319 313.05C260.566 313.118 260.827 313.117 261.073 313.048C261.32 312.979 261.542 312.844 261.717 312.657C261.924 312.442 262.071 312.175 262.141 311.885C262.226 311.609 262.237 311.315 262.172 311.033Z" fill="#5E5F60"/>
<path d="M258.086 135.53C257.777 135.838 257.383 136.047 256.955 136.129C256.401 136.228 255.832 136.188 255.298 136.015L253.886 135.62L253.01 138.75L251.74 138.394L253.899 130.684L256.57 131.432C257.095 131.558 257.582 131.807 257.99 132.158C258.33 132.443 258.577 132.822 258.7 133.247C258.805 133.658 258.798 134.09 258.68 134.497C258.571 134.885 258.367 135.24 258.086 135.53ZM256.754 134.96C256.912 134.873 257.05 134.753 257.157 134.609C257.264 134.464 257.338 134.298 257.375 134.121C257.61 133.281 257.258 132.727 256.317 132.464L254.906 132.069L254.194 134.612L255.605 135.008C255.981 135.133 256.39 135.116 256.754 134.96Z" fill="black"/>
<path d="M262.384 132.518L260.085 140.731L258.815 140.375L261.114 132.162L262.384 132.518Z" fill="black"/>
<path d="M268.495 140.297L263.791 138.98C263.683 139.43 263.759 139.905 264 140.301C264.242 140.696 264.631 140.981 265.081 141.092C265.376 141.197 265.695 141.21 265.997 141.129C266.299 141.048 266.569 140.877 266.771 140.639L268.139 141.022C267.803 141.535 267.313 141.929 266.739 142.148C266.105 142.369 265.417 142.381 264.777 142.181C264.224 142.036 263.72 141.749 263.316 141.347C262.929 140.955 262.659 140.465 262.536 139.929C262.406 139.344 262.429 138.735 262.605 138.162C262.752 137.58 263.044 137.046 263.455 136.608C263.827 136.21 264.31 135.931 264.841 135.807C265.405 135.68 265.991 135.7 266.545 135.864C267.087 136.007 267.584 136.285 267.988 136.673C268.364 137.045 268.628 137.515 268.749 138.03C268.871 138.585 268.849 139.163 268.685 139.707C268.636 139.908 268.572 140.105 268.495 140.297ZM267.5 138.92C267.567 138.709 267.584 138.486 267.551 138.267C267.518 138.049 267.436 137.84 267.311 137.657C267.055 137.278 266.666 137.006 266.22 136.897C265.809 136.771 265.364 136.808 264.979 137C264.576 137.202 264.264 137.548 264.104 137.969L267.5 138.92Z" fill="black"/>
<path d="M314.986 165.297C315.309 165.606 315.535 166.001 315.636 166.436C315.746 166.933 315.723 167.45 315.571 167.936L314.562 171.54L313.306 171.189L314.263 167.772C314.423 167.324 314.4 166.831 314.201 166.398C314.099 166.208 313.957 166.041 313.784 165.911C313.611 165.78 313.412 165.689 313.2 165.642C312.994 165.574 312.776 165.55 312.561 165.572C312.345 165.593 312.136 165.66 311.948 165.768C311.553 166.034 311.278 166.443 311.182 166.909L310.225 170.326L308.96 169.972L309.916 166.555C310.073 166.106 310.051 165.615 309.855 165.181C309.753 164.991 309.61 164.824 309.437 164.694C309.265 164.563 309.066 164.472 308.854 164.426C308.648 164.356 308.43 164.332 308.214 164.353C307.998 164.375 307.789 164.442 307.601 164.551C307.206 164.817 306.931 165.226 306.835 165.692L305.879 169.109L304.609 168.753L306.317 162.652L307.587 163.008L307.391 163.707C307.674 163.512 308 163.387 308.341 163.341C308.704 163.291 309.073 163.317 309.426 163.417C309.885 163.536 310.306 163.769 310.651 164.094C310.981 164.415 311.203 164.831 311.287 165.284C311.584 164.961 311.974 164.738 312.404 164.645C312.851 164.533 313.319 164.542 313.761 164.671C314.215 164.775 314.636 164.99 314.986 165.297Z" fill="black"/>
<path d="M270.785 138.64C271.153 138.251 271.621 137.971 272.138 137.83C272.654 137.691 273.198 137.697 273.711 137.845C274.122 137.945 274.503 138.141 274.825 138.415C275.146 138.69 275.399 139.036 275.561 139.426L275.81 138.539L277.08 138.894L275.372 144.995L274.102 144.64L274.356 143.729C274.037 143.969 273.667 144.131 273.274 144.206C272.79 144.296 272.29 144.264 271.822 144.11C271.353 143.957 270.93 143.688 270.593 143.329C270.229 142.928 269.979 142.437 269.87 141.906C269.754 141.324 269.782 140.722 269.95 140.153C270.099 139.587 270.386 139.068 270.785 138.64ZM275.004 140.419C274.925 140.08 274.756 139.769 274.516 139.518C274.283 139.28 273.992 139.108 273.672 139.018C273.346 138.925 273.002 138.921 272.675 139.008C272.347 139.095 272.05 139.268 271.814 139.51C271.538 139.794 271.341 140.146 271.245 140.53C271.129 140.913 271.113 141.32 271.198 141.711C271.27 142.057 271.438 142.375 271.681 142.631C271.91 142.872 272.2 143.045 272.519 143.134C272.845 143.229 273.191 143.233 273.519 143.146C273.847 143.06 274.145 142.886 274.382 142.643C274.647 142.347 274.841 141.995 274.948 141.612C275.055 141.23 275.072 140.828 274.999 140.437L275.004 140.419Z" fill="black"/>
<path d="M278.465 145.705C278.15 145.45 277.906 145.118 277.756 144.742C277.62 144.389 277.593 144.005 277.679 143.637L278.992 144.005C278.968 144.137 278.974 144.272 279.007 144.402C279.041 144.532 279.102 144.653 279.187 144.758C279.382 145.008 279.656 145.185 279.965 145.259C280.251 145.355 280.559 145.364 280.85 145.284C280.956 145.253 281.052 145.195 281.129 145.117C281.206 145.038 281.261 144.942 281.29 144.836C281.323 144.729 281.323 144.616 281.29 144.509C281.258 144.403 281.194 144.308 281.108 144.238C280.815 143.989 280.5 143.769 280.166 143.579C279.816 143.37 279.476 143.144 279.149 142.9C278.892 142.699 278.686 142.44 278.549 142.145C278.403 141.811 278.387 141.435 278.504 141.09C278.591 140.769 278.779 140.484 279.041 140.278C279.332 140.052 279.68 139.911 280.047 139.872C280.486 139.823 280.931 139.861 281.355 139.985C281.969 140.125 282.514 140.478 282.892 140.982C283.056 141.217 283.167 141.485 283.216 141.767C283.265 142.05 283.251 142.339 283.175 142.615L281.905 142.26C281.935 142.131 281.937 141.998 281.911 141.868C281.885 141.739 281.832 141.616 281.755 141.509C281.57 141.269 281.306 141.102 281.01 141.037C280.746 140.943 280.459 140.934 280.19 141.01C280.092 141.042 280.004 141.098 279.933 141.172C279.862 141.247 279.812 141.339 279.786 141.439C279.763 141.515 279.756 141.595 279.766 141.674C279.777 141.752 279.804 141.828 279.846 141.896C279.94 142.047 280.064 142.179 280.21 142.281C280.362 142.389 280.589 142.539 280.896 142.731C281.248 142.925 281.587 143.144 281.91 143.384C282.161 143.586 282.363 143.842 282.502 144.132C282.645 144.457 282.665 144.822 282.559 145.16C282.47 145.497 282.278 145.797 282.009 146.019C281.721 146.245 281.375 146.389 281.011 146.432C280.104 146.528 279.196 146.263 278.483 145.694L278.465 145.705Z" fill="black"/>
<path d="M290.17 146.365L285.499 145.058C285.445 145.282 285.437 145.516 285.474 145.744C285.511 145.973 285.593 146.192 285.715 146.388C285.961 146.776 286.345 147.055 286.79 147.17C287.084 147.274 287.403 147.286 287.704 147.205C288.005 147.124 288.274 146.953 288.474 146.715L289.843 147.099C289.512 147.616 289.02 148.012 288.442 148.225C287.811 148.447 287.124 148.459 286.485 148.259C285.932 148.114 285.426 147.826 285.02 147.423C284.633 147.033 284.365 146.542 284.244 146.007C284.114 145.421 284.138 144.813 284.313 144.24C284.461 143.659 284.752 143.125 285.159 142.685C285.534 142.288 286.018 142.01 286.55 141.885C287.113 141.756 287.7 141.775 288.254 141.942C288.796 142.084 289.292 142.363 289.696 142.751C290.073 143.121 290.336 143.592 290.453 144.106C290.568 144.653 290.542 145.221 290.377 145.755C290.327 145.964 290.257 146.168 290.17 146.365ZM289.176 144.989C289.24 144.778 289.257 144.556 289.225 144.338C289.193 144.12 289.113 143.911 288.991 143.727C288.733 143.347 288.343 143.075 287.896 142.965C287.484 142.841 287.04 142.878 286.655 143.068C286.254 143.272 285.943 143.618 285.785 144.039L289.176 144.989Z" fill="black"/>
<path d="M293 148.306L290.797 150.994L289.988 150.768L291.636 147.924L293 148.306Z" fill="black"/>
<path d="M251.698 148.489L250.565 148.172L249.142 153.255L247.862 152.896L249.285 147.814L248.561 147.611L248.85 146.578L249.574 146.781L249.695 146.35C249.748 146.061 249.864 145.788 250.035 145.55C250.206 145.311 250.428 145.114 250.685 144.972C251.299 144.757 251.97 144.766 252.58 144.996L252.284 146.052C252.004 145.942 251.693 145.938 251.41 146.04C251.294 146.118 251.195 146.218 251.12 146.336C251.044 146.453 250.994 146.584 250.971 146.722L250.85 147.154L251.984 147.471L251.698 148.489Z" fill="black"/>
<path d="M253.911 146.872C253.827 146.727 253.789 146.56 253.801 146.392C253.813 146.225 253.875 146.065 253.979 145.933C254.083 145.802 254.224 145.704 254.384 145.654C254.545 145.603 254.716 145.602 254.878 145.65C254.984 145.677 255.083 145.726 255.17 145.793C255.256 145.86 255.329 145.943 255.382 146.039C255.49 146.235 255.517 146.466 255.457 146.682C255.396 146.898 255.254 147.081 255.059 147.193C254.964 147.249 254.859 147.285 254.75 147.298C254.64 147.311 254.53 147.301 254.424 147.269C254.316 147.241 254.215 147.192 254.127 147.123C254.039 147.055 253.965 146.97 253.911 146.872ZM254.824 148.251L253.116 154.352L251.846 153.996L253.554 147.895L254.824 148.251Z" fill="black"/>
<path d="M258.792 147.105L256.494 155.313L255.224 154.957L257.522 146.749L258.792 147.105Z" fill="black"/>
<path d="M262.169 148.05L259.871 156.259L258.62 155.908L260.918 147.7L262.169 148.05Z" fill="black"/>
<path d="M268.228 153.117L267.282 156.496C267.224 156.665 267.234 156.849 267.31 157.01C267.436 157.171 267.618 157.279 267.819 157.315L268.595 157.532L268.301 158.583L267.303 158.304C266.822 158.205 266.394 157.932 266.103 157.538C265.982 157.322 265.91 157.082 265.892 156.836C265.873 156.589 265.908 156.342 265.995 156.111L266.934 152.755L266.21 152.552L266.499 151.52L267.223 151.723L267.648 150.207L268.927 150.565L268.503 152.081L269.989 152.497L269.7 153.529L268.228 153.117Z" fill="black"/>
<path d="M275.986 154.378C276.299 154.687 276.516 155.08 276.608 155.509C276.707 156.007 276.68 156.521 276.529 157.005L275.52 160.609L274.264 160.258L275.22 156.841C275.38 156.393 275.358 155.9 275.159 155.468C275.056 155.278 274.915 155.112 274.743 154.982C274.571 154.852 274.373 154.76 274.163 154.713C273.957 154.644 273.739 154.619 273.523 154.641C273.307 154.662 273.098 154.73 272.91 154.838C272.512 155.101 272.234 155.511 272.139 155.979L271.183 159.395L269.917 159.041L272.208 150.861L273.478 151.216L272.689 154.032C272.984 153.832 273.322 153.704 273.676 153.661C274.059 153.612 274.447 153.643 274.817 153.752C275.253 153.859 275.656 154.074 275.986 154.378Z" fill="black"/>
<path d="M283.866 160.188L279.185 158.877C279.131 159.102 279.123 159.336 279.16 159.564C279.197 159.793 279.279 160.011 279.401 160.208C279.639 160.604 280.022 160.893 280.469 161.013C280.763 161.116 281.08 161.129 281.381 161.048C281.681 160.968 281.95 160.799 282.152 160.563L283.521 160.947C283.186 161.451 282.698 161.836 282.128 162.045C281.497 162.267 280.81 162.279 280.171 162.079C279.617 161.934 279.112 161.645 278.705 161.243C278.319 160.853 278.051 160.362 277.93 159.827C277.8 159.241 277.824 158.633 277.999 158.059C278.147 157.479 278.438 156.944 278.845 156.505C279.22 156.108 279.704 155.83 280.236 155.705C280.799 155.576 281.386 155.595 281.939 155.762C282.482 155.904 282.979 156.184 283.381 156.575C283.759 156.943 284.022 157.412 284.139 157.926C284.262 158.482 284.242 159.06 284.079 159.605C284.024 159.805 283.953 160 283.866 160.188ZM282.865 158.835C282.928 158.624 282.944 158.402 282.913 158.184C282.881 157.966 282.801 157.757 282.68 157.573C282.422 157.193 282.032 156.921 281.585 156.811C281.173 156.686 280.729 156.723 280.344 156.914C279.942 157.118 279.632 157.464 279.473 157.885L282.865 158.835Z" fill="black"/>
<path d="M292.208 159.831L291.089 159.518L289.666 164.6L288.386 164.242L289.809 159.159L289.085 158.957L289.374 157.924L290.099 158.127L290.219 157.695C290.272 157.407 290.388 157.133 290.559 156.895C290.73 156.657 290.952 156.46 291.209 156.317C291.824 156.103 292.495 156.112 293.104 156.342L292.809 157.398C292.528 157.288 292.217 157.284 291.934 157.386C291.818 157.464 291.72 157.564 291.644 157.681C291.569 157.799 291.518 157.93 291.495 158.068L291.374 158.499L292.508 158.817L292.208 159.831Z" fill="black"/>
<path d="M293.512 165.358C293.121 164.967 292.848 164.475 292.723 163.938C292.599 163.351 292.619 162.744 292.78 162.167C292.942 161.591 293.24 161.061 293.65 160.624C294.043 160.229 294.54 159.954 295.084 159.832C295.647 159.712 296.23 159.731 296.784 159.886C297.338 160.041 297.846 160.328 298.264 160.722C298.666 161.109 298.948 161.603 299.078 162.144C299.219 162.729 299.201 163.341 299.029 163.917C298.876 164.498 298.57 165.028 298.143 165.45C297.738 165.846 297.231 166.121 296.678 166.244C296.109 166.374 295.517 166.354 294.958 166.188C294.413 166.041 293.914 165.755 293.512 165.358ZM296.258 165.115C296.597 165.034 296.907 164.859 297.15 164.611C297.436 164.317 297.638 163.952 297.735 163.555C297.858 163.167 297.879 162.755 297.796 162.357C297.722 162.022 297.553 161.714 297.309 161.472C297.073 161.239 296.781 161.071 296.462 160.981C296.146 160.893 295.812 160.887 295.493 160.963C295.162 161.043 294.863 161.22 294.635 161.472C294.363 161.773 294.171 162.136 294.075 162.53C293.885 163.075 293.914 163.673 294.156 164.197C294.269 164.417 294.427 164.61 294.62 164.765C294.813 164.919 295.036 165.031 295.275 165.093C295.602 165.191 295.95 165.201 296.282 165.121L296.258 165.115Z" fill="black"/>
<path d="M303.556 162.097C303.942 162.009 304.346 162.024 304.725 162.141L304.359 163.45L304.039 163.361C303.839 163.29 303.627 163.259 303.414 163.27C303.202 163.281 302.995 163.333 302.803 163.425C302.403 163.71 302.132 164.142 302.051 164.626L301.151 167.841L299.881 167.485L301.589 161.385L302.859 161.74L302.609 162.632C302.869 162.37 303.197 162.185 303.556 162.097Z" fill="black"/>
<path d="M217.933 270.195L216.396 267.771L216.808 267.512L218.062 269.482L222.459 266.118L222.756 266.505L217.933 270.195Z" fill="#5E5F60"/>
</svg>
