<svg width="58" height="57" viewBox="0 0 58 57" fill="none" xmlns="http://www.w3.org/2000/svg">
<path d="M56.5 28.5C56.5 43.3872 44.2125 55.5 29 55.5C13.7875 55.5 1.5 43.3872 1.5 28.5C1.5 13.6128 13.7875 1.5 29 1.5C44.2125 1.5 56.5 13.6128 56.5 28.5Z" fill="#F8E800" stroke="black" stroke-width="3"/>
<path d="M30 18C30 17.4477 29.5523 17 29 17C28.4477 17 28 17.4477 28 18V32.2551C26.261 31.0681 24.8443 29.4525 23.8944 27.5528C23.6474 27.0588 23.0468 26.8586 22.5528 27.1056C22.0588 27.3526 21.8586 27.9532 22.1056 28.4472C23.5006 31.2372 25.7628 33.4994 28.5528 34.8944C28.8493 35.0427 29.1843 35.0298 29.4581 34.889C32.2431 33.4935 34.5013 31.2335 35.8944 28.4472C36.1414 27.9532 35.9412 27.3526 35.4472 27.1056C34.9532 26.8586 34.3526 27.0588 34.1056 27.5528C33.1557 29.4525 31.739 31.0681 30 32.2551V18Z" fill="black"/>
<path d="M19 29C19 28.4477 18.5523 28 18 28C17.4477 28 17 28.4477 17 29C17 31.3115 17.1142 33.23 17.4522 34.7968C17.7925 36.3748 18.3738 37.663 19.3554 38.6446C20.337 39.6262 21.6252 40.2075 23.2032 40.5478C24.77 40.8858 26.6885 41 29 41C31.3115 41 33.23 40.8858 34.7968 40.5478C36.3748 40.2075 37.663 39.6262 38.6446 38.6446C39.6262 37.663 40.2075 36.3748 40.5478 34.7968C40.8858 33.23 41 31.3115 41 29C41 28.4477 40.5523 28 40 28C39.4477 28 39 28.4477 39 29C39 31.2719 38.8851 33.02 38.5928 34.3751C38.3029 35.719 37.853 36.6078 37.2304 37.2304C36.6078 37.853 35.719 38.3029 34.3751 38.5928C33.02 38.8851 31.2719 39 29 39C26.7281 39 24.98 38.8851 23.6249 38.5928C22.281 38.3029 21.3922 37.853 20.7696 37.2304C20.147 36.6078 19.6971 35.719 19.4072 34.3751C19.1149 33.02 19 31.2719 19 29Z" fill="black"/>
</svg>
