<svg width="58" height="57" viewBox="0 0 58 57" fill="none" xmlns="http://www.w3.org/2000/svg">
<path d="M56.5 28.5C56.5 43.3872 44.2125 55.5 29 55.5C13.7875 55.5 1.5 43.3872 1.5 28.5C1.5 13.6128 13.7875 1.5 29 1.5C44.2125 1.5 56.5 13.6128 56.5 28.5Z" fill="#F8E800" stroke="black" stroke-width="3"/>
<path d="M36.9197 15H26.5643C26.0605 15 25.7806 15.2729 25.7246 15.3275L18.3359 22.5322C18.2799 22.5867 18 22.8596 18 23.2963V39.9435C18 41.6355 19.3994 43 21.1346 43H36.8637C38.599 43 39.9984 41.6355 39.9984 39.9435V18.0565C40.0544 16.3645 38.655 15 36.9197 15ZM25.3888 18.8752V21.3314C25.3888 21.768 25.0529 22.0955 24.6051 22.0955H22.0302L25.3888 18.8752ZM37.7034 39.9981C37.7034 40.4347 37.3116 40.7622 36.9197 40.7622H21.1346C20.6868 40.7622 20.351 40.3801 20.351 39.9981V24.4971H24.6051C26.3404 24.4971 27.7397 23.1326 27.7397 21.4405V17.2924H36.8637C37.3116 17.2924 37.6474 17.6199 37.6474 18.0565L37.7034 39.9981Z" fill="black"/>
</svg>
