<svg width="58" height="57" viewBox="0 0 58 57" fill="none" xmlns="http://www.w3.org/2000/svg">
<path d="M56.5 28.5C56.5 43.3872 44.2125 55.5 29 55.5C13.7875 55.5 1.5 43.3872 1.5 28.5C1.5 13.6128 13.7875 1.5 29 1.5C44.2125 1.5 56.5 13.6128 56.5 28.5Z" fill="#F8E800" stroke="black" stroke-width="3"/>
<path fill-rule="evenodd" clip-rule="evenodd" d="M33.6899 39.4649C32.4508 39.5003 31.0124 39.5002 29.3451 39.5C29.345 39.5 29.3452 39.5 29.3451 39.5H28.6552C28.5036 39.5 28.3539 39.5001 28.2061 39.5C26.6282 39.4999 25.2634 39.4967 24.0846 39.458C18.3061 39.2681 17 38.2241 17 32.5V27.215C17 26.1031 17.3658 25.0243 18.0937 24.1838C20.2578 21.6847 25.205 16.5 29 16.5C32.795 16.5 37.7422 21.6847 39.9063 24.1838C40.6342 25.0243 41 26.1031 41 27.215V32.5C41 38.2241 39.6939 39.2681 33.9154 39.458C33.841 39.4604 33.7658 39.4627 33.6899 39.4649ZM39 32.5C39 34.2307 38.8699 35.2705 38.6423 35.925C38.4579 36.4551 38.2343 36.6803 37.8641 36.8631C37.3608 37.1118 36.5061 37.307 34.9649 37.4065C34.6584 37.4263 34.3352 37.4419 33.9935 37.4542C33.9979 37.149 34 36.8311 34 36.5C34 29.8333 33.1667 28.5 29 28.5C24.8333 28.5 24 29.8333 24 36.5C24 36.8311 24.0021 37.149 24.0065 37.4542C23.6648 37.4419 23.3416 37.4263 23.0351 37.4065C21.4939 37.307 20.6392 37.1118 20.1359 36.8631C19.7657 36.6803 19.5421 36.4551 19.3577 35.925C19.1301 35.2705 19 34.2307 19 32.5V27.215C19 26.5386 19.221 25.9371 19.6056 25.493C20.6545 24.2819 22.3448 22.46 24.1957 20.9576C25.1206 20.2068 26.0423 19.5716 26.9067 19.1314C27.787 18.6832 28.4859 18.5 29 18.5C29.5141 18.5 30.213 18.6832 31.0933 19.1314C31.9577 19.5716 32.8794 20.2068 33.8043 20.9576C35.6552 22.46 37.3455 24.2819 38.3944 25.493C38.779 25.9371 39 26.5386 39 27.215V32.5ZM26.0073 37.4935C26.0023 37.1797 26 36.8489 26 36.5C26 34.8572 26.0525 33.6314 26.1774 32.7047C26.3042 31.7642 26.4863 31.2956 26.6335 31.06C26.7617 30.8549 26.9962 30.5 29 30.5C31.0038 30.5 31.2383 30.8549 31.3665 31.06C31.5137 31.2956 31.6958 31.7642 31.8226 32.7047C31.9475 33.6314 32 34.8572 32 36.5C32 36.8489 31.9977 37.1797 31.9927 37.4935C31.1817 37.5001 30.2879 37.5001 29.2987 37.5H28.7013C27.7121 37.5001 26.8183 37.5001 26.0073 37.4935Z" fill="black"/>
</svg>
