<svg width="58" height="57" viewBox="0 0 58 57" fill="none" xmlns="http://www.w3.org/2000/svg">
<path d="M56.5 28.5C56.5 43.3872 44.2125 55.5 29 55.5C13.7875 55.5 1.5 43.3872 1.5 28.5C1.5 13.6128 13.7875 1.5 29 1.5C44.2125 1.5 56.5 13.6128 56.5 28.5Z" fill="#F8E800" stroke="black" stroke-width="3"/>
<path fill-rule="evenodd" clip-rule="evenodd" d="M19.341 22.4849C19.0488 23.84 18.9338 25.5881 18.9338 27.86C18.9338 30.1319 19.0488 31.88 19.341 33.2351C19.6309 34.579 20.0809 35.4678 20.7034 36.0904C21.326 36.713 22.2149 37.1629 23.5587 37.4528C24.9138 37.7451 26.662 37.86 28.9338 37.86C30.3705 37.86 31.6032 37.8142 32.6635 37.7048L32.7758 37.6932L32.888 37.7069C34.4858 37.903 36.1173 38.0682 37.4027 38.1218C38.0287 38.1479 38.5442 38.1462 38.9224 38.115C38.9206 38.1112 38.9187 38.1075 38.9169 38.1037C38.6994 37.6628 38.3056 37.091 37.8202 36.4738L37.392 35.9291L37.7514 35.3368C38.6041 33.9317 38.9338 31.6631 38.9338 27.86C38.9338 25.5881 38.8189 23.84 38.5266 22.4849C38.2368 21.141 37.7868 20.2522 37.1642 19.6296C36.5417 19.007 35.6528 18.5571 34.3089 18.2672C32.9538 17.9749 31.2057 17.86 28.9338 17.86C26.662 17.86 24.9138 17.9749 23.5587 18.2672C22.2149 18.5571 21.326 19.007 20.7034 19.6296C20.0809 20.2522 19.6309 21.141 19.341 22.4849ZM39.3873 38.0392C39.3876 38.0393 39.384 38.0409 39.3758 38.0437C39.3829 38.0405 39.387 38.0391 39.3873 38.0392ZM23.1371 16.3122C24.7038 15.9742 26.6224 15.86 28.9338 15.86C31.2453 15.86 33.1638 15.9742 34.7306 16.3122C36.3086 16.6525 37.5969 17.2338 38.5784 18.2154C39.56 19.197 40.1413 20.4852 40.4817 22.0632C40.8196 23.63 40.9338 25.5485 40.9338 27.86C40.9338 31.2525 40.6942 33.8607 39.7911 35.761C40.1518 36.2518 40.4814 36.7546 40.7104 37.2187C40.8638 37.5295 41.0052 37.8881 41.0506 38.2527C41.0966 38.6213 41.0571 39.151 40.6409 39.5671C40.3894 39.8187 40.0732 39.9273 39.8729 39.982C39.6443 40.0444 39.3906 40.0812 39.1373 40.1039C38.6281 40.1495 37.9991 40.1484 37.3194 40.12C35.9841 40.0643 34.3358 39.898 32.7555 39.7056C31.6289 39.8164 30.3588 39.86 28.9338 39.86C26.6224 39.86 24.7038 39.7458 23.1371 39.4078C21.559 39.0675 20.2708 38.4862 19.2892 37.5046C18.3076 36.523 17.7264 35.2348 17.386 33.6568C17.0481 32.09 16.9338 30.1715 16.9338 27.86C16.9338 25.5485 17.0481 23.63 17.386 22.0632C17.7264 20.4852 18.3076 19.197 19.2892 18.2154C20.2708 17.2338 21.559 16.6525 23.1371 16.3122Z" fill="black"/>
</svg>
