<svg width="58" height="57" viewBox="0 0 58 57" fill="none" xmlns="http://www.w3.org/2000/svg">
<path d="M56.5 28.5C56.5 43.3872 44.2125 55.5 29 55.5C13.7875 55.5 1.5 43.3872 1.5 28.5C1.5 13.6128 13.7875 1.5 29 1.5C44.2125 1.5 56.5 13.6128 56.5 28.5Z" fill="#F8E800" stroke="black" stroke-width="3"/>
<path fill-rule="evenodd" clip-rule="evenodd" d="M29 39C39 39 41 37.1667 41 28C41 18.8333 39 17 29 17C19 17 17 18.8333 17 28C17 37.1667 19 39 29 39ZM38.5915 33.0971C38.8589 31.9342 39 30.3119 39 28C39 25.8925 38.8828 24.3582 38.6595 23.2224C38.1197 23.9373 37.4149 24.8095 36.5928 25.6847C35.7589 26.5725 34.7875 27.4815 33.7293 28.2335C35.1306 29.5484 36.4728 30.8976 37.5291 31.988C37.927 32.3988 38.2852 32.7736 38.5915 33.0971ZM37.7322 35.1025C37.7112 35.08 37.6896 35.0569 37.6675 35.0333C37.2876 34.6272 36.7444 34.0524 36.0926 33.3796C34.9393 32.1891 33.4528 30.6985 31.933 29.2935C31.0102 29.723 30.0213 30 29 30C27.9787 30 26.9898 29.723 26.067 29.2935C24.5472 30.6985 23.0607 32.1891 21.9074 33.3796C21.2556 34.0524 20.7124 34.6272 20.3325 35.0333C20.3104 35.0569 20.2888 35.08 20.2678 35.1025C20.373 35.2365 20.4843 35.3558 20.6014 35.4632C21.1113 35.9306 21.9088 36.3344 23.2942 36.6083C24.6926 36.8848 26.536 37 29 37C31.464 37 33.3074 36.8848 34.7058 36.6083C36.0912 36.3344 36.8887 35.9306 37.3986 35.4632C37.5157 35.3558 37.627 35.2365 37.7322 35.1025ZM19.4085 33.0971C19.1411 31.9342 19 30.3119 19 28C19 25.8925 19.1172 24.3582 19.3405 23.2224C19.8803 23.9373 20.5851 24.8095 21.4072 25.6847C22.2411 26.5725 23.2125 27.4815 24.2707 28.2335C22.8694 29.5484 21.5272 30.8976 20.4709 31.988C20.073 32.3988 19.7148 32.7736 19.4085 33.0971ZM37.3986 20.5368C37.5426 20.6689 37.6778 20.819 37.8037 20.9923C37.6768 21.1766 37.5176 21.4025 37.3297 21.6592C36.7967 22.387 36.0388 23.3533 35.1351 24.3153C34.2279 25.2811 33.1965 26.2182 32.12 26.908C31.0363 27.6023 29.9791 28 29 28C28.0209 28 26.9637 27.6023 25.88 26.908C24.8035 26.2182 23.7721 25.2811 22.8649 24.3153C21.9612 23.3533 21.2033 22.387 20.6703 21.6592C20.4824 21.4025 20.3232 21.1766 20.1963 20.9923C20.3222 20.819 20.4574 20.6689 20.6014 20.5368C21.1113 20.0694 21.9088 19.6656 23.2942 19.3917C24.6926 19.1152 26.536 19 29 19C31.464 19 33.3074 19.1152 34.7058 19.3917C36.0912 19.6656 36.8887 20.0694 37.3986 20.5368Z" fill="black"/>
</svg>
