<svg width="58" height="57" viewBox="0 0 58 57" fill="none" xmlns="http://www.w3.org/2000/svg">
<path d="M56.5 28.5C56.5 43.3872 44.2125 55.5 29 55.5C13.7875 55.5 1.5 43.3872 1.5 28.5C1.5 13.6128 13.7875 1.5 29 1.5C44.2125 1.5 56.5 13.6128 56.5 28.5Z" fill="#F8E800" stroke="black" stroke-width="3"/>
<path d="M39.7368 25.25L28.3684 19L17 25.25L20.7895 27.3334M39.7368 25.25L35.9474 27.3334M39.7368 25.25C40.511 25.633 41 26.416 41 27.2725V33.9997M20.7895 27.3334L28.3684 31.5L35.9474 27.3334M20.7895 27.3334V34.8334L28.3684 39L35.9474 34.8334V27.3334" stroke="black" stroke-width="2" stroke-linecap="round" stroke-linejoin="round"/>
</svg>
