<svg width="253" height="199" viewBox="0 0 253 199" fill="none" xmlns="http://www.w3.org/2000/svg">
<path opacity="0.1" d="M244.303 105.825C244.245 106.379 244.178 106.927 244.108 107.471C244.078 107.693 244.046 107.912 244.02 108.13C243.994 108.349 243.947 108.634 243.909 108.882L243.795 109.631C243.757 109.879 243.716 110.126 243.675 110.374C243.634 110.622 243.593 110.846 243.552 111.079C243.526 111.231 243.5 111.371 243.47 111.531C243.441 111.691 243.409 111.869 243.377 112.035C243.345 112.201 243.31 112.393 243.275 112.571C243.187 113.02 243.096 113.463 243.003 113.906C242.985 113.987 242.965 114.072 242.95 114.153C242.906 114.343 242.866 114.535 242.822 114.722C242.769 114.958 242.716 115.194 242.661 115.427C242.605 115.66 242.553 115.893 242.494 116.126C242.436 116.359 242.383 116.59 242.325 116.817C242.211 117.277 242.094 117.732 241.971 118.184C241.91 118.411 241.849 118.635 241.784 118.857C241.664 119.303 241.536 119.749 241.407 120.183C241.34 120.401 241.276 120.617 241.212 120.833C240.919 121.762 240.627 122.666 240.335 123.548C240.215 123.895 240.095 124.236 239.975 124.574L239.818 125.014C239.712 125.306 239.604 125.597 239.496 125.889C239.444 126.028 239.388 126.18 239.335 126.314C239.181 126.716 239.023 127.112 238.868 127.503C238.742 127.815 238.614 128.121 238.488 128.427C238.166 129.192 237.843 129.929 237.518 130.638L237.287 131.131C237.135 131.455 236.983 131.773 236.831 132.084C236.755 132.241 236.676 132.396 236.6 132.547C236.46 132.839 236.308 133.11 236.176 133.381C236.045 133.652 235.852 133.99 235.694 134.281L235.481 134.666C235.366 134.872 235.252 135.073 235.139 135.269C235.043 135.435 234.946 135.595 234.847 135.753C234.54 136.268 234.236 136.749 233.941 137.189C224.177 150.075 214.686 153.339 202.038 153.339H201.281H200.589C200.034 153.339 199.475 153.313 198.911 153.293L198.178 153.263L197.38 153.226L196.576 153.182L195.764 153.132H195.668L194.332 153.019L193.967 152.992L193.049 152.92L192.123 152.844L191.182 152.762L190.232 152.675L189.271 152.587L187.997 152.462C183.251 151.999 178.081 151.422 172.386 150.932L171.737 150.877C170.65 150.784 169.543 150.696 168.417 150.615L167.739 150.565L165.676 150.422L164.981 150.378C164.513 150.346 164.043 150.32 163.569 150.291L162.14 150.215C161.819 150.195 161.494 150.18 161.167 150.166L160.051 150.11L159.221 150.078L158.479 150.046C157.723 150.017 156.958 149.992 156.185 149.971L155.454 149.95C155.106 149.95 154.759 149.93 154.408 149.927C153.467 149.903 152.517 149.886 151.553 149.877H150.755H149.954C145.761 149.877 141.339 149.959 136.67 150.204C135.881 150.247 135.1 150.291 134.332 150.341C133.563 150.39 132.768 150.443 131.994 150.498L130.863 150.585C129.77 150.673 128.695 150.766 127.648 150.877C127.289 150.912 126.935 150.944 126.582 150.982C123.646 151.275 120.856 151.621 118.212 152.019L117.388 152.144L116.626 152.261L115.696 152.413C115.486 152.445 115.276 152.48 115.068 152.517L114.58 152.599C113.97 152.7 113.365 152.807 112.765 152.92C111.555 153.141 110.375 153.371 109.223 153.61L108.423 153.779C107.854 153.898 107.292 154.02 106.737 154.146L105.948 154.327C104.822 154.587 103.727 154.855 102.663 155.128L102.017 155.295L101.488 155.434C101.257 155.496 101.029 155.554 100.801 155.618L100.237 155.77L99.7669 155.901L99.0364 156.108L98.3146 156.314C97.5927 156.521 96.8885 156.731 96.193 156.944L95.5033 157.16C94.8166 157.372 94.1444 157.585 93.4782 157.804L92.8207 158.022L92.1661 158.241C90.9971 158.629 89.8555 159.027 88.7411 159.435C88.4285 159.549 88.1158 159.66 87.806 159.776C87.1193 160.027 86.4413 160.281 85.775 160.531L84.8282 160.892L84.2437 161.114L83.6593 161.335C82.8498 161.647 82.052 161.962 81.2689 162.274L80.4302 162.606C78.5687 163.346 76.7744 164.063 75.021 164.748L74.5184 164.937C73.9865 165.144 73.4605 165.342 72.9403 165.54C71.8036 165.969 70.6785 166.377 69.5534 166.764L68.9689 166.963L68.2384 167.204L67.7182 167.373C67.1513 167.554 66.5834 167.728 66.0145 167.895L65.6229 168.009C64.9683 168.203 64.3089 168.382 63.6445 168.545L63.0396 168.694L62.6451 168.787L62.2272 168.883C61.6895 169.005 61.1518 169.119 60.6054 169.224L60.1699 169.308L59.7579 169.381L59.641 169.402L59.0916 169.495L58.9017 169.527C58.7292 169.553 58.5597 169.582 58.3844 169.606L58.0922 169.649C57.6363 169.716 57.1775 169.778 56.7129 169.827L56.1459 169.891L55.4271 169.961C55.2342 169.979 55.0413 169.996 54.8426 170.008L54.5504 170.031H54.416L53.9834 170.06C53.3142 170.101 52.6304 170.127 51.9378 170.139H51.5696H50.9472C48.3616 170.134 45.7792 169.954 43.2177 169.603C41.6018 169.507 39.9922 169.324 38.396 169.055C37.341 168.877 36.327 168.664 35.3451 168.42C34.3632 168.175 33.3989 167.895 32.4842 167.586C31.4175 167.231 30.4035 166.837 29.4304 166.421C11.3969 158.471 8.57402 138.868 8.57402 138.868C8.33043 136.278 8.23286 133.676 8.28179 131.076C8.28179 130.962 8.28179 130.845 8.28179 130.729C8.28179 130.612 8.28179 130.499 8.28179 130.379C8.28179 130.193 8.28179 130.006 8.28179 129.814C8.28179 129.621 8.28179 129.464 8.2964 129.289C8.2964 129.05 8.31101 128.808 8.31978 128.561C8.31978 128.243 8.34316 127.92 8.36069 127.587C8.36069 127.48 8.36069 127.369 8.3753 127.258C8.3753 127.214 8.3753 127.168 8.3753 127.121C8.3753 126.973 8.38991 126.83 8.39868 126.667C8.40745 126.503 8.39868 126.375 8.42206 126.241C8.44544 126.107 8.43667 126.008 8.44252 125.891C8.44836 125.775 8.45713 125.629 8.46882 125.495C8.48635 125.204 8.50681 124.927 8.52726 124.635L8.5448 124.405L8.57986 123.962L8.61201 123.534L8.62954 123.362C8.62954 123.24 8.65 123.114 8.66169 122.989C8.6588 122.945 8.6588 122.902 8.66169 122.858C8.6763 122.648 8.69968 122.438 8.71721 122.228C8.73474 122.019 8.7552 121.861 8.77273 121.675C8.79027 121.488 8.80196 121.363 8.81949 121.203C8.86917 120.731 8.92469 120.25 8.98314 119.763C9.00067 119.6 9.02113 119.437 9.04158 119.274C9.06788 119.052 9.09711 118.828 9.12633 118.603C9.15555 118.379 9.1877 118.134 9.21984 117.898L9.23738 117.779C9.25686 117.613 9.28024 117.444 9.30751 117.272C9.47993 116.053 9.68157 114.797 9.9095 113.512C9.95918 113.238 10.0089 112.959 10.0615 112.682L10.1579 112.175C10.1871 112.023 10.2134 111.883 10.2456 111.72C10.2982 111.449 10.3508 111.178 10.4092 110.901C10.4443 110.721 10.4823 110.537 10.5232 110.356C10.718 109.43 10.9284 108.49 11.1544 107.538C11.2245 107.247 11.3005 106.929 11.3794 106.621C11.4583 106.312 11.5372 105.988 11.619 105.668C11.7242 105.254 11.8353 104.84 11.9493 104.423C12.2434 103.339 12.562 102.243 12.9048 101.133C16.5782 89.2351 34.7723 89.3575 46.6719 93.1225C54.4802 95.5966 61.4236 100.836 69.5592 101.795C82.0754 103.275 93.1012 94.4776 104.314 88.7397C119.779 80.8838 137.448 78.4588 154.466 81.8567C168.765 84.7503 182.123 91.7004 196.617 93.3731C204.94 94.3319 213.38 93.5101 221.72 94.3202C230.06 95.1303 239.043 99.3062 244.303 105.825Z" fill="white"/>
<path d="M50.6024 104.167C50.6024 104.167 54.7959 110.823 59.565 108.73C59.565 108.73 73.1069 102.835 78.0631 99.0323C78.0631 99.0323 81.5699 94.5242 84.6909 94.7398C84.7334 94.742 84.7741 94.7582 84.8064 94.7859C84.8388 94.8136 84.8611 94.8511 84.8697 94.8927C84.8784 94.9344 84.873 94.9777 84.8544 95.0159C84.8358 95.0542 84.805 95.0852 84.7668 95.1041C84.299 95.3295 83.8746 95.6353 83.5132 96.0075C83.4682 96.0604 83.4378 96.1241 83.4248 96.1923C83.4118 96.2604 83.4167 96.3308 83.4391 96.3965C83.4615 96.4622 83.5005 96.521 83.5524 96.5672C83.6043 96.6134 83.6673 96.6455 83.7353 96.6602C85.4127 97.0187 90.3981 98.4436 87.8265 102.27C86.2142 101.962 84.5873 101.735 82.9521 101.591C82.3717 101.531 81.7877 101.665 81.2922 101.973C80.1964 102.652 78.2414 103.98 77.3092 105.309L57.4756 113.297L47.5486 109.861L50.6024 104.167Z" fill="#F7A48B"/>
<path d="M44.8805 96.94C44.8805 96.94 48.3112 101.894 50.6023 104.167C50.6023 104.167 50.8244 106.207 48.7905 108.066C48.7905 108.066 46.1604 104.995 42.6537 100.586L44.8805 96.94Z" fill="#F8E800"/>
<path opacity="0.3" d="M44.8805 96.94C44.8805 96.94 48.3112 101.894 50.6023 104.167C50.6023 104.167 50.8244 106.207 48.7905 108.066C48.7905 108.066 46.1604 104.995 42.6537 100.586L44.8805 96.94Z" fill="black"/>
<path d="M209.85 150.763C209.85 150.763 203.891 151.903 195.764 153.118C189.002 152.684 181.343 151.704 172.386 150.932L169.802 149.81L202.824 138.023L221.802 134.304C221.802 134.304 222.246 149.621 209.85 150.763Z" fill="#2F2E41"/>
<path opacity="0.2" d="M202.807 138.023C202.693 138.198 196.045 148.4 180.051 151.658C177.602 151.41 175.048 151.162 172.377 150.932L169.794 149.81L202.807 138.023Z" fill="black"/>
<path d="M208.453 84.0073H210.113C213.485 84.0073 216.719 85.3431 219.103 87.7209C221.488 90.0987 222.827 93.3237 222.827 96.6864V131.393C222.827 133.151 222.127 134.836 220.881 136.079C219.635 137.322 217.945 138.02 216.182 138.02H202.383C200.621 138.02 198.93 137.322 197.684 136.079C196.438 134.836 195.738 133.151 195.738 131.393V96.6894C195.737 95.0241 196.066 93.375 196.705 91.8363C197.344 90.2977 198.28 88.8996 199.461 87.7219C200.642 86.5443 202.043 85.6101 203.586 84.9727C205.129 84.3353 206.783 84.0073 208.453 84.0073Z" fill="#F8E800"/>
<path d="M32.4842 162.743V167.598C31.4176 167.242 30.4035 166.849 29.4304 166.432V162.743H32.4842Z" fill="#C2C4C6"/>
<path d="M38.396 162.743V169.067C37.341 168.889 36.327 168.676 35.3451 168.431V162.743H38.396Z" fill="#C2C4C6"/>
<path d="M54.416 162.743V170.028L53.9835 170.054C53.3143 170.095 52.6305 170.121 51.9379 170.133H51.5697H51.3651V162.743H54.416Z" fill="#C2C4C6"/>
<path d="M59.755 162.743V169.375L59.6381 169.396L59.0887 169.489L58.8988 169.521C58.7263 169.547 58.5568 169.576 58.3815 169.6L58.0893 169.644C57.6334 169.711 57.1746 169.772 56.71 169.821V162.743H59.755Z" fill="#C2C4C6"/>
<path d="M27.1423 152.99C27.1423 152.99 23.5186 157.037 27.7267 162.364C27.7267 162.364 30.3977 165.596 38.0249 165.025H57.6568C57.6568 165.025 64.2232 164.588 64.3781 157.008L63.1945 156.469L27.1423 152.99Z" fill="#9EA0A3"/>
<path d="M28.9307 151.457C28.9307 151.457 25.6226 152.663 27.338 156.087C27.338 156.087 28.4836 159.129 35.1581 159.701C35.1581 159.701 42.3381 160.802 55.0735 160.659C55.6931 160.654 56.3111 160.595 56.9203 160.482C58.8315 160.129 62.4961 159.115 63.1945 156.469L28.9307 151.457Z" fill="#E1E1E2"/>
<path d="M83.6797 161.318C79.8485 162.804 76.3389 164.255 72.9373 165.535L72.2301 159.077C72.1568 158.419 71.8369 157.814 71.3345 157.381C70.8321 156.949 70.1844 156.722 69.5212 156.746L43.1621 157.62C26.1895 157.431 25.2368 142.406 25.2368 142.406L48.358 139.002L83.405 150.95L83.6797 161.318Z" fill="#2F2E41"/>
<path opacity="0.2" d="M34.9739 140.934C34.9739 140.934 34.3895 150.763 42.7823 150.381L62.0431 149.621C62.0431 149.621 72.3968 154.385 83.6213 152.098L83.405 150.953L48.358 139.002L34.9739 140.934Z" fill="black"/>
<path d="M41.3796 144.104H27.5893C27.0637 144.105 26.5435 143.998 26.0601 143.793C25.5768 143.587 25.1403 143.285 24.777 142.906C24.4137 142.527 24.1313 142.079 23.9466 141.588C23.762 141.098 23.679 140.575 23.7027 140.051L25.5437 99.6792C25.6662 97.0038 26.8247 94.4801 28.7754 92.6392C30.7262 90.7983 33.317 89.7838 36.0026 89.8092C38.622 89.8356 41.1344 90.8492 43.0354 92.6465C44.9364 94.4437 46.0852 96.8916 46.2511 99.4985L48.5889 136.446C48.6512 137.429 48.5109 138.413 48.1768 139.339C47.8427 140.265 47.3218 141.114 46.6462 141.831C45.9707 142.549 45.1548 143.121 44.249 143.512C43.3432 143.903 42.3666 144.104 41.3796 144.104Z" fill="#F8E800"/>
<path d="M124.504 155.137C169.428 155.137 205.846 144.621 205.846 131.65C205.846 118.678 169.428 108.162 124.504 108.162C79.5802 108.162 43.1622 118.678 43.1622 131.65C43.1622 144.621 79.5802 155.137 124.504 155.137Z" fill="#2E3135"/>
<path d="M172.66 100.364C172.66 100.364 179.019 112.874 187.006 116.1C187.462 116.284 187.951 116.371 188.442 116.354C188.934 116.338 189.416 116.218 189.858 116.004C191.419 115.235 193.859 113.381 195.755 108.961L195.738 97.517C195.738 97.517 196.214 90.9544 200.34 87.4954C200.34 87.4954 195.548 87.4371 192.687 97.3275C192.687 97.3275 190.624 104.272 188.616 106.74C188.491 106.887 188.338 107.008 188.166 107.096C187.994 107.184 187.806 107.237 187.614 107.252C187.421 107.266 187.227 107.243 187.044 107.183C186.86 107.123 186.69 107.026 186.544 106.9L177.047 98.6593C177.047 98.6593 176.667 101.702 172.66 100.364Z" fill="#F8E800"/>
<path opacity="0.2" d="M172.66 100.364C172.66 100.364 179.019 112.874 187.006 116.1C187.462 116.284 187.951 116.371 188.442 116.354C188.934 116.338 189.416 116.218 189.858 116.004C191.419 115.235 193.859 113.381 195.755 108.961L195.738 97.517C195.738 97.517 196.214 90.9544 200.34 87.4954C200.34 87.4954 195.548 87.4371 192.687 97.3275C192.687 97.3275 190.624 104.272 188.616 106.74C188.491 106.887 188.338 107.008 188.166 107.096C187.994 107.184 187.806 107.237 187.614 107.252C187.421 107.266 187.227 107.243 187.044 107.183C186.86 107.123 186.69 107.026 186.544 106.9L177.047 98.6593C177.047 98.6593 176.667 101.702 172.66 100.364Z" fill="black"/>
<path d="M44.1265 84.0277L43.0774 72.8813L38.694 74.5132L38.1095 74.3325L32.4841 77.6837V90.3687C32.4998 91.3233 32.8863 92.2345 33.5622 92.9106C34.238 93.5868 35.1506 93.9751 36.1078 93.9938C37.0668 93.9774 37.9818 93.5901 38.6601 92.9138C39.3383 92.2375 39.7266 91.325 39.7431 90.3687V88.0054C39.7504 87.1879 40.0157 86.3934 40.5015 85.7348C40.9872 85.0762 41.6687 84.587 42.4491 84.3366C42.9904 84.1534 43.5554 84.0494 44.1265 84.0277Z" fill="#F9B499"/>
<path d="M37.6741 80.3821C37.6741 80.3821 36.4876 86.289 39.7197 88.7631C39.7197 88.7631 39.7197 84.9602 44.1031 84.5784L37.6741 80.3821Z" fill="#F7A48B"/>
<path d="M62.6158 49.2043C63.5629 48.9697 64.4692 48.5945 65.3043 48.0912C65.4284 48.0117 65.569 47.9614 65.7154 47.9442C65.8619 47.927 66.0103 47.9434 66.1495 47.992C66.2887 48.0406 66.4149 48.1202 66.5186 48.2247C66.6223 48.3293 66.7007 48.456 66.7479 48.5953C67.8175 51.7542 68.966 60.1118 59.0886 62.9938C59.0886 62.9938 59.565 60.5343 58.7058 58.8645C58.7058 58.8645 62.7123 57.0986 62.6158 49.2043Z" fill="#2F2E41"/>
<path opacity="0.2" d="M62.6158 49.2043C63.5629 48.9697 64.4692 48.5945 65.3043 48.0912C65.4284 48.0117 65.569 47.9614 65.7154 47.9442C65.8619 47.927 66.0103 47.9434 66.1495 47.992C66.2887 48.0406 66.4149 48.1202 66.5186 48.2247C66.6223 48.3293 66.7007 48.456 66.7479 48.5953C67.8175 51.7542 68.966 60.1118 59.0886 62.9938C59.0886 62.9938 59.565 60.5343 58.7058 58.8645C58.7058 58.8645 62.7123 57.0986 62.6158 49.2043Z" fill="black"/>
<path d="M135.851 91.6159V106.073H110.676V91.6189C110.672 89.1286 111.413 86.6937 112.803 84.6251C113.969 82.898 115.54 81.4806 117.379 80.4955C119.218 79.5104 121.271 78.9873 123.359 78.9717C126.836 78.9717 129.887 80.4725 132.166 82.7426C133.335 83.9083 134.262 85.2922 134.894 86.8152C135.526 88.3382 135.852 89.9705 135.851 91.6189V91.6159Z" fill="#F8E800"/>
<path d="M108.008 89.9025C108.008 89.9025 104.574 85.5313 105.91 77.9226C105.91 77.9226 107.245 74.3092 106.289 67.8428C106.289 67.8428 98.4723 64.9899 97.5226 52.0572C97.5226 52.0572 97.5226 32.6582 107.251 33.6111C108.145 33.6574 109.009 33.9477 109.749 34.4503C110.489 34.9528 111.077 35.6484 111.447 36.461C112.028 35.9582 112.774 35.6872 113.543 35.7005C113.543 35.7005 119.264 24.4812 132.996 30.7465C132.996 30.7465 138.908 32.8359 142.914 38.3523L144.823 37.9734C144.823 37.9734 149.589 33.6023 153.213 40.4446C153.213 40.4446 159.887 58.5119 150.735 66.31C149.511 67.4207 147.986 68.1482 146.351 68.4023L145.206 78.2898C145.206 78.2898 145.86 90.6572 140.384 91.986C139.175 90.8427 138.085 89.5814 137.128 88.221C137.128 88.221 134.387 84.5289 133.122 83.7858C133.122 83.7858 129.595 79.1611 124.063 79.0096C121.856 78.88 119.654 79.3311 117.677 80.3177C115.701 81.3043 114.019 82.7917 112.8 84.6309C111.8 85.5166 110.898 86.5062 110.109 87.5828C109.669 88.1677 109.189 88.7208 108.671 89.238L108.008 89.9025Z" fill="#2F2E41"/>
<path d="M127.079 72.5957V79.8226C127.092 80.2805 127.013 80.7364 126.847 81.1633C126.68 81.5902 126.43 81.9795 126.109 82.3081C125.789 82.6367 125.407 82.8979 124.983 83.0763C124.56 83.2546 124.106 83.3466 123.646 83.3466C123.187 83.3466 122.732 83.2546 122.309 83.0763C121.886 82.8979 121.503 82.6367 121.183 82.3081C120.863 81.9795 120.612 81.5902 120.446 81.1633C120.28 80.7364 120.201 80.2805 120.214 79.8226V72.5957H127.079Z" fill="#F9B499"/>
<path d="M120.214 72.5957V73.604C120.214 74.0536 120.303 74.4989 120.475 74.9143C120.648 75.3297 120.901 75.7072 121.22 76.0251C121.539 76.3431 121.917 76.5953 122.334 76.7674C122.75 76.9395 123.197 77.028 123.648 77.028C124.558 77.028 125.432 76.6673 126.076 76.0251C126.72 75.383 127.081 74.5121 127.081 73.604V72.5957H120.214Z" fill="#F7A48B"/>
<path d="M156.068 85.339C150.729 96.94 143.671 100.175 143.671 100.175C141.693 100.83 139.364 99.3732 137.748 98.0182C137.037 97.4237 136.372 96.7769 135.758 96.0832L135.851 95.4567V91.6159C135.856 88.7752 134.89 86.0177 133.113 83.7974L132.704 83.3428C134.11 84.2171 137.575 88.7718 138.49 89.987L138.712 90.2784C141.573 93.7082 142.9 92.3765 142.9 92.3765C147.669 89.3342 153.388 82.6755 153.388 82.6755C153.78 85.7207 156.068 85.339 156.068 85.339Z" fill="#F8E800"/>
<path d="M112.8 84.6309C111.41 86.6996 110.669 89.1344 110.673 91.6247V96.1007C110.282 96.6761 109.821 97.2016 109.302 97.6656C107.824 98.9944 105.322 100.245 102.473 97.5199C102.473 97.5199 94.6529 90.4824 91.2222 84.2083C91.2222 84.2083 94.6529 84.9689 95.2257 82.6843C95.2257 82.6843 100.758 89.343 104.761 91.0535C104.761 91.0535 106.167 91.8928 109.343 88.3959L109.434 88.2968C109.434 88.2968 111.655 85.4468 112.8 84.6309Z" fill="#F8E800"/>
<path d="M153.397 82.6755C153.397 82.6755 153.441 82.6114 153.528 82.4744C154.09 81.5789 154.543 80.6203 154.878 79.6186C155.317 78.3277 156.205 76.317 157.655 75.5389C157.72 75.5038 157.794 75.4903 157.867 75.5004C157.941 75.5105 158.009 75.5436 158.062 75.5949C158.115 75.6463 158.15 75.7132 158.163 75.7859C158.175 75.8586 158.164 75.9334 158.131 75.9993C157.611 77.0193 156.909 78.7298 157.976 78.861C157.976 78.861 159.501 78.6716 160.837 75.2475L161.524 73.8779C161.558 73.8072 161.615 73.7493 161.684 73.7124C161.754 73.6755 161.834 73.6616 161.912 73.6726C161.99 73.6836 162.063 73.719 162.119 73.7736C162.176 73.8283 162.214 73.8995 162.228 73.977C162.611 76.1742 162.722 81.4953 156.068 85.3419C156.068 85.339 153.683 85.814 153.397 82.6755Z" fill="#F9B499"/>
<path d="M91.225 84.1996C91.225 84.1996 83.4459 79.0825 86.2338 72.5433C86.2899 72.409 86.3847 72.2943 86.5061 72.2136C86.6276 72.1329 86.7702 72.0898 86.9161 72.0898C87.062 72.0898 87.2047 72.1329 87.3261 72.2136C87.4475 72.2943 87.5423 72.409 87.5985 72.5433C88.4313 74.5627 90.0181 77.8848 91.225 77.3486C91.225 77.3486 92.1777 77.538 91.9878 75.8274L91.8738 74.3704C91.8691 74.3024 91.8871 74.2348 91.9249 74.1781C91.9628 74.1213 92.0184 74.0787 92.083 74.0567C92.1477 74.0348 92.2179 74.0348 92.2826 74.0567C92.3473 74.0787 92.4029 74.1213 92.4407 74.1781C92.9901 75.0377 93.7411 76.6346 94.086 79.2544C94.086 79.2544 94.4659 81.7255 95.2286 82.6755C95.2286 82.6755 95.4185 84.7678 91.225 84.1996Z" fill="#F9B499"/>
<path d="M111.441 36.461C111.441 36.461 108.581 37.9851 107.625 42.3591C107.625 42.3591 106.099 42.738 106.289 40.0745C106.289 40.0745 106.482 33.8034 111.441 36.461Z" fill="#F8E800"/>
<path opacity="0.2" d="M138.139 73.5486C138.139 73.5486 134.779 82.6114 135.603 86.3531C134.774 85.2266 133.799 84.2144 132.704 83.3428C132.704 83.3428 130.989 81.0611 127.079 79.5691V75.1543C127.686 75.0902 134.592 74.2218 138.096 66.3654C138.096 66.3654 139.285 69.9381 138.139 73.5486Z" fill="black"/>
<path opacity="0.2" d="M107.625 42.3592C107.625 42.3592 104.574 51.8678 105.72 64.0399C105.72 64.0399 101.523 58.9053 103.239 48.4438C103.239 48.4438 103.823 42.738 106.289 40.0745C106.289 40.0745 105.91 42.738 107.625 42.3592Z" fill="black"/>
<path opacity="0.2" d="M145.673 42.8371C145.673 42.8371 148.595 52.6313 147.456 64.8034C147.456 64.8034 151.649 59.6688 149.934 49.2072C149.934 49.2072 149.107 43.4082 146.629 40.7564C146.629 40.7418 147.199 42.6447 145.673 42.8371Z" fill="black"/>
<path d="M124.855 87.3905L126.506 88.763H127.09L128.744 87.2506C128.794 87.2065 128.855 87.1783 128.921 87.1695C128.986 87.1607 129.053 87.1718 129.112 87.2013C129.172 87.2308 129.221 87.2775 129.253 87.3351C129.285 87.3928 129.3 87.4588 129.294 87.5246L129.057 89.8966C129.051 89.9545 129.03 90.0099 128.995 90.0569C128.961 90.104 128.915 90.1411 128.861 90.1645C128.808 90.1879 128.749 90.1967 128.691 90.1901C128.633 90.1835 128.578 90.1617 128.531 90.1268L127.09 89.3342H126.506L124.937 90.3367C124.883 90.3703 124.821 90.3892 124.757 90.3916C124.693 90.394 124.63 90.3797 124.574 90.3503C124.517 90.3208 124.47 90.2772 124.435 90.2237C124.401 90.1702 124.382 90.1087 124.378 90.0452L124.259 87.6907C124.255 87.6202 124.272 87.5503 124.308 87.4894C124.343 87.4284 124.396 87.379 124.459 87.3473C124.522 87.3155 124.593 87.3027 124.663 87.3103C124.734 87.318 124.8 87.3459 124.855 87.3905Z" fill="#2F2E41"/>
<path opacity="0.2" d="M127.079 88.7631H126.506V89.3342H127.079V88.7631Z" fill="black"/>
<path d="M124.504 152.284C169.428 152.284 205.846 141.769 205.846 128.797C205.846 115.825 169.428 105.309 124.504 105.309C79.5802 105.309 43.1622 115.825 43.1622 128.797C43.1622 141.769 79.5802 152.284 124.504 152.284Z" fill="#3F4347"/>
<path d="M48.7291 51.4861H47.3235C41.339 51.4861 36.4877 56.3238 36.4877 62.2915V76.2441C36.4877 82.2118 41.339 87.0496 47.3235 87.0496H48.7291C54.7136 87.0496 59.565 82.2118 59.565 76.2441V62.2915C59.565 56.3238 54.7136 51.4861 48.7291 51.4861Z" fill="#F9B499"/>
<path d="M36.8705 94.2765C36.8705 94.2765 33.6297 94.5679 34.4129 100.312C34.696 102.31 35.3532 104.238 36.3503 105.994C37.7472 108.483 40.351 112.326 44.1178 114.628C44.1178 114.628 48.1213 114.436 49.4568 108.352C49.4568 108.352 43.7876 102.523 41.5666 98.8808C41.4822 98.7375 41.4079 98.5886 41.3445 98.4349C40.9588 97.4616 39.2054 93.6121 36.8705 94.2765Z" fill="#F8E800"/>
<path opacity="0.2" d="M36.8705 94.2765C36.8705 94.2765 33.6297 94.5679 34.4129 100.312C34.696 102.31 35.3532 104.238 36.3503 105.994C37.7472 108.483 40.351 112.326 44.1178 114.628C44.1178 114.628 48.1213 114.436 49.4568 108.352C49.4568 108.352 43.7876 102.523 41.5666 98.8808C41.4822 98.7375 41.4079 98.5886 41.3445 98.4349C40.9588 97.4616 39.2054 93.6121 36.8705 94.2765Z" fill="black"/>
<path d="M62.4669 53.2666C61.5434 57.4891 58.0337 62.1516 46.5959 60.6159C45.4323 63.4658 43.4381 65.9021 40.8711 67.6097L36.5491 74.0207C36.5491 74.0207 36.2978 83.6372 32.2913 86.4842L27.9079 79.4467C27.9079 79.4467 6.356 70.3169 17.037 57.3842C17.037 57.3842 17.2298 39.6986 37.0634 39.3168C37.0634 39.3168 44.0769 38.9788 51.4469 43.9386C52.0357 44.3421 52.6016 44.7779 53.1418 45.2441C54.1646 46.1183 56.9671 48.0358 61.3242 47.4909C61.6364 47.4538 61.9506 47.5415 62.1982 47.7348C62.4457 47.9281 62.6064 48.2113 62.6451 48.5224C62.8493 50.1028 62.789 51.7059 62.4669 53.2666Z" fill="#2F2E41"/>
<path opacity="0.1" d="M62.4668 53.2666C61.5434 57.4891 58.0337 62.1516 46.5959 60.6159C45.4323 63.4658 43.4381 65.9021 40.8711 67.6097C40.9617 67.4727 44.4772 62.0729 42.7823 56.6149C42.7823 56.6207 52.2213 64.3343 62.4668 53.2666Z" fill="black"/>
<path d="M211.948 77.7332V86.8602C211.948 88.0705 211.466 89.2312 210.607 90.087C209.749 90.9428 208.585 91.4236 207.371 91.4236C206.158 91.4236 204.994 90.9428 204.135 90.087C203.277 89.2312 202.795 88.0705 202.795 86.8602V77.7332H211.948Z" fill="#F9B499"/>
<path d="M182.196 125.087C182.196 125.087 172.78 124.921 168.169 130.883C168.082 130.999 168.03 131.137 168.019 131.281C168.009 131.425 168.04 131.569 168.11 131.695C168.18 131.822 168.285 131.926 168.413 131.994C168.54 132.063 168.685 132.093 168.829 132.081C170.701 131.915 172.553 131.577 174.361 131.07C175.049 130.887 175.757 130.789 176.468 130.778L182.856 130.671C182.856 130.671 179.811 128.415 182.196 125.087Z" fill="#F9B499"/>
<path d="M142.9 38.3639C142.9 38.3639 145.188 40.6457 145.761 43.3179C145.761 43.3179 147.096 42.9361 146.713 41.0362C146.722 41.0274 145.96 35.8928 142.9 38.3639Z" fill="#F8E800"/>
<path d="M124.945 36.0822H123.11C115.295 36.0822 108.96 42.3995 108.96 50.1922V61.3386C108.96 69.1313 115.295 75.4486 123.11 75.4486H124.945C132.76 75.4486 139.095 69.1313 139.095 61.3386V50.1922C139.095 42.3995 132.76 36.0822 124.945 36.0822Z" fill="#F9B499"/>
<path d="M138.14 73.5486C138.733 71.3318 138.757 69.0019 138.21 66.7734C137.941 65.739 137.467 64.7692 136.814 63.922C136.161 63.0748 135.344 62.3676 134.411 61.8427C128.759 58.6372 125.936 52.0572 125.936 52.0572C106.482 49.0149 113.537 35.7005 113.537 35.7005L130.334 31.5188C130.334 31.5188 137.199 40.261 138.151 40.8438C139.104 41.4266 143.683 63.2823 143.683 63.2823L138.14 73.5486Z" fill="#2F2E41"/>
<path opacity="0.2" d="M113.537 35.7005C113.537 35.7005 109.533 47.6832 123.645 49.3967C123.645 49.3967 121.357 44.4427 124.408 41.6015C124.408 41.6015 123.455 49.589 127.841 53.3919L134.326 59.8582C134.326 59.8582 139.002 62.9938 138.096 66.3712C138.096 66.3712 137.552 63.8301 134.414 61.8456C134.414 61.8456 129.738 59.8582 125.939 52.0601C125.951 52.0572 107.248 50.1543 113.537 35.7005Z" fill="black"/>
<path d="M113.537 35.7005C113.537 35.7005 111.354 39.2207 112.73 44.3058C112.73 44.3058 111.249 47.8726 111.821 51.1072C111.621 52.8146 111.171 54.4835 110.486 56.0612C110.486 56.0612 108.771 59.6747 109.723 65.7593L107.435 64.8093L107.625 57.7718L108.581 43.3179L113.537 35.7005Z" fill="#2F2E41"/>
<path opacity="0.2" d="M112.8 84.6309C111.41 86.6996 110.669 89.1344 110.673 91.6247V96.1007C110.282 96.6761 109.821 97.2016 109.302 97.6656C108.898 94.5879 108.912 91.4699 109.343 88.3959L109.434 88.2968C109.434 88.2968 111.655 85.4468 112.8 84.6309Z" fill="black"/>
<path opacity="0.2" d="M138.49 89.987L137.748 98.0182C137.037 97.4237 136.372 96.7769 135.758 96.0832L135.851 95.4567V91.6159C135.856 88.7752 134.89 86.0177 133.113 83.7974L132.704 83.3428C134.11 84.2171 137.575 88.7718 138.49 89.987Z" fill="black"/>
<path d="M38.1096 74.3092C39.9527 74.3092 41.4468 72.5205 41.4468 70.314C41.4468 68.1075 39.9527 66.3188 38.1096 66.3188C36.2665 66.3188 34.7723 68.1075 34.7723 70.314C34.7723 72.5205 36.2665 74.3092 38.1096 74.3092Z" fill="#F9B499"/>
<path d="M44.1266 114.628C44.1266 114.628 51.7538 121.095 62.6247 117.1C62.6247 117.1 70.4184 113.92 76.6166 108.585C77.064 108.198 77.616 107.951 78.2034 107.877C80.5178 107.585 86.643 106.405 88.1801 102.267C88.1801 102.267 89.1357 99.6034 86.8475 101.684C86.8475 101.684 83.031 103.931 80.1964 103.141C80.0566 103.101 79.9277 103.03 79.8194 102.933C79.7111 102.836 79.6262 102.716 79.571 102.582C79.336 102.071 79.2659 101.5 79.3707 100.949C79.4754 100.397 79.7497 99.891 80.1555 99.5015C80.2191 99.4611 80.2646 99.3979 80.2825 99.3249C80.3005 99.2519 80.2894 99.1748 80.2517 99.1097C80.214 99.0446 80.1525 98.9966 80.0801 98.9757C80.0077 98.9547 79.93 98.9625 79.8632 98.9973C78.9866 99.2013 77.5897 100.102 76.1753 103.403C75.7521 104.4 74.9703 105.202 73.9836 105.653C69.6469 107.623 57.7912 112.691 54.2319 110.995C54.2319 110.995 51.9408 110.412 49.4627 108.331C49.4568 108.352 48.5977 113.582 44.1266 114.628Z" fill="#F9B499"/>
<path d="M81.4968 104.452C81.4745 104.449 81.4543 104.437 81.4397 104.42C81.4251 104.402 81.4171 104.38 81.4171 104.358C81.4171 104.335 81.4251 104.313 81.4397 104.296C81.4543 104.279 81.4745 104.267 81.4968 104.263C81.5465 104.263 86.4384 103.68 88.2999 101.256C88.3164 101.239 88.3386 101.228 88.3622 101.226C88.3859 101.225 88.4094 101.232 88.4283 101.246C88.4471 101.261 88.4599 101.281 88.4643 101.305C88.4686 101.328 88.4642 101.352 88.4519 101.372C86.5407 103.849 81.7306 104.429 81.5202 104.452H81.4968Z" fill="#F7A48B"/>
<path d="M82.0696 105.595C82.0466 105.595 82.0245 105.587 82.0072 105.572C81.99 105.557 81.9789 105.536 81.976 105.513C81.974 105.501 81.9744 105.488 81.9772 105.476C81.9801 105.464 81.9854 105.453 81.9927 105.443C82.0001 105.433 82.0093 105.424 82.02 105.418C82.0307 105.411 82.0426 105.407 82.0549 105.405C82.0842 105.405 85.138 104.901 87.4612 103.182C87.4712 103.173 87.483 103.167 87.4957 103.163C87.5084 103.159 87.5218 103.158 87.535 103.159C87.5482 103.161 87.5609 103.165 87.5724 103.172C87.5839 103.178 87.594 103.187 87.6018 103.198C87.6097 103.208 87.6153 103.221 87.6182 103.234C87.6212 103.246 87.6214 103.26 87.6189 103.273C87.6164 103.286 87.6112 103.298 87.6037 103.309C87.5961 103.32 87.5864 103.329 87.5751 103.336C85.2139 105.085 82.1163 105.589 82.0842 105.592L82.0696 105.595Z" fill="#F7A48B"/>
<path d="M82.4494 106.364C82.4258 106.364 82.4032 106.354 82.386 106.338C82.3687 106.322 82.358 106.3 82.3559 106.277C82.3547 106.264 82.356 106.252 82.3598 106.24C82.3636 106.228 82.3698 106.217 82.378 106.207C82.3862 106.198 82.3962 106.19 82.4075 106.184C82.4187 106.179 82.431 106.175 82.4436 106.175C83.647 106.007 84.8119 105.631 85.886 105.064C85.8969 105.058 85.9089 105.054 85.9213 105.053C85.9338 105.052 85.9463 105.053 85.9583 105.056C85.9703 105.06 85.9815 105.066 85.9911 105.074C86.0008 105.082 86.0088 105.091 86.0146 105.102C86.0207 105.114 86.0244 105.126 86.0257 105.139C86.0269 105.151 86.0256 105.164 86.0218 105.176C86.0179 105.189 86.0117 105.2 86.0035 105.21C85.9952 105.22 85.9851 105.228 85.9737 105.233C84.8796 105.811 83.6929 106.193 82.4669 106.364H82.4494Z" fill="#F7A48B"/>
<path d="M211.948 77.7332V79.5108C209.487 82.6668 204.578 84.4648 202.795 85.0476V77.7332H211.948Z" fill="#F7A48B"/>
<path d="M204.058 44.4515H202.488C195.811 44.4515 190.399 49.8489 190.399 56.507V70.2411C190.399 76.8992 195.811 82.2967 202.488 82.2967H204.058C210.734 82.2967 216.147 76.8992 216.147 70.2411V56.507C216.147 49.8489 210.734 44.4515 204.058 44.4515Z" fill="#F9B499"/>
<path d="M229.493 60.2341C228.806 77.9343 211.959 82.1073 211.959 82.1073L211.878 79.2894C215.799 74.9503 215.945 72.2518 215.945 72.2518L217.681 70.6957L216.22 66.2896V57.6231C211.708 60.5372 208.143 59.0802 208.143 59.0802C204.329 57.1773 207.76 53.185 207.76 53.185C194.411 59.8407 194.221 52.8032 194.221 52.8032C192.123 54.135 191.933 59.0802 191.933 59.0802C191.686 60.6184 191.193 62.1071 190.472 63.4892C188.61 60.0984 187.672 56.2804 187.751 52.4157C187.751 52.4157 185.919 51.5006 185.665 48.9654C185.536 47.6599 185.822 45.926 186.988 43.6647C186.988 43.6647 191.565 33.5878 212.544 37.3906C212.52 37.4139 230.259 40.6457 229.493 60.2341Z" fill="#2F2E41"/>
<path opacity="0.2" d="M216.211 66.2896V57.6231C211.699 60.5372 208.134 59.0802 208.134 59.0802C204.321 57.1773 207.751 53.185 207.751 53.185C194.402 59.8407 194.212 52.8032 194.212 52.8032C192.114 54.135 191.924 59.0802 191.924 59.0802C191.677 60.6184 191.184 62.1071 190.463 63.4892C188.602 60.0984 187.664 56.2804 187.742 52.4157C187.742 52.4157 185.91 51.5006 185.656 48.9654C186.217 49.8076 187.959 51.6289 191.176 48.4204C191.176 48.4204 196.144 43.1022 200.323 42.3358C200.15 42.4291 195.25 45.0226 194.008 48.4175C193.838 48.893 193.766 49.3979 193.796 49.9018C193.827 50.4057 193.959 50.8983 194.185 51.3498C194.412 51.8014 194.727 52.2027 195.113 52.5296C195.499 52.8565 195.947 53.1022 196.43 53.252C198.324 53.8552 201.568 54.1408 206.24 52.0339C206.24 52.0339 210.332 49.283 212.962 48.4729C212.757 48.6186 204.195 54.7324 209.484 57.7397C209.484 57.7397 210.82 59.0714 217.111 56.7897C217.097 56.8247 218.377 61.1229 216.211 66.2896Z" fill="black"/>
<path d="M220.227 70.2708C221.081 68.4656 220.537 66.4215 219.013 65.705C217.489 64.9886 215.561 65.8711 214.708 67.6762C213.855 69.4814 214.398 71.5255 215.923 72.242C217.447 72.9585 219.374 72.0759 220.227 70.2708Z" fill="#F9B499"/>
<path d="M216.717 90.0948C216.717 90.0948 219.958 91.4265 218.052 99.7929C218.052 99.7929 214.236 121.474 204.902 123.755C204.902 123.755 190.597 129.651 183.54 131.175C183.54 131.175 178.771 128.322 182.587 124.708L199.458 119.373C199.458 119.373 202.804 118.431 204.718 113.676L211.392 95.4188C211.392 95.4188 212.903 88.5882 216.717 90.0948Z" fill="#F8E800"/>
<path opacity="0.2" d="M216.717 90.0948C216.717 90.0948 219.958 91.4265 218.052 99.7929C218.052 99.7929 214.236 121.474 204.902 123.755C204.902 123.755 190.597 129.651 183.54 131.175C183.54 131.175 178.771 128.322 182.587 124.708L199.458 119.373C199.458 119.373 202.804 118.431 204.718 113.676L211.392 95.4188C211.392 95.4188 212.903 88.5882 216.717 90.0948Z" fill="black"/>
<path d="M169.989 98.0823C169.989 98.0823 170.372 99.9823 172.66 100.364C172.66 100.364 176.284 101.885 177.044 98.6535C177.044 98.6535 176.091 98.4611 176.281 95.99C176.281 95.99 177.617 88.9525 173.42 89.5236C173.42 89.5236 169.037 90.1064 170.179 92.3765C170.179 92.3765 170.647 93.0001 171.871 91.986C172.09 91.8035 172.355 91.6848 172.637 91.6432C172.919 91.6015 173.208 91.6385 173.47 91.75C173.955 91.9627 174.347 92.4465 174.183 93.5159C174.186 93.5159 173.613 97.5111 169.989 98.0823Z" fill="#F9B499"/>
</svg>
