<svg width="222" height="304" viewBox="0 0 222 304" fill="none" xmlns="http://www.w3.org/2000/svg">
<path d="M96.8642 278.87L90.2219 276.708L90.1601 276.898L96.8023 279.06L96.8642 278.87Z" fill="black" fill-opacity="0.25"/>
<path d="M211.635 41.4801L100.5 5.30802C94.892 3.48279 88.8697 6.53871 87.0487 12.1336L9.45182 250.542C7.6308 256.137 10.7006 262.152 16.3084 263.977L127.443 300.149C133.051 301.975 139.074 298.919 140.895 293.324L218.491 54.9154C220.312 49.3205 217.243 43.3053 211.635 41.4801Z" fill="black"/>
<path d="M205.48 39.477L94.3453 3.30486C88.7374 1.47964 82.7152 4.53555 80.8942 10.1304L3.29728 248.539C1.47626 254.134 4.54605 260.149 10.1539 261.974L121.289 298.146C126.897 299.972 132.919 296.916 134.74 291.321L212.337 52.9123C214.158 47.3174 211.088 41.3022 205.48 39.477Z" fill="#EAEDF0"/>
<path opacity="0.2" d="M205.48 39.477L94.3453 3.30486C88.7374 1.47964 82.7152 4.53555 80.8942 10.1304L3.29728 248.539C1.47626 254.134 4.54605 260.149 10.1539 261.974L121.289 298.146C126.897 299.972 132.919 296.916 134.74 291.321L212.337 52.9123C214.158 47.3174 211.088 41.3022 205.48 39.477Z" fill="#2F2E41"/>
<path d="M152.318 35.2123L135.076 29.6004C134.953 29.5603 134.851 29.473 134.792 29.3577C134.733 29.2425 134.723 29.1087 134.763 28.9857C134.803 28.8628 134.89 28.7609 135.005 28.7023C135.121 28.6438 135.255 28.6334 135.378 28.6735L152.615 34.2839C152.739 34.324 152.841 34.4113 152.9 34.5265C152.958 34.6418 152.969 34.7756 152.929 34.8985C152.889 35.0214 152.802 35.1234 152.686 35.1819C152.571 35.2405 152.437 35.2509 152.314 35.2108L152.318 35.2123Z" fill="#5E5F60"/>
<path d="M156.887 38.0627C157.826 38.3683 158.835 37.8567 159.139 36.9199C159.444 35.9832 158.93 34.976 157.991 34.6704C157.053 34.3649 156.044 34.8765 155.739 35.8132C155.434 36.75 155.948 37.7571 156.887 38.0627Z" fill="#5E5F60"/>
<path d="M205.183 61.3517L82.4304 21.3985L10.9378 241.052L133.69 281.005L205.183 61.3517Z" fill="white"/>
<path d="M196 64.216L196.976 64.5334C197.015 64.5463 197.048 64.5742 197.067 64.6111C197.085 64.648 197.089 64.6908 197.076 64.7301L196.705 65.8701C196.692 65.9095 196.664 65.9421 196.627 65.9608C196.59 65.9796 196.548 65.9829 196.508 65.97L195.533 65.6526L196 64.216Z" fill="black"/>
<path d="M192.246 61.8922L188.702 60.7387L187.587 64.1634L191.132 65.3169L192.246 61.8922Z" fill="#F8E800"/>
<path d="M181.362 60.7532L180.897 60.602L180.49 61.8532L180.954 62.0044L181.362 60.7532Z" fill="black"/>
<path d="M182.425 60.4073L181.96 60.2561L181.349 62.133L181.814 62.2841L182.425 60.4073Z" fill="black"/>
<path d="M183.528 59.9362L183.064 59.7851L182.209 62.4127L182.673 62.5639L183.528 59.9362Z" fill="black"/>
<path d="M185.527 59.6182L185.063 59.467L183.923 62.9705L184.387 63.1217L185.527 59.6182Z" fill="black"/>
<path d="M184.587 59.5888L184.122 59.4376L183.063 62.6908L183.528 62.842L184.587 59.5888Z" fill="black"/>
<path d="M167.562 137.132L64.9831 103.745L69.1326 90.9958L171.712 124.383L167.562 137.132ZM65.5984 103.432L167.248 136.517L171.096 124.695L69.4462 91.6104L65.5984 103.432Z" fill="black"/>
<path d="M157.293 168.682L54.7142 135.294L58.8636 122.546L161.443 155.933L157.293 168.682ZM55.3295 134.982L156.98 168.067L160.827 156.245L59.1773 123.16L55.3295 134.982Z" fill="black"/>
<path d="M147.031 201.033L44.4517 167.646L48.5996 154.902L151.179 188.289L147.031 201.033ZM45.067 167.334L146.717 200.419L150.563 188.601L48.9133 155.516L45.067 167.334Z" fill="black"/>
<path d="M48.7142 180.765L41.2312 178.329L38.8013 185.795L46.2843 188.231L48.7142 180.765Z" fill="#F8E800"/>
<path d="M102.773 222.33L37.0334 200.933C35.0555 200.29 32.9315 201.367 32.2892 203.341L27.4821 218.11C26.8398 220.083 27.9226 222.205 29.9004 222.849L95.6404 244.246C97.6183 244.889 99.7423 243.812 100.385 241.838L105.192 227.069C105.834 225.096 104.751 222.974 102.773 222.33Z" fill="#F8E800"/>
<path d="M89.2576 30.8522C89.2018 30.6777 89.2069 30.4897 89.272 30.3187C89.3248 30.15 89.4264 30.0007 89.564 29.8895C89.7016 29.7784 89.8692 29.7104 90.0455 29.694C90.2687 29.6755 90.4933 29.7016 90.7063 29.7709C90.9193 29.8403 91.1163 29.9514 91.2857 30.0977C91.4209 30.219 91.5176 30.377 91.5642 30.5522C91.6067 30.7195 91.6012 30.8954 91.548 31.0595C91.494 31.234 91.3866 31.3872 91.241 31.4977C91.0922 31.6036 90.9155 31.6637 90.7327 31.6705C90.8988 31.7865 91.0248 31.951 91.0931 32.1415C91.1578 32.3377 91.1556 32.5496 91.087 32.7442C91.031 32.9386 90.9157 33.1107 90.7573 33.2366C90.5995 33.3602 90.4091 33.4353 90.2091 33.4528C89.9768 33.4757 89.7421 33.4483 89.5212 33.3724C89.301 33.3047 89.0982 33.1897 88.9271 33.0355C88.7784 32.903 88.6705 32.731 88.6159 32.5396C88.5619 32.3445 88.57 32.1376 88.6391 31.9475C88.6981 31.748 88.8216 31.5738 88.9905 31.452C89.1562 31.3365 89.3555 31.2788 89.5575 31.288C89.4177 31.1744 89.3136 31.0231 89.2576 30.8522ZM89.4553 31.6494C89.3603 31.6816 89.2749 31.7371 89.207 31.8108C89.139 31.8845 89.0907 31.974 89.0663 32.0712C89.0329 32.1632 89.0208 32.2615 89.0309 32.3589C89.0411 32.4563 89.0731 32.5502 89.1248 32.6335C89.2574 32.809 89.4409 32.9396 89.6502 33.0077C89.8596 33.0759 90.0847 33.0782 90.2953 33.0145C90.3861 32.9775 90.4672 32.9205 90.5327 32.8477C90.5982 32.775 90.6464 32.6883 90.6735 32.5943C90.7087 32.5021 90.7214 32.4029 90.7104 32.3048C90.6995 32.2068 90.6652 32.1127 90.6104 32.0305C90.4795 31.8567 90.2943 31.7315 90.0841 31.6747C89.883 31.5972 89.6619 31.5884 89.4553 31.6494ZM91.0631 30.466C90.946 30.3049 90.7772 30.1885 90.5849 30.1361C90.4014 30.066 90.1993 30.0619 90.0133 30.1243C89.9287 30.1596 89.8537 30.2143 89.7944 30.2841C89.735 30.3539 89.6932 30.4367 89.6721 30.5258C89.6431 30.6067 89.6336 30.6933 89.6441 30.7786C89.6547 30.8639 89.6852 30.9456 89.733 31.0171C89.8399 31.1793 90.0031 31.2964 90.1912 31.3456C90.3752 31.4167 90.5787 31.4192 90.7642 31.3528C90.8452 31.3219 90.918 31.2728 90.977 31.2093C91.0359 31.1459 91.0795 31.0697 91.1042 30.9868C91.1404 30.9025 91.1557 30.8108 91.1488 30.7193C91.1419 30.6279 91.1131 30.5394 91.0646 30.4614L91.0631 30.466Z" fill="black"/>
<path d="M92.0539 31.7623C92.0169 31.6897 92.0103 31.6055 92.0355 31.5282C92.0607 31.4509 92.1155 31.3867 92.1881 31.3498C92.2615 31.312 92.347 31.3048 92.4258 31.3298C92.4652 31.34 92.5016 31.3593 92.5321 31.3862C92.5627 31.413 92.5864 31.4467 92.6015 31.4844C92.6372 31.558 92.643 31.6425 92.6177 31.7203C92.5924 31.798 92.538 31.8629 92.4658 31.9015C92.4314 31.9231 92.3924 31.9363 92.3519 31.94C92.3114 31.9437 92.2706 31.9379 92.2327 31.923C92.1938 31.9093 92.1579 31.888 92.1272 31.8605C92.0965 31.8329 92.0716 31.7995 92.0539 31.7623ZM91.3872 33.8106C91.3495 33.7355 91.3427 33.6487 91.3683 33.5687C91.395 33.4908 91.451 33.4264 91.5245 33.3891C91.598 33.3518 91.6833 33.3445 91.7621 33.3689C91.8005 33.3812 91.8358 33.4013 91.8661 33.4279C91.8963 33.4545 91.9208 33.487 91.9378 33.5234C91.9559 33.5598 91.9666 33.5993 91.9693 33.6398C91.972 33.6802 91.9667 33.7208 91.9536 33.7592C91.9291 33.8389 91.8741 33.9057 91.8006 33.9452C91.7653 33.9638 91.7265 33.975 91.6866 33.9779C91.6468 33.9808 91.6067 33.9754 91.5691 33.962C91.5302 33.95 91.4942 33.9304 91.463 33.9045C91.4317 33.8785 91.406 33.8466 91.3872 33.8106Z" fill="black"/>
<path d="M93.7811 31.0329C94.0644 30.9306 94.3753 30.9335 94.6569 31.0412C94.8525 31.1001 95.0316 31.204 95.1797 31.3446C95.3075 31.4586 95.3966 31.6094 95.4348 31.7761C95.4728 31.9432 95.4624 32.1176 95.4047 32.2789C95.3494 32.4644 95.2318 32.6252 95.0716 32.7342C94.9154 32.8394 94.7274 32.8869 94.5398 32.8686C94.7201 32.9731 94.8592 33.136 94.9341 33.3301C95.0047 33.5409 95.001 33.7694 94.9237 33.9776C94.8687 34.1497 94.7705 34.3047 94.6384 34.428C94.5028 34.5461 94.3352 34.6217 94.1567 34.6454C93.9409 34.6723 93.7218 34.6484 93.5168 34.5755C93.2117 34.4898 92.9462 34.3 92.7667 34.0392C92.6885 33.9101 92.6377 33.7664 92.6175 33.617C92.5972 33.4675 92.6078 33.3156 92.6487 33.1705L93.0714 33.3081C93.0327 33.4916 93.0616 33.683 93.1528 33.8471C93.2627 34.0214 93.4339 34.1485 93.6328 34.2032C93.7234 34.2397 93.8204 34.2577 93.918 34.256C94.0157 34.2543 94.1119 34.233 94.2011 34.1934C94.2809 34.1524 94.351 34.0949 94.4066 34.0246C94.4623 33.9543 94.5022 33.8729 94.5238 33.7859C94.5644 33.6891 94.5796 33.5835 94.5677 33.4791C94.5558 33.3748 94.5173 33.2752 94.4558 33.1898C94.271 33.0004 94.0383 32.8645 93.7825 32.7964L93.671 32.7601L93.7887 32.3986L93.9048 32.4364C94.1313 32.5226 94.3766 32.5476 94.6158 32.509C94.7105 32.4889 94.797 32.4411 94.8644 32.3718C94.9318 32.3025 94.977 32.2147 94.9942 32.1196C95.0215 32.0453 95.0324 31.9659 95.0262 31.887C95.02 31.808 94.9968 31.7313 94.9582 31.662C94.8626 31.5127 94.7148 31.4043 94.5435 31.3579C94.377 31.299 94.1952 31.2996 94.0292 31.3597C93.9512 31.3897 93.88 31.4349 93.8197 31.4927C93.7594 31.5506 93.7113 31.6198 93.6782 31.6964L93.2509 31.5573C93.3509 31.3192 93.5416 31.1306 93.7811 31.0329Z" fill="black"/>
<path d="M96.457 32.155C96.612 32.0463 96.7902 31.9752 96.9776 31.9472C97.1651 31.9192 97.3565 31.9352 97.5368 31.9939C97.7171 32.0526 97.8812 32.1523 98.0163 32.2853C98.1514 32.4182 98.2536 32.5806 98.3149 32.7597C98.3835 33.2301 98.3265 33.7101 98.1497 34.1512C98.027 34.6072 97.7887 35.0238 97.458 35.3611C97.3116 35.4868 97.1326 35.5686 96.9415 35.5971C96.7505 35.6256 96.5552 35.5996 96.3781 35.5222C96.1906 35.478 96.0189 35.3831 95.8816 35.2481C95.7444 35.113 95.6469 34.9429 95.6 34.7564C95.535 34.2891 95.5892 33.8131 95.7576 33.3726C95.8811 32.913 96.1221 32.4934 96.457 32.155ZM97.922 33.2725C97.9516 33.0907 97.9265 32.9042 97.8499 32.7365C97.7488 32.5769 97.595 32.4575 97.4152 32.399C97.2354 32.3404 97.0408 32.3464 96.8652 32.416C96.7027 32.5048 96.5708 32.6405 96.4867 32.8053C96.3693 33.0241 96.2738 33.254 96.2017 33.4916C96.1186 33.7307 96.0589 33.9773 96.0237 34.228C95.9958 34.4108 96.0225 34.5977 96.1004 34.7655C96.2015 34.9251 96.3553 35.0445 96.5351 35.103C96.7149 35.1616 96.9095 35.1556 97.0852 35.086C97.2458 34.9956 97.3759 34.8596 97.459 34.6952C97.578 34.4718 97.675 34.2373 97.7485 33.995C97.8301 33.7605 97.8882 33.5185 97.922 33.2725Z" fill="black"/>
<path d="M73.8983 84.8131L73.7851 85.1606L72.3313 84.6874L71.9663 85.8089L73.1461 86.1929L73.0299 86.5498L71.8501 86.1658L71.3629 87.6626L70.9309 87.522L72.0139 84.1946L73.8983 84.8131Z" fill="black"/>
<path d="M76.504 86.4504L75.6533 89.0641L75.2167 88.922L75.3419 88.5374C75.214 88.6444 75.0581 88.7128 74.8925 88.7345C74.7247 88.763 74.5525 88.7508 74.3903 88.6992C74.1969 88.6401 74.0214 88.5336 73.8798 88.3895C73.7441 88.2507 73.653 88.0747 73.6179 87.884C73.5808 87.6618 73.6019 87.4338 73.6792 87.2223L74.1769 85.693L74.6089 85.8336L74.1247 87.3212C74.0412 87.5322 74.0419 87.7672 74.1267 87.9779C74.1729 88.071 74.2383 88.1532 74.3187 88.2191C74.3991 88.2851 74.4926 88.3332 74.593 88.3603C74.6933 88.3988 74.8006 88.4158 74.9078 88.41C75.015 88.4043 75.1197 88.376 75.2152 88.327C75.4174 88.1995 75.5621 87.9985 75.6185 87.7664L76.0861 86.3298L76.504 86.4504Z" fill="black"/>
<path d="M77.9872 85.9184L76.8378 89.4497L76.4058 89.3091L77.5552 85.7778L77.9872 85.9184Z" fill="black"/>
<path d="M79.167 86.3024L78.0176 89.8337L77.581 89.6916L78.7303 86.1603L79.167 86.3024Z" fill="black"/>
<path d="M82.8634 88.7868C82.9318 88.931 82.9695 89.0878 82.9742 89.2472C82.9789 89.4066 82.9505 89.5653 82.8907 89.7131L82.3885 91.2563L81.9565 91.1157L82.4376 89.6374C82.5224 89.4251 82.5222 89.1884 82.4371 88.976C82.391 88.883 82.3256 88.8007 82.2452 88.7348C82.1648 88.6688 82.0713 88.6207 81.9708 88.5936C81.8713 88.5554 81.7647 88.5387 81.6583 88.5447C81.5518 88.5507 81.4479 88.5793 81.3533 88.6284C81.2516 88.6899 81.1631 88.7711 81.0931 88.867C81.023 88.963 80.9728 89.0719 80.9453 89.1875L80.4747 90.6334L80.0381 90.4913L80.8888 87.8776L81.3254 88.0197L81.2048 88.3904C81.3354 88.2852 81.4924 88.2175 81.6589 88.1948C81.8348 88.171 82.0139 88.1873 82.1828 88.2424C82.3273 88.2823 82.4621 88.3511 82.5792 88.4447C82.6962 88.5383 82.7929 88.6547 82.8634 88.7868Z" fill="black"/>
<path d="M83.743 89.4625C83.9141 89.3022 84.1276 89.1938 84.3583 89.1503C84.5878 89.1009 84.8266 89.1149 85.049 89.1906C85.26 89.2538 85.4503 89.3724 85.5999 89.5339C85.7292 89.6732 85.8171 89.8456 85.854 90.0317L86.0048 89.5683L86.4461 89.7119L85.5954 92.3256L85.1541 92.182L85.3049 91.7186C85.1616 91.8481 84.9855 91.9361 84.7957 91.9731C84.5813 92.0178 84.3587 92.0038 84.1514 91.9325C83.9266 91.8633 83.726 91.7316 83.5731 91.553C83.4203 91.3744 83.3214 91.1562 83.288 90.9237C83.2554 90.6729 83.2791 90.418 83.3573 90.1775C83.4356 89.9371 83.5665 89.7171 83.7405 89.5335L83.743 89.4625ZM85.6166 90.2876C85.5884 90.1237 85.5156 89.9705 85.4062 89.845C85.2871 89.7236 85.1405 89.6327 84.9787 89.5801C84.817 89.5274 84.6449 89.5146 84.4772 89.5426C84.3148 89.5797 84.1659 89.6606 84.0466 89.7766C83.9111 89.9075 83.8118 90.0711 83.7584 90.2517C83.6948 90.4322 83.6777 90.6258 83.7087 90.8147C83.7369 90.9786 83.8097 91.1318 83.9191 91.2573C84.033 91.385 84.1811 91.4777 84.3459 91.5243C84.5071 91.5813 84.6807 91.5935 84.8481 91.5597C85.0105 91.5226 85.1595 91.4416 85.2787 91.3257C85.4143 91.1928 85.5139 91.0277 85.5684 90.8459C85.6363 90.6719 85.6588 90.4835 85.6337 90.2983L85.6166 90.2876Z" fill="black"/>
<path d="M90.8716 91.2344C91.0078 91.37 91.0983 91.5445 91.1304 91.7337C91.1651 91.956 91.144 92.1834 91.0691 92.3954L90.5668 93.9386L90.1348 93.798L90.616 92.3197C90.7007 92.1075 90.7005 91.8708 90.6155 91.6584C90.5165 91.4755 90.3508 91.3375 90.1527 91.273C89.9547 91.2086 89.7395 91.2226 89.5518 91.3122C89.3518 91.4424 89.2066 91.6413 89.1438 91.8713L88.6747 93.3125L88.2474 93.1735L88.7285 91.6951C88.8132 91.4829 88.8131 91.2462 88.728 91.0338C88.6828 90.9421 88.6187 90.8609 88.54 90.7955C88.4612 90.7302 88.3696 90.6821 88.271 90.6544C88.1725 90.616 88.0667 90.5998 87.9613 90.6071C87.8558 90.6145 87.7534 90.6451 87.6613 90.6969C87.4613 90.8271 87.3161 91.026 87.2533 91.256L86.7842 92.6972L86.3197 92.546L87.1704 89.9323L87.607 90.0745L87.4849 90.4498C87.613 90.3413 87.7693 90.2714 87.9358 90.2481C88.1034 90.2212 88.2752 90.2349 88.4365 90.288C88.6517 90.3466 88.8466 90.4632 88.9997 90.6251C88.9738 90.6759 88.9592 90.7318 88.9569 90.7888C88.9547 90.8459 88.9648 90.9027 88.9867 90.9555C89.0086 91.0083 89.0417 91.0557 89.0837 91.0945C89.1257 91.1333 89.1756 91.1625 89.23 91.1802C89.2844 91.1979 89.342 91.2037 89.3988 91.197C89.4556 91.1904 89.5102 91.1715 89.559 91.1418C89.6077 91.112 89.6494 91.072 89.6812 91.0246C89.7129 90.9771 89.734 90.9234 89.7429 90.867C89.9474 90.8219 90.1604 90.8328 90.3594 90.8985C90.5574 90.9621 90.7345 91.0782 90.8716 91.2344Z" fill="black"/>
<path d="M94.0191 93.7964L91.9196 93.1131C91.8848 93.2266 91.8729 93.346 91.8847 93.4642C91.8965 93.5824 91.9317 93.6971 91.9882 93.8017C92.1009 93.9986 92.2851 94.1448 92.5026 94.21C92.6657 94.2673 92.8421 94.2747 93.0094 94.2314C93.1622 94.1878 93.2959 94.0941 93.3888 93.9654L93.8532 94.1166C93.7065 94.3426 93.4865 94.5116 93.2299 94.5954C92.9484 94.6833 92.6456 94.6766 92.368 94.5762C92.1348 94.5037 91.9246 94.3717 91.7581 94.1932C91.5972 94.0222 91.4884 93.809 91.4444 93.5786C91.4003 93.3211 91.4227 93.0567 91.5095 92.8105C91.5857 92.5616 91.7212 92.3349 91.9044 92.1497C92.0755 91.9893 92.2889 91.881 92.5197 91.8375C92.7612 91.7975 93.0088 91.8162 93.2417 91.892C93.4745 91.9678 93.6858 92.0984 93.8574 92.2729C94.0114 92.4428 94.1123 92.6537 94.1479 92.8799C94.1892 93.1109 94.172 93.3484 94.0977 93.5709C94.0781 93.6482 94.0518 93.7237 94.0191 93.7964ZM93.7259 92.8348C93.6918 92.6958 93.6191 92.5691 93.5161 92.4693C93.4061 92.3616 93.2713 92.2825 93.1236 92.239C92.9181 92.1661 92.6924 92.1753 92.4937 92.2646C92.2838 92.3664 92.1211 92.5445 92.0388 92.7624L93.6971 93.3021C93.7607 93.1434 93.7744 92.9692 93.7365 92.8024L93.7259 92.8348Z" fill="black"/>
<path d="M61.162 119.004L62.3325 119.385L62.2164 119.742L60.6139 119.22L61.6984 115.888L62.1304 116.029L61.162 119.004Z" fill="black"/>
<path d="M63.1955 119.922C63.0345 119.751 62.9257 119.538 62.8818 119.307C62.8421 119.05 62.8634 118.788 62.9438 118.541C63.0242 118.294 63.1616 118.069 63.3449 117.885C63.518 117.727 63.7306 117.619 63.9602 117.572C64.2031 117.529 64.4533 117.548 64.6865 117.629C64.924 117.702 65.1392 117.834 65.3119 118.012C65.4698 118.185 65.5782 118.398 65.6255 118.627C65.6762 118.883 65.6575 119.148 65.5713 119.394C65.4949 119.645 65.3521 119.871 65.1578 120.048C64.9846 120.206 64.7721 120.314 64.5425 120.36C64.2962 120.405 64.0424 120.386 63.8054 120.305C63.5725 120.232 63.3624 120.1 63.1955 119.922ZM64.4112 119.959C64.5757 119.927 64.7284 119.851 64.8527 119.739C64.9938 119.602 65.0972 119.431 65.1531 119.242C65.2189 119.058 65.2355 118.86 65.2012 118.668C65.1733 118.505 65.0974 118.354 64.9831 118.233C64.8719 118.118 64.7341 118.032 64.5819 117.983C64.4296 117.933 64.2675 117.922 64.1098 117.949C63.9491 117.983 63.801 118.061 63.6823 118.174C63.5462 118.312 63.4467 118.483 63.3927 118.669C63.3256 118.855 63.3049 119.054 63.3323 119.249C63.3572 119.408 63.4288 119.556 63.5379 119.675C63.6472 119.789 63.784 119.875 63.9352 119.922C64.0887 119.972 64.2519 119.985 64.4112 119.959Z" fill="black"/>
<path d="M66.4057 118.866C66.5768 118.705 66.7903 118.597 67.021 118.553C67.2869 118.507 67.5603 118.533 67.8131 118.628C68.0658 118.723 68.2886 118.883 68.4584 119.093C68.6194 119.321 68.6913 119.599 68.6607 119.876L68.1962 119.725C68.2089 119.56 68.1597 119.396 68.0582 119.265C67.9528 119.126 67.806 119.025 67.639 118.975C67.5272 118.933 67.4077 118.917 67.2889 118.927C67.1701 118.937 67.0551 118.973 66.9522 119.033C66.7316 119.196 66.5675 119.424 66.4826 119.685C66.3977 119.946 66.3963 120.227 66.4785 120.488C66.5259 120.598 66.597 120.696 66.6868 120.775C66.7767 120.854 66.8829 120.912 66.9979 120.944C67.1624 120.998 67.3386 121.004 67.5062 120.961C67.6663 120.91 67.8029 120.804 67.8915 120.661L68.356 120.812C68.211 121.048 67.9896 121.228 67.7283 121.321C67.4454 121.412 67.1397 121.407 66.8602 121.305C66.626 121.234 66.4152 121.102 66.2503 120.921C66.0893 120.75 65.9805 120.537 65.9366 120.307C65.8935 120.048 65.9163 119.782 66.0032 119.534C66.0772 119.28 66.2159 119.05 66.4057 118.866Z" fill="black"/>
<path d="M69.3088 119.811C69.4769 119.65 69.686 119.539 69.9134 119.489C70.1407 119.439 70.3774 119.452 70.5978 119.528C70.8089 119.589 70.9998 119.706 71.1502 119.867C71.2765 120.008 71.364 120.179 71.4043 120.364L71.5551 119.901L71.9964 120.045L71.1442 122.663L70.7029 122.519L70.8613 122.033C70.7191 122.162 70.5431 122.249 70.3536 122.283C70.1393 122.33 69.916 122.315 69.7092 122.242C69.4852 122.174 69.2853 122.043 69.1333 121.865C68.9754 121.692 68.867 121.48 68.8197 121.25C68.7795 120.995 68.8029 120.733 68.8879 120.488C68.9685 120.23 69.1133 119.997 69.3088 119.811ZM71.1871 120.637C71.1571 120.472 71.0828 120.319 70.972 120.193C70.8596 120.074 70.719 119.985 70.5632 119.934C70.4073 119.883 70.2412 119.873 70.0802 119.903C69.9175 119.935 69.7681 120.015 69.6511 120.132C69.5156 120.263 69.4163 120.427 69.3629 120.607C69.2993 120.788 69.2822 120.981 69.3132 121.17C69.3414 121.334 69.4142 121.487 69.5236 121.613C69.6361 121.732 69.7767 121.821 69.9325 121.872C70.0884 121.922 70.2544 121.933 70.4155 121.903C70.5791 121.866 70.7295 121.786 70.8507 121.671C70.985 121.537 71.0831 121.371 71.1358 121.189C71.1979 121.012 71.2156 120.823 71.1871 120.637Z" fill="black"/>
<path d="M73.1529 120.8L72.6506 122.343C72.6296 122.39 72.6184 122.44 72.6178 122.491C72.6171 122.542 72.627 122.592 72.6467 122.639C72.7067 122.728 72.7993 122.79 72.9044 122.81L73.2249 122.915L73.1043 123.286L72.7095 123.157C72.5094 123.107 72.335 122.984 72.2203 122.813C72.1781 122.717 72.1561 122.613 72.1559 122.508C72.1556 122.403 72.1769 122.299 72.2186 122.203L72.7209 120.66L72.3772 120.548L72.4933 120.191L72.8371 120.303L73.0512 119.645L73.4832 119.785L73.269 120.443L73.9565 120.667L73.8403 121.024L73.1529 120.8Z" fill="black"/>
<path d="M74.6611 120.333C74.6249 120.258 74.6198 120.171 74.6469 120.092C74.6589 120.054 74.6785 120.018 74.7045 119.987C74.7305 119.955 74.7624 119.93 74.7984 119.911C74.8736 119.874 74.9606 119.867 75.0407 119.893C75.0782 119.905 75.1127 119.925 75.1422 119.951C75.1716 119.978 75.1953 120.01 75.2118 120.046C75.2299 120.082 75.2406 120.121 75.2433 120.162C75.246 120.202 75.2406 120.243 75.2275 120.281C75.2031 120.361 75.1481 120.428 75.0745 120.467C75.0401 120.486 75.0021 120.497 74.9631 120.5C74.924 120.503 74.8847 120.498 74.8477 120.486C74.7678 120.461 74.7008 120.406 74.6611 120.333ZM74.9179 120.98L74.0657 123.598L73.6291 123.456L74.4813 120.838L74.9179 120.98Z" fill="black"/>
<path d="M75.3233 123.869C75.1624 123.698 75.0536 123.485 75.0096 123.255C74.9623 122.997 74.9799 122.731 75.0611 122.482C75.1422 122.233 75.2841 122.008 75.4742 121.827C75.6453 121.667 75.8588 121.559 76.0895 121.515C76.3327 121.476 76.5818 121.495 76.8162 121.571C77.0505 121.647 77.2633 121.779 77.4366 121.954C77.5975 122.125 77.7063 122.338 77.7502 122.568C77.8009 122.824 77.7822 123.089 77.696 123.335C77.6197 123.586 77.4768 123.812 77.2825 123.989C77.1021 124.148 76.8811 124.254 76.644 124.294C76.4092 124.337 76.1673 124.321 75.9402 124.247C75.7131 124.173 75.508 124.044 75.3434 123.871L75.3233 123.869ZM76.539 123.906C76.7023 123.874 76.8535 123.797 76.9759 123.685C77.1206 123.55 77.226 123.379 77.2809 123.189C77.3467 123.006 77.3633 122.808 77.329 122.616C77.3012 122.452 77.2253 122.301 77.1109 122.181C76.9998 122.066 76.862 121.98 76.7097 121.93C76.5574 121.88 76.3953 121.869 76.2377 121.897C76.0752 121.925 75.9258 122.004 75.8101 122.121C75.6711 122.262 75.5704 122.435 75.5175 122.626C75.4516 122.812 75.4324 123.012 75.4618 123.207C75.4867 123.366 75.5582 123.514 75.6674 123.633C75.7748 123.75 75.9122 123.835 76.0647 123.88C76.2181 123.929 76.3813 123.938 76.539 123.906Z" fill="black"/>
<path d="M80.7014 123.129C80.7686 123.274 80.8052 123.432 80.8088 123.592C80.8125 123.752 80.7831 123.91 80.7225 124.058L80.2202 125.602L79.7929 125.463L80.2755 123.98C80.3612 123.767 80.3594 123.529 80.2704 123.317C80.2243 123.224 80.1588 123.141 80.0784 123.076C79.998 123.01 79.9045 122.961 79.8041 122.934C79.7045 122.896 79.598 122.879 79.4915 122.885C79.385 122.891 79.2811 122.92 79.1866 122.969C78.9866 123.099 78.8415 123.298 78.7786 123.528L78.3065 124.979L77.8792 124.84L78.7314 122.221L79.168 122.363L79.0473 122.734C79.178 122.629 79.335 122.561 79.5014 122.539C79.737 122.511 79.9756 122.552 80.1885 122.657C80.4014 122.762 80.5795 122.926 80.7014 123.129Z" fill="black"/>
<path d="M52.9415 150.211C52.7893 150.273 52.6262 150.305 52.4616 150.304C52.297 150.304 52.1341 150.27 51.9824 150.206L51.3414 149.998L50.8889 151.388L50.4522 151.246L51.5367 147.914L52.6144 148.264C52.9331 148.342 53.2094 148.541 53.3847 148.818C53.4479 148.938 53.4863 149.07 53.4977 149.206C53.5092 149.342 53.4933 149.478 53.4512 149.608C53.4091 149.737 53.3414 149.857 53.2523 149.96C53.1632 150.063 53.0544 150.147 52.9322 150.208L52.9415 150.211ZM52.6901 149.863C52.7715 149.824 52.843 149.767 52.8989 149.696C52.9548 149.626 52.9938 149.543 53.0128 149.455C53.1455 149.047 52.9765 148.762 52.5027 148.607L51.8617 148.399L51.456 149.645L52.097 149.854C52.2868 149.931 52.4984 149.934 52.6901 149.863Z" fill="black"/>
<path d="M55.8912 150.207C56.0257 150.345 56.114 150.52 56.1438 150.71C56.1793 150.932 56.1566 151.159 56.0779 151.37L55.5756 152.913L55.1482 152.774L55.6309 151.291C55.7141 151.078 55.7122 150.841 55.6258 150.628C55.5796 150.535 55.5142 150.453 55.4338 150.387C55.3534 150.321 55.2599 150.273 55.1595 150.246C55.0599 150.208 54.9533 150.191 54.8469 150.197C54.7404 150.203 54.6365 150.232 54.542 150.281C54.342 150.411 54.1968 150.61 54.134 150.84L53.6619 152.29L53.2252 152.148L54.3761 148.612L54.8127 148.754L54.3934 150.043C54.5259 149.938 54.6844 149.871 54.8521 149.849C55.0407 149.821 55.2331 149.838 55.4143 149.897C55.5956 149.956 55.7608 150.056 55.8972 150.189L55.8912 150.207Z" fill="black"/>
<path d="M56.8101 153.177C56.6491 153.006 56.5403 152.792 56.4964 152.562C56.4535 152.305 56.4732 152.042 56.5538 151.794C56.6344 151.546 56.7735 151.322 56.9595 151.139C57.1327 150.982 57.3452 150.874 57.5748 150.827C57.8188 150.785 58.0694 150.804 58.3049 150.88C58.5405 150.957 58.7538 151.09 58.9265 151.267C59.0844 151.44 59.1928 151.652 59.2401 151.882C59.2908 152.138 59.2721 152.402 59.1859 152.648C59.1096 152.9 58.9667 153.126 58.7724 153.303C58.6013 153.463 58.3879 153.572 58.1571 153.615C57.9108 153.66 57.657 153.641 57.42 153.56C57.1871 153.487 56.977 153.355 56.8101 153.177ZM58.0211 153.212C58.1863 153.182 58.3394 153.105 58.4627 152.992C58.6037 152.855 58.7072 152.684 58.7631 152.495C58.8288 152.311 58.8454 152.114 58.8111 151.921C58.7833 151.758 58.7074 151.607 58.593 151.487C58.4819 151.371 58.3441 151.285 58.1918 151.236C58.0395 151.186 57.8774 151.175 57.7198 151.202C57.5597 151.235 57.4127 151.314 57.2969 151.429C57.1554 151.563 57.0536 151.734 57.0026 151.922C56.9356 152.108 56.9149 152.307 56.9423 152.502C56.9673 152.662 57.0407 152.812 57.1525 152.929C57.2583 153.046 57.3942 153.131 57.5452 153.175C57.6977 153.23 57.8621 153.242 58.0211 153.212Z" fill="black"/>
<path d="M62.1835 152.435C62.2503 152.58 62.287 152.738 62.2915 152.898C62.2959 153.058 62.268 153.217 62.2093 153.366L61.707 154.909L61.275 154.768L61.7577 153.285C61.8424 153.073 61.8422 152.836 61.7572 152.624C61.7102 152.531 61.644 152.448 61.5628 152.382C61.4816 152.316 61.3874 152.267 61.2863 152.24C61.1867 152.202 61.0801 152.185 60.9737 152.191C60.8672 152.197 60.7633 152.226 60.6688 152.275C60.4688 152.405 60.3236 152.604 60.2608 152.834L59.7886 154.285L59.3567 154.144L60.2089 151.526L60.6409 151.666L60.5202 152.037C60.6508 151.932 60.8079 151.864 60.9743 151.841C61.1519 151.817 61.3326 151.834 61.5028 151.89C61.6473 151.93 61.7822 151.999 61.8992 152.093C62.0162 152.186 62.113 152.303 62.1835 152.435Z" fill="black"/>
<path d="M65.1746 154.766L63.075 154.083C63.0073 154.314 63.0313 154.562 63.1422 154.776C63.2581 154.972 63.4441 155.117 63.6627 155.182C63.8258 155.239 64.0023 155.246 64.1695 155.203C64.3223 155.159 64.456 155.066 64.5489 154.937L65.0134 155.088C64.8672 155.313 64.6492 155.482 64.3947 155.568C64.1132 155.656 63.8104 155.65 63.5328 155.549C63.2971 155.479 63.0848 155.346 62.9182 155.165C62.7573 154.994 62.6485 154.781 62.6046 154.55C62.5604 154.293 62.5828 154.028 62.6696 153.782C62.7448 153.534 62.8799 153.309 63.063 153.126C63.2341 152.966 63.4475 152.857 63.6783 152.814C63.9228 152.767 64.1756 152.785 64.4108 152.868C64.6428 152.939 64.8517 153.071 65.016 153.249C65.1813 153.417 65.2908 153.632 65.3297 153.864C65.3732 154.174 65.3275 154.489 65.1978 154.774L65.1746 154.766ZM64.8799 153.81C64.848 153.669 64.7757 153.54 64.6716 153.439C64.5616 153.332 64.4268 153.253 64.2791 153.209C64.0735 153.136 63.8478 153.145 63.6491 153.235C63.4393 153.336 63.2766 153.515 63.1943 153.732L64.8526 154.272C64.9064 154.124 64.9159 153.963 64.8799 153.81Z" fill="black"/>
<path d="M69.4945 154.814C69.5614 154.96 69.5981 155.117 69.6025 155.277C69.6069 155.437 69.579 155.596 69.5203 155.745L69.018 157.288L68.5861 157.148L69.0687 155.665C69.1534 155.453 69.1533 155.216 69.0682 155.004C68.9642 154.82 68.7947 154.681 68.5935 154.616C68.3922 154.55 68.1738 154.562 67.9813 154.65C67.7813 154.78 67.6361 154.979 67.5733 155.209L67.1012 156.659L66.6692 156.519L67.5214 153.9L67.9534 154.041L67.8327 154.412C67.9634 154.307 68.1204 154.239 68.2868 154.216C68.4642 154.194 68.6444 154.212 68.8139 154.27C68.9579 154.311 69.0923 154.38 69.2092 154.474C69.3261 154.567 69.4231 154.683 69.4945 154.814Z" fill="black"/>
<path d="M72.908 155.659L72.0558 158.277L71.6192 158.135L71.7459 157.746C71.6195 157.855 71.4647 157.925 71.2996 157.949C71.122 157.973 70.9412 157.956 70.771 157.9C70.5785 157.841 70.4029 157.736 70.259 157.595C70.1233 157.456 70.0322 157.28 69.9971 157.09C69.9624 156.867 69.9835 156.64 70.0584 156.428L70.5577 154.894L70.9896 155.034L70.51 156.508C70.4253 156.72 70.4254 156.957 70.5105 157.17C70.6162 157.352 70.7856 157.489 70.9863 157.554C71.1869 157.62 71.4046 157.609 71.5974 157.523C71.7997 157.396 71.9443 157.195 72.0008 156.963L72.4684 155.526L72.908 155.659Z" fill="black"/>
<path d="M77.323 157.183C77.4575 157.32 77.5458 157.496 77.5756 157.685C77.6126 157.908 77.5915 158.136 77.5143 158.347L77.012 159.89L76.58 159.75L77.0627 158.267C77.1466 158.055 77.1481 157.82 77.0668 157.607C77.0224 157.515 76.9586 157.433 76.8797 157.368C76.8009 157.302 76.7088 157.254 76.6098 157.228C76.5105 157.19 76.4041 157.174 76.2981 157.181C76.1921 157.188 76.0888 157.218 75.9955 157.269C75.7932 157.396 75.6486 157.597 75.5921 157.829L75.1215 159.275L74.6895 159.134L75.1722 157.652C75.2569 157.439 75.2568 157.203 75.1717 156.99C75.1282 156.898 75.0651 156.817 74.987 156.752C74.9089 156.686 74.8176 156.639 74.7194 156.612C74.62 156.575 74.5136 156.559 74.4076 156.566C74.3016 156.573 74.1983 156.603 74.105 156.653C73.9027 156.781 73.7581 156.982 73.7016 157.214L73.231 158.66L72.7944 158.518L73.6466 155.899L74.0833 156.041L73.9611 156.417C74.0892 156.308 74.2456 156.238 74.412 156.215C74.5797 156.188 74.7514 156.202 74.9127 156.255C75.1194 156.317 75.3051 156.434 75.4497 156.594C75.5851 156.75 75.6672 156.946 75.6842 157.152C75.813 156.994 75.9918 156.884 76.1914 156.84C76.3941 156.794 76.6058 156.804 76.8032 156.87C76.9998 156.93 77.1784 157.037 77.323 157.183Z" fill="black"/>
<path d="M79.3732 157.876C79.5859 157.833 79.8064 157.848 80.0114 157.92C80.2349 157.991 80.4357 158.119 80.5931 158.293C80.7504 158.467 80.8588 158.679 80.9071 158.908C80.9478 159.162 80.9249 159.422 80.8404 159.665C80.7652 159.913 80.6301 160.138 80.4471 160.322C80.2739 160.479 80.0613 160.587 79.8318 160.634C79.6037 160.683 79.3664 160.672 79.1442 160.6C78.9332 160.537 78.7429 160.418 78.5933 160.256C78.4645 160.113 78.3744 159.939 78.3315 159.751L78.1731 160.237L77.7411 160.097L78.892 156.561L79.3239 156.702L78.8714 158.092C79.0192 157.981 79.1911 157.907 79.3732 157.876ZM80.4196 158.97C80.3941 158.806 80.3203 158.654 80.2077 158.532C80.0923 158.406 79.9447 158.314 79.7809 158.265C79.6202 158.206 79.446 158.193 79.2787 158.23C79.1145 158.264 78.9635 158.345 78.8434 158.462C78.7091 158.595 78.6085 158.758 78.55 158.938C78.4915 159.118 78.4768 159.309 78.5071 159.495C78.5353 159.661 78.6099 159.815 78.7221 159.94C78.836 160.067 78.9841 160.16 79.1489 160.207C79.3101 160.264 79.4837 160.276 79.6511 160.242C79.8135 160.205 79.9624 160.124 80.0817 160.008C80.218 159.873 80.3181 159.707 80.3729 159.524C80.4361 159.346 80.4521 159.155 80.4196 158.97Z" fill="black"/>
<path d="M83.7172 160.802L81.6177 160.118C81.5499 160.349 81.5739 160.598 81.6848 160.812C81.8007 161.008 81.9867 161.152 82.2053 161.217C82.3684 161.274 82.5449 161.282 82.7121 161.238C82.8602 161.188 82.9876 161.091 83.0744 160.962L83.5389 161.113C83.3927 161.338 83.1748 161.507 82.9202 161.593C82.6387 161.681 82.3359 161.674 82.0583 161.574C81.8226 161.503 81.6103 161.37 81.4437 161.189C81.2828 161.018 81.174 160.805 81.1301 160.575C81.086 160.317 81.1084 160.053 81.1951 159.807C81.2704 159.559 81.4054 159.334 81.5885 159.15C81.7596 158.99 81.9731 158.882 82.2038 158.838C82.4484 158.791 82.7011 158.81 82.9363 158.892C83.1683 158.963 83.3772 159.095 83.5416 159.274C83.697 159.443 83.7982 159.654 83.832 159.881C83.8755 160.191 83.8298 160.506 83.7001 160.791L83.7172 160.802ZM83.4364 159.849C83.4046 159.708 83.3322 159.58 83.2281 159.479C83.1198 159.372 82.9865 159.293 82.8402 159.25C82.6333 159.177 82.4062 159.186 82.2057 159.274C81.9958 159.376 81.8331 159.554 81.7509 159.772L83.4091 160.312C83.4629 160.164 83.4724 160.003 83.4364 159.849Z" fill="black"/>
<path d="M85.5228 159.847C85.7103 159.811 85.904 159.826 86.0837 159.891L85.9329 160.354L85.8168 160.317C85.329 160.158 84.9969 160.342 84.8249 160.87L84.3604 162.298L83.9284 162.157L84.7806 159.539L85.2126 159.679L85.0829 160.078C85.2038 159.96 85.3567 159.879 85.5228 159.847Z" fill="black"/>
<path d="M52.1807 184.43C52.1597 184.394 52.1472 184.353 52.1439 184.311C52.1406 184.269 52.1468 184.227 52.1618 184.188C52.1879 184.11 52.2441 184.045 52.3179 184.008C52.3543 183.99 52.3939 183.98 52.4344 183.977C52.475 183.974 52.5156 183.98 52.5541 183.993C52.5923 184.005 52.6277 184.024 52.6582 184.05C52.6887 184.075 52.7135 184.107 52.7313 184.143C52.7494 184.179 52.7601 184.219 52.7628 184.259C52.7655 184.3 52.7601 184.34 52.747 184.379C52.736 184.419 52.7166 184.456 52.6903 184.488C52.6639 184.52 52.6312 184.546 52.5941 184.565C52.5587 184.583 52.5199 184.594 52.4801 184.597C52.4403 184.6 52.4003 184.595 52.3625 184.581C52.3237 184.569 52.2877 184.55 52.2564 184.524C52.2252 184.498 52.1995 184.466 52.1807 184.43ZM52.4328 185.076L51.5806 187.694L51.1486 187.554L52.0008 184.935L52.4328 185.076Z" fill="black"/>
<path d="M54.4553 186.39C54.6264 186.23 54.8399 186.121 55.0706 186.078C55.3001 186.029 55.5389 186.042 55.7613 186.118C55.9723 186.181 56.1626 186.3 56.3122 186.462C56.4402 186.6 56.5285 186.77 56.5678 186.955L56.7186 186.491L57.1599 186.635L56.3077 189.253L55.8664 189.11L56.0248 188.623C55.8795 188.75 55.7042 188.837 55.5156 188.878C55.2933 188.917 55.0646 188.899 54.8512 188.825C54.6378 188.751 54.4469 188.624 54.2968 188.455C54.1359 188.284 54.0271 188.071 53.9832 187.841C53.9506 187.59 53.9743 187.335 54.0526 187.095C54.1308 186.854 54.2617 186.634 54.4357 186.45L54.4553 186.39ZM56.3289 187.215C56.3008 187.048 56.2265 186.893 56.1145 186.766C56.0024 186.639 55.857 186.545 55.6947 186.496C55.5332 186.441 55.3601 186.429 55.1925 186.461C55.031 186.497 54.8825 186.576 54.7634 186.69C54.6307 186.826 54.5311 186.99 54.4725 187.17C54.4139 187.35 54.3978 187.541 54.4255 187.728C54.4802 187.977 54.6297 188.194 54.8422 188.334C55.0547 188.474 55.3135 188.526 55.5634 188.478C55.7266 188.439 55.876 188.357 55.9955 188.239C56.1279 188.105 56.2272 187.942 56.2856 187.762C56.344 187.583 56.3598 187.393 56.3319 187.206L56.3289 187.215Z" fill="black"/>
<path d="M59.6209 187.533C59.7518 187.671 59.8419 187.842 59.8811 188.028L60.0319 187.565L60.4964 187.716L59.6261 190.39C59.5592 190.614 59.4346 190.818 59.2647 190.979C59.1061 191.133 58.9045 191.236 58.6863 191.273C58.4468 191.316 58.2001 191.296 57.9707 191.214C57.662 191.127 57.3887 190.945 57.1899 190.694C57.1015 190.582 57.0385 190.453 57.0054 190.314C56.9723 190.176 56.9699 190.032 56.9983 189.893L57.4303 190.034C57.4236 190.21 57.4852 190.383 57.6024 190.515C57.7304 190.669 57.9011 190.782 58.0929 190.839C58.1995 190.878 58.313 190.896 58.4264 190.889C58.5399 190.883 58.6507 190.853 58.7521 190.802C58.8589 190.745 58.9524 190.665 59.0269 190.57C59.1014 190.474 59.1552 190.364 59.1848 190.246L59.3673 189.685C59.2239 189.812 59.0502 189.901 58.8628 189.941C58.6485 189.988 58.4253 189.974 58.2185 189.901C57.9966 189.827 57.7979 189.697 57.6419 189.523C57.4859 189.349 57.378 189.137 57.3289 188.909C57.2963 188.658 57.32 188.403 57.3983 188.163C57.4765 187.923 57.6074 187.703 57.7814 187.519C57.9525 187.358 58.166 187.25 58.3967 187.207C58.6245 187.156 58.8619 187.17 59.0827 187.245C59.2838 187.294 59.4691 187.393 59.6209 187.533ZM59.6639 188.301C59.6347 188.137 59.5616 187.984 59.4524 187.858C59.3432 187.733 59.202 187.639 59.0437 187.586C58.8822 187.531 58.709 187.519 58.5415 187.551C58.38 187.587 58.2315 187.666 58.1124 187.78C57.9796 187.916 57.8801 188.08 57.8215 188.26C57.7629 188.44 57.7468 188.631 57.7745 188.818C57.8021 188.984 57.8744 189.138 57.9834 189.266C58.0958 189.385 58.2364 189.474 58.3923 189.525C58.5481 189.575 58.7142 189.586 58.8752 189.556C59.0402 189.519 59.1915 189.437 59.312 189.319C59.4402 189.182 59.5368 189.018 59.5949 188.839C59.653 188.661 59.6712 188.472 59.6483 188.285L59.6639 188.301Z" fill="black"/>
<path d="M62.0501 188.293C62.2376 188.257 62.4314 188.273 62.6111 188.337L62.4602 188.801L62.3441 188.763C61.8564 188.604 61.5242 188.788 61.3523 189.317L60.8892 190.739L60.4572 190.599L61.3095 187.98L61.7414 188.121L61.6027 188.547C61.7226 188.419 61.8786 188.331 62.0501 188.293Z" fill="black"/>
<path d="M65.0937 190.827L62.9941 190.143C62.9605 190.255 62.9492 190.372 62.9609 190.488C62.9727 190.604 63.0071 190.716 63.0624 190.819C63.1177 190.922 63.1928 191.013 63.2832 191.086C63.3737 191.16 63.4778 191.216 63.5896 191.249C63.7527 191.307 63.9291 191.314 64.0963 191.271C64.2496 191.226 64.3843 191.133 64.4804 191.006L64.9449 191.157C64.7955 191.379 64.577 191.546 64.3231 191.631C64.0415 191.719 63.7387 191.713 63.4612 191.612C63.2254 191.542 63.0131 191.409 62.8466 191.228C62.6857 191.057 62.5769 190.844 62.5329 190.613C62.4892 190.356 62.5116 190.091 62.598 189.845C62.6698 189.594 62.8059 189.367 62.9929 189.184C63.164 189.024 63.3774 188.916 63.6082 188.872C63.8528 188.829 64.1043 188.85 64.3391 188.931C64.571 189.001 64.7803 189.131 64.9459 189.308C65.1014 189.476 65.2025 189.688 65.2364 189.915C65.2795 190.147 65.2617 190.387 65.1846 190.61C65.1715 190.688 65.1404 190.762 65.0937 190.827ZM64.8005 189.865C64.7671 189.725 64.6949 189.596 64.5922 189.495C64.4825 189.389 64.3496 189.311 64.2043 189.266C63.998 189.193 63.771 189.203 63.5729 189.296C63.4677 189.344 63.3731 189.412 63.2945 189.496C63.2159 189.581 63.1549 189.68 63.1149 189.788L64.7825 190.331C64.8316 190.18 64.8379 190.019 64.8005 189.865Z" fill="black"/>
<path d="M68.1594 191.824L66.0598 191.141C65.9917 191.371 66.0164 191.618 66.1285 191.83C66.2427 192.025 66.4263 192.171 66.6429 192.238C66.806 192.295 66.9824 192.303 67.1496 192.259C67.3011 192.213 67.4338 192.12 67.529 191.993L67.9935 192.144C67.8475 192.368 67.63 192.536 67.3764 192.62C67.0931 192.708 66.7888 192.7 66.5098 192.599C66.2766 192.527 66.0664 192.395 65.8999 192.216C65.7389 192.045 65.6301 191.832 65.5862 191.602C65.5425 191.344 65.5649 191.08 65.6513 190.834C65.7275 190.585 65.863 190.358 66.0461 190.173C66.2173 190.013 66.4307 189.904 66.6615 189.861C66.9043 189.817 67.1546 189.837 67.3878 189.918C67.6211 189.988 67.8319 190.119 67.9992 190.296C68.1546 190.465 68.2558 190.676 68.2896 190.903C68.3324 191.136 68.3146 191.375 68.2379 191.599C68.2184 191.676 68.1921 191.752 68.1594 191.824ZM67.8662 190.863C67.8328 190.722 67.7606 190.594 67.6579 190.493C67.5451 190.389 67.4112 190.31 67.2654 190.262C67.0587 190.191 66.8326 190.202 66.6339 190.293C66.4255 190.393 66.2635 190.57 66.1806 190.786L67.8389 191.325C67.8903 191.177 67.8998 191.017 67.8662 190.863Z" fill="black"/>
<path d="M71.1102 191.55L70.6079 193.093C70.5868 193.14 70.5755 193.191 70.5746 193.243C70.5737 193.294 70.5831 193.345 70.6025 193.393C70.6642 193.48 70.7561 193.541 70.8602 193.564L71.1807 193.669L71.0615 194.035L70.6667 193.906C70.4667 193.856 70.2923 193.734 70.1776 193.563C70.1329 193.467 70.1092 193.363 70.1082 193.257C70.1071 193.152 70.1286 193.047 70.1713 192.951L70.6735 191.407L70.3345 191.297L70.4506 190.94L70.7897 191.051L71.0039 190.393L71.4405 190.535L71.2263 191.193L71.9138 191.416L71.7976 191.773L71.1102 191.55Z" fill="black"/>
<path d="M72.1984 194.267C72.0375 194.096 71.9287 193.882 71.8847 193.652C71.8453 193.394 71.8667 193.131 71.9474 192.883C72.0281 192.635 72.1657 192.41 72.3493 192.225C72.5204 192.064 72.7339 191.956 72.9646 191.912C73.2078 191.873 73.4569 191.892 73.6913 191.968C73.9256 192.045 74.1384 192.176 74.3117 192.351C74.4726 192.522 74.5814 192.735 74.6253 192.965C74.675 193.223 74.6557 193.489 74.5695 193.736C74.4932 193.988 74.3504 194.214 74.1561 194.391C73.9747 194.548 73.7541 194.654 73.5175 194.696C73.2729 194.74 73.0208 194.722 72.7851 194.642C72.5617 194.567 72.3602 194.438 72.1984 194.267ZM73.4141 194.303C73.5786 194.274 73.7306 194.197 73.851 194.082C73.9952 193.949 74.1002 193.779 74.1545 193.591C74.2203 193.406 74.2374 193.207 74.2041 193.013C74.1728 192.851 74.0974 192.7 73.986 192.578C73.8749 192.463 73.7371 192.377 73.5848 192.327C73.4325 192.277 73.2704 192.266 73.1128 192.294C72.952 192.327 72.804 192.405 72.6852 192.518C72.5501 192.66 72.4486 192.83 72.3881 193.016C72.3275 193.202 72.3095 193.4 72.3352 193.594C72.358 193.754 72.4292 193.904 72.5394 194.024C72.6498 194.137 72.7862 194.222 72.9366 194.271C73.0907 194.321 73.2548 194.332 73.4141 194.303Z" fill="black"/>
<path d="M77.483 193.624L76.9807 195.167C76.9596 195.214 76.9483 195.265 76.9474 195.317C76.9465 195.368 76.9559 195.42 76.9753 195.468C77.037 195.555 77.1289 195.615 77.233 195.639L77.5535 195.743L77.4344 196.109L77.0395 195.981C76.8395 195.931 76.6651 195.808 76.5504 195.637C76.5057 195.541 76.4821 195.437 76.481 195.331C76.4799 195.226 76.5014 195.121 76.5441 195.025L77.0463 193.482L76.7073 193.371L76.8234 193.014L77.1625 193.125L77.3767 192.467L77.8133 192.609L77.5991 193.267L78.2866 193.491L78.1704 193.848L77.483 193.624Z" fill="black"/>
<path d="M80.7181 194.369C80.8526 194.506 80.9409 194.682 80.9706 194.872C81.0054 195.094 80.9843 195.321 80.9094 195.533L80.4071 197.077L79.9751 196.936L80.4517 195.472C80.5365 195.259 80.5363 195.023 80.4512 194.81C80.348 194.625 80.1786 194.486 79.977 194.421C79.7755 194.355 79.5566 194.368 79.3643 194.457C79.1643 194.587 79.0191 194.786 78.9563 195.016L78.4857 196.461L78.0537 196.321L79.2046 192.785L79.6366 192.926L79.2157 194.219C79.3465 194.111 79.5059 194.043 79.6744 194.024C79.8586 194 80.0459 194.019 80.2216 194.08C80.4086 194.134 80.5792 194.233 80.7181 194.369Z" fill="black"/>
<path d="M83.9662 196.969L81.8527 196.281C81.8168 196.395 81.8044 196.514 81.8162 196.632C81.828 196.751 81.8638 196.866 81.9214 196.97C82.0356 197.165 82.2192 197.311 82.4358 197.378C82.5989 197.435 82.7753 197.443 82.9425 197.4C83.094 197.353 83.2267 197.26 83.3219 197.134L83.7864 197.285C83.641 197.51 83.4211 197.678 83.1646 197.759C82.8831 197.847 82.5803 197.84 82.3027 197.74C82.068 197.667 81.8562 197.534 81.6881 197.355C81.5272 197.184 81.4184 196.971 81.3745 196.741C81.3308 196.483 81.3532 196.219 81.4395 195.972C81.5113 195.722 81.6474 195.494 81.8344 195.312C82.0055 195.151 82.219 195.043 82.4497 194.999C82.6943 194.957 82.9458 194.977 83.1807 195.058C83.4127 195.128 83.6222 195.258 83.7875 195.435C83.9512 195.604 84.0605 195.818 84.1011 196.049C84.1423 196.282 84.1229 196.521 84.0447 196.744C84.0253 196.821 83.999 196.896 83.9662 196.969ZM83.6776 196.009C83.6425 195.868 83.5688 195.739 83.4647 195.637C83.355 195.532 83.2222 195.454 83.0768 195.409C82.8705 195.335 82.6435 195.346 82.4454 195.439C82.2349 195.537 82.0719 195.714 81.9921 195.932L83.6457 196.47C83.6987 196.322 83.7097 196.163 83.6776 196.009Z" fill="black"/>
<path d="M88.789 196.135L88.6744 196.487L87.7454 196.185L86.777 199.16L86.3404 199.018L87.3087 196.043L86.3797 195.74L86.4944 195.388L88.789 196.135Z" fill="black"/>
<path d="M91.0914 199.288L88.9919 198.605C88.9298 198.833 88.9585 199.075 89.0722 199.283C89.1859 199.49 89.3755 199.645 89.6013 199.715C89.7644 199.773 89.9408 199.78 90.108 199.737C90.2613 199.692 90.396 199.6 90.4921 199.472L90.9566 199.624C90.8083 199.847 90.5894 200.013 90.3348 200.098C90.0532 200.186 89.7504 200.179 89.4729 200.079C89.2371 200.008 89.0248 199.875 88.8583 199.694C88.6974 199.523 88.5886 199.31 88.5446 199.079C88.5009 198.822 88.5233 198.558 88.6097 198.311C88.6815 198.06 88.8176 197.833 89.0046 197.651C89.1757 197.49 89.3891 197.382 89.6199 197.338C89.8645 197.296 90.116 197.316 90.3508 197.397C90.5829 197.467 90.7923 197.597 90.9576 197.774C91.1131 197.943 91.2142 198.154 91.2481 198.381C91.2912 198.613 91.2734 198.853 91.1963 199.076C91.1566 199.145 91.1216 199.215 91.0914 199.288ZM90.7982 198.327C90.7664 198.186 90.694 198.057 90.5899 197.956C90.4802 197.851 90.3474 197.773 90.2021 197.728C89.9957 197.654 89.7688 197.665 89.5706 197.758C89.4655 197.806 89.3709 197.874 89.2923 197.958C89.2137 198.042 89.1527 198.141 89.1127 198.25L90.7942 198.797C90.8394 198.644 90.8408 198.481 90.7982 198.327Z" fill="black"/>
<path d="M92.9901 198.363C93.1776 198.328 93.3713 198.343 93.551 198.408L93.4002 198.871L93.2841 198.833C92.7963 198.675 92.4642 198.859 92.2922 199.387L91.8292 200.81L91.3925 200.668L92.2448 198.049L92.6814 198.191L92.5426 198.618C92.6626 198.49 92.8186 198.401 92.9901 198.363Z" fill="black"/>
<path d="M97.8115 199.933C97.9451 200.072 98.0346 200.247 98.0687 200.437C98.1034 200.659 98.0823 200.886 98.0074 201.098L97.5051 202.642L97.0731 202.501L97.5498 201.037C97.6345 200.824 97.6343 200.588 97.5493 200.375C97.5049 200.283 97.441 200.201 97.3622 200.136C97.2833 200.07 97.1912 200.023 97.0923 199.996C96.9936 199.958 96.8879 199.943 96.7826 199.95C96.6773 199.958 96.575 199.988 96.4825 200.038C96.2787 200.167 96.1322 200.369 96.073 200.602L95.6039 202.043L95.1766 201.904L95.6593 200.421C95.744 200.209 95.7438 199.972 95.6588 199.76C95.6144 199.668 95.5505 199.586 95.4717 199.521C95.3928 199.455 95.3007 199.407 95.2018 199.381C95.1031 199.343 94.9974 199.328 94.8921 199.335C94.7868 199.342 94.6845 199.372 94.5921 199.423C94.3882 199.552 94.2417 199.753 94.1826 199.987L93.7135 201.428L93.2768 201.286L94.129 198.668L94.5657 198.81L94.442 199.19C94.5701 199.081 94.7264 199.011 94.8929 198.988C95.0606 198.961 95.2323 198.975 95.3936 199.028C95.6002 199.09 95.786 199.207 95.9306 199.367C95.9046 199.418 95.89 199.473 95.8878 199.53C95.8855 199.587 95.8957 199.644 95.9176 199.697C95.9395 199.75 95.9726 199.797 96.0146 199.836C96.0566 199.875 96.1065 199.904 96.1609 199.922C96.2153 199.94 96.2729 199.945 96.3297 199.939C96.3864 199.932 96.4411 199.913 96.4899 199.883C96.5386 199.854 96.5803 199.814 96.6121 199.766C96.6438 199.719 96.6649 199.665 96.6738 199.609C96.8781 199.561 97.0918 199.572 97.2903 199.64C97.4866 199.691 97.6663 199.791 97.8115 199.933Z" fill="black"/>
<path d="M98.723 202.956C98.5948 202.846 98.4974 202.705 98.4402 202.546C98.3878 202.394 98.3822 202.23 98.4242 202.075L98.8887 202.226C98.875 202.291 98.8748 202.358 98.888 202.423C98.9013 202.488 98.9278 202.55 98.9658 202.605C99.0647 202.735 99.2039 202.829 99.3617 202.872C99.498 202.925 99.6483 202.93 99.788 202.888C99.8433 202.872 99.8937 202.842 99.9347 202.802C99.9756 202.761 100.006 202.711 100.023 202.656C100.042 202.604 100.046 202.548 100.033 202.494C100.021 202.439 99.9927 202.39 99.9522 202.352C99.8281 202.231 99.6899 202.126 99.5405 202.038C99.3951 201.946 99.257 201.843 99.1273 201.73C99.0224 201.638 98.9402 201.523 98.8869 201.395C98.815 201.255 98.7947 201.094 98.8293 200.941C98.872 200.807 98.9566 200.691 99.0707 200.609C99.1962 200.521 99.3429 200.468 99.4958 200.455C99.6762 200.44 99.8578 200.463 100.029 200.521C100.286 200.593 100.51 200.751 100.664 200.969C100.728 201.072 100.769 201.187 100.785 201.307C100.801 201.427 100.791 201.549 100.756 201.665L100.32 201.523C100.336 201.458 100.34 201.391 100.329 201.325C100.319 201.259 100.295 201.196 100.259 201.14C100.171 201.025 100.052 200.939 99.9156 200.89C99.7794 200.841 99.6322 200.832 99.4912 200.864C99.438 200.878 99.3894 200.906 99.35 200.944C99.3105 200.982 99.2816 201.03 99.2659 201.083C99.2528 201.121 99.2474 201.162 99.2501 201.202C99.2528 201.243 99.2635 201.282 99.2816 201.318C99.3208 201.398 99.3773 201.467 99.4469 201.521C99.5474 201.604 99.6527 201.681 99.7622 201.752C99.908 201.841 100.047 201.941 100.178 202.051C100.278 202.139 100.357 202.249 100.408 202.372C100.463 202.509 100.466 202.661 100.417 202.8C100.372 202.939 100.286 203.061 100.17 203.15C100.046 203.243 99.898 203.298 99.7435 203.309C99.5647 203.327 99.384 203.305 99.2148 203.244C99.0325 203.183 98.865 203.085 98.723 202.956Z" fill="black"/>
<path d="M104.844 205.03L104.558 204.425C104.36 204.537 104.139 204.607 103.911 204.629C103.463 204.663 103.019 204.518 102.676 204.227C102.528 204.096 102.423 203.924 102.376 203.733C102.328 203.542 102.339 203.341 102.408 203.156C102.475 202.932 102.616 202.738 102.808 202.605C103.022 202.462 103.272 202.384 103.529 202.378C103.474 202.248 103.436 202.111 103.415 201.972C103.408 201.852 103.422 201.732 103.459 201.617C103.503 201.483 103.582 201.364 103.689 201.272C103.803 201.18 103.941 201.124 104.086 201.109C104.254 201.087 104.424 201.105 104.583 201.163C104.746 201.208 104.894 201.296 105.014 201.416C105.116 201.515 105.184 201.645 105.207 201.786C105.231 201.93 105.216 202.077 105.165 202.213L104.729 202.071C104.752 202.017 104.763 201.959 104.762 201.9C104.76 201.842 104.747 201.784 104.721 201.731C104.665 201.629 104.572 201.553 104.462 201.518C104.406 201.496 104.347 201.486 104.287 201.488C104.227 201.489 104.169 201.503 104.114 201.528C104.065 201.55 104.021 201.582 103.985 201.623C103.95 201.664 103.924 201.712 103.909 201.764C103.878 201.862 103.874 201.967 103.898 202.067C103.932 202.212 103.985 202.352 104.055 202.483L104.725 203.803L104.857 203.697L105.359 203.26L105.823 203.412L105.213 203.961C105.119 204.044 105.021 204.124 104.92 204.199L105.428 205.195L104.844 205.03ZM103.861 204.249C104.037 204.225 104.206 204.163 104.356 204.067L103.696 202.765C103.236 202.79 102.952 202.969 102.842 203.307C102.811 203.394 102.8 203.487 102.809 203.578C102.818 203.67 102.848 203.758 102.895 203.837C102.997 204.013 103.164 204.141 103.36 204.194C103.52 204.251 103.692 204.27 103.861 204.249Z" fill="black"/>
<path d="M109.775 204.795C109.467 204.916 109.124 204.912 108.817 204.786L108.176 204.577L107.724 205.968L107.287 205.826L108.367 202.507L109.445 202.858C109.763 202.936 110.039 203.133 110.217 203.407C110.281 203.527 110.32 203.66 110.331 203.795C110.343 203.931 110.328 204.068 110.285 204.198C110.243 204.327 110.175 204.447 110.086 204.55C109.996 204.653 109.887 204.737 109.764 204.797L109.775 204.795ZM109.524 204.447C109.604 204.406 109.674 204.349 109.73 204.278C109.785 204.208 109.825 204.127 109.846 204.04C109.981 203.627 109.81 203.346 109.336 203.192L108.695 202.983L108.297 204.207L108.938 204.415C109.119 204.489 109.319 204.498 109.505 204.441L109.524 204.447Z" fill="black"/>
<path d="M111.746 204.468C111.934 204.433 112.128 204.448 112.307 204.512L112.156 204.976L112.04 204.938C111.576 204.787 111.22 204.963 111.048 205.492L110.585 206.914L110.153 206.774L111.006 204.155L111.438 204.296L111.299 204.722C111.421 204.597 111.576 204.509 111.746 204.468Z" fill="black"/>
<path d="M113.071 204.249C113.034 204.174 113.028 204.089 113.053 204.01C113.079 203.931 113.135 203.865 113.208 203.827C113.245 203.809 113.284 203.798 113.325 203.796C113.365 203.793 113.406 203.798 113.445 203.812C113.483 203.823 113.518 203.842 113.549 203.868C113.579 203.894 113.604 203.926 113.622 203.961C113.64 203.998 113.651 204.037 113.653 204.078C113.656 204.118 113.651 204.159 113.638 204.197C113.626 204.237 113.607 204.274 113.581 204.306C113.554 204.338 113.522 204.365 113.485 204.383C113.449 204.402 113.41 204.413 113.371 204.416C113.331 204.418 113.291 204.413 113.253 204.4C113.214 204.388 113.178 204.368 113.147 204.342C113.116 204.316 113.09 204.285 113.071 204.249ZM113.328 204.896L112.476 207.514L112.039 207.372L112.891 204.754L113.328 204.896Z" fill="black"/>
<path d="M114.419 207.701L115.952 205.75L116.417 205.901L114.538 208.186L114.032 208.021L113.853 205.067L114.317 205.218L114.419 207.701Z" fill="black"/>
<path d="M116.753 206.667C116.924 206.506 117.138 206.398 117.369 206.355C117.598 206.305 117.837 206.319 118.059 206.395C118.27 206.458 118.461 206.577 118.61 206.738C118.738 206.877 118.827 207.047 118.866 207.231L119.017 206.768L119.481 206.919L118.629 209.538L118.169 209.388L118.327 208.901C118.182 209.028 118.007 209.115 117.818 209.156C117.487 209.221 117.143 209.152 116.862 208.965C116.581 208.777 116.386 208.486 116.32 208.156L116.334 208.114C116.301 207.863 116.325 207.608 116.403 207.368C116.481 207.127 116.612 206.907 116.786 206.724L116.753 206.667ZM118.627 207.492C118.598 207.329 118.525 207.178 118.415 207.054C118.333 206.961 118.233 206.886 118.122 206.832C118.01 206.779 117.889 206.748 117.765 206.742C117.641 206.736 117.518 206.755 117.402 206.798C117.286 206.841 117.179 206.907 117.089 206.992C116.961 207.13 116.864 207.294 116.806 207.473C116.747 207.652 116.729 207.842 116.752 208.03C116.779 208.196 116.853 208.352 116.965 208.478C117.074 208.599 117.214 208.689 117.369 208.738C117.53 208.793 117.703 208.805 117.871 208.773C118.035 208.736 118.184 208.653 118.303 208.535C118.435 208.4 118.535 208.237 118.593 208.057C118.651 207.878 118.667 207.688 118.639 207.501L118.627 207.492Z" fill="black"/>
<path d="M120.084 207.751C120.255 207.59 120.468 207.482 120.699 207.439C120.937 207.391 121.183 207.408 121.413 207.486C121.701 207.568 121.955 207.741 122.136 207.978C122.296 208.208 122.367 208.488 122.337 208.766L121.873 208.615C121.885 208.449 121.836 208.284 121.736 208.15C121.605 207.987 121.421 207.875 121.216 207.831C121.011 207.788 120.798 207.817 120.612 207.912C120.394 208.078 120.233 208.306 120.148 208.566C120.064 208.826 120.06 209.105 120.138 209.368C120.187 209.476 120.258 209.573 120.348 209.652C120.438 209.731 120.543 209.789 120.657 209.824C120.822 209.877 120.998 209.883 121.166 209.84C121.324 209.789 121.46 209.685 121.549 209.545L122.014 209.696C121.868 209.932 121.645 210.109 121.383 210.198C121.1 210.29 120.794 210.284 120.515 210.182C120.283 210.111 120.074 209.979 119.91 209.801C119.749 209.63 119.64 209.416 119.596 209.186C119.561 208.928 119.584 208.666 119.665 208.419C119.745 208.172 119.88 207.946 120.061 207.759L120.084 207.751Z" fill="black"/>
<path d="M125.53 208.868L122.698 212.205L122.233 212.053L123.159 210.961L122.948 208.027L123.412 208.178L123.544 210.568L125.047 208.71L125.53 208.868Z" fill="black"/>
<path d="M129.08 211.079C128.771 211.199 128.428 211.195 128.122 211.069L127.481 210.861L127.028 212.251L126.592 212.109L127.672 208.791L128.749 209.141C129.067 209.22 129.343 209.416 129.521 209.69C129.584 209.811 129.623 209.943 129.634 210.078C129.646 210.214 129.63 210.351 129.588 210.48C129.546 210.61 129.478 210.729 129.389 210.832C129.3 210.935 129.191 211.02 129.069 211.08L129.08 211.079ZM128.828 210.73C128.908 210.689 128.978 210.632 129.034 210.562C129.09 210.491 129.13 210.41 129.151 210.323C129.285 209.91 129.115 209.629 128.641 209.475L128 209.266L127.602 210.49L128.243 210.698C128.428 210.779 128.636 210.79 128.828 210.73Z" fill="black"/>
<path d="M129.977 213.072C129.816 212.901 129.707 212.688 129.663 212.458C129.624 212.2 129.645 211.937 129.726 211.689C129.807 211.441 129.944 211.215 130.128 211.03C130.301 210.873 130.514 210.765 130.743 210.718C130.986 210.678 131.235 210.698 131.47 210.774C131.704 210.85 131.917 210.981 132.09 211.156C132.251 211.327 132.36 211.541 132.404 211.771C132.453 212.029 132.434 212.295 132.348 212.542C132.272 212.794 132.129 213.02 131.935 213.197C131.761 213.354 131.549 213.462 131.319 213.509C131.075 213.554 130.822 213.535 130.587 213.455C130.354 213.382 130.144 213.25 129.977 213.072ZM131.193 213.109C131.357 213.08 131.509 213.003 131.629 212.887C131.774 212.755 131.879 212.585 131.933 212.397C131.999 212.211 132.016 212.012 131.983 211.818C131.951 211.656 131.876 211.506 131.764 211.384C131.653 211.268 131.516 211.182 131.363 211.133C131.211 211.083 131.049 211.072 130.891 211.099C130.73 211.133 130.582 211.211 130.464 211.324C130.329 211.466 130.227 211.636 130.167 211.822C130.106 212.008 130.088 212.205 130.114 212.399C130.138 212.559 130.209 212.709 130.318 212.83C130.428 212.943 130.565 213.028 130.715 213.077C130.869 213.127 131.033 213.138 131.193 213.109Z" fill="black"/>
<path d="M134.19 210.671L133.039 214.207L132.602 214.065L133.753 210.529L134.19 210.671Z" fill="black"/>
<path d="M134.926 211.362C134.907 211.325 134.896 211.284 134.893 211.243C134.891 211.202 134.897 211.16 134.911 211.121C134.923 211.083 134.943 211.047 134.969 211.016C134.995 210.984 135.027 210.959 135.063 210.94C135.138 210.904 135.225 210.899 135.304 210.926C135.341 210.938 135.376 210.957 135.406 210.982C135.435 211.008 135.459 211.039 135.476 211.075C135.494 211.111 135.505 211.151 135.508 211.191C135.511 211.231 135.505 211.272 135.492 211.31C135.481 211.35 135.462 211.388 135.435 211.42C135.409 211.452 135.376 211.478 135.339 211.496C135.305 211.515 135.267 211.526 135.228 211.529C135.189 211.532 135.149 211.528 135.112 211.515C135.032 211.49 134.965 211.435 134.926 211.362ZM135.182 212.009L134.33 214.627L133.894 214.485L134.746 211.867L135.182 212.009Z" fill="black"/>
<path d="M135.826 212.874C135.997 212.714 136.21 212.606 136.441 212.562C136.68 212.514 136.929 212.531 137.159 212.612C137.446 212.693 137.698 212.865 137.878 213.102C138.038 213.332 138.109 213.612 138.079 213.89L137.615 213.739C137.627 213.572 137.578 213.407 137.478 213.274C137.373 213.135 137.226 213.034 137.059 212.984C136.947 212.942 136.828 212.926 136.709 212.936C136.59 212.946 136.475 212.982 136.372 213.042C136.151 213.205 135.986 213.433 135.901 213.694C135.817 213.954 135.815 214.235 135.898 214.497C135.946 214.607 136.017 214.705 136.107 214.784C136.197 214.862 136.303 214.92 136.418 214.953C136.582 215.007 136.759 215.012 136.926 214.97C137.085 214.919 137.22 214.815 137.31 214.675L137.774 214.826C137.631 215.061 137.409 215.239 137.148 215.329C136.865 215.421 136.56 215.416 136.28 215.313C136.046 215.243 135.835 215.111 135.67 214.93C135.509 214.759 135.4 214.546 135.357 214.316C135.321 214.058 135.345 213.796 135.425 213.549C135.506 213.302 135.641 213.076 135.821 212.888L135.826 212.874Z" fill="black"/>
<path d="M141.281 213.994L138.449 217.331L137.984 217.18L138.91 216.087L138.699 213.154L139.163 213.305L139.295 215.695L140.798 213.837L141.281 213.994Z" fill="black"/>
<path d="M50.9508 220.106L50.0218 219.803L48.6105 214.67L47.2349 218.896L46.3059 218.594L48.1521 212.922L49.0811 213.224L50.494 218.353L51.8681 214.131L52.797 214.434L50.9508 220.106Z" fill="#5E5F60"/>
<path d="M57.0488 219.994L53.6116 218.876C53.5185 219.209 53.5613 219.565 53.7305 219.868C53.9011 220.164 54.1794 220.383 54.5074 220.479C54.7218 220.566 54.9574 220.586 55.183 220.535C55.4085 220.485 55.6133 220.368 55.7701 220.198L56.7781 220.526C56.5104 220.888 56.1371 221.159 55.7092 221.301C55.2328 221.448 54.7209 221.435 54.2525 221.262C53.8465 221.137 53.48 220.908 53.1894 220.599C52.913 220.298 52.728 219.925 52.656 219.523C52.5774 219.083 52.6132 218.631 52.7601 218.209C52.8888 217.783 53.1226 217.395 53.4401 217.082C53.7278 216.797 54.0948 216.604 54.4937 216.528C54.9129 216.46 55.3425 216.493 55.7465 216.625C56.1506 216.756 56.5173 216.983 56.8162 217.284C57.0866 217.57 57.2681 217.929 57.3385 218.315C57.415 218.732 57.3816 219.161 57.2416 219.56C57.1882 219.709 57.1237 219.855 57.0488 219.994ZM56.3642 218.941C56.417 218.786 56.4355 218.622 56.4185 218.459C56.4015 218.296 56.3494 218.138 56.2657 217.997C56.0843 217.707 55.803 217.494 55.475 217.396C55.1725 217.291 54.8414 217.304 54.5486 217.433C54.2445 217.574 54.003 217.822 53.8698 218.129L56.3642 218.941Z" fill="#5E5F60"/>
<path d="M60.2088 220.608L60.9236 223.352L59.8692 223.009L59.3946 221.168L57.9694 222.39L57.0172 222.08L59.189 220.348L58.4788 217.59L59.5332 217.933L60.0077 219.773L61.4329 218.551L62.4037 218.867L60.2088 220.608Z" fill="#5E5F60"/>
<path d="M64.0793 220.253L63.2708 222.737C63.2429 222.8 63.2287 222.869 63.2292 222.938C63.2298 223.007 63.245 223.075 63.2739 223.138C63.363 223.261 63.4938 223.347 63.6419 223.381L64.2364 223.574L63.9845 224.348L63.2506 224.109C62.8947 224.023 62.5839 223.806 62.3795 223.503C62.2992 223.337 62.2555 223.157 62.2514 222.973C62.2473 222.79 62.2829 222.608 62.3558 222.439L63.1642 219.955L62.6347 219.783L62.8821 219.023L63.4116 219.195L63.7751 218.078L64.7041 218.381L64.3406 219.498L65.4461 219.857L65.1987 220.617L64.0793 220.253Z" fill="#5E5F60"/>
<path d="M68.156 225.547C67.9073 225.336 67.7231 225.059 67.6247 224.749C67.5293 224.442 67.5338 224.113 67.6375 223.81L68.6361 224.135C68.5791 224.37 68.6119 224.618 68.728 224.831C68.8753 225.065 69.1072 225.235 69.3757 225.303C69.6412 225.407 69.9352 225.412 70.2036 225.316C70.3145 225.27 70.4137 225.2 70.4941 225.111C70.5746 225.022 70.6343 224.916 70.6691 224.802C70.7013 224.719 70.7165 224.63 70.7137 224.541C70.7109 224.452 70.6901 224.365 70.6527 224.284C70.5769 224.122 70.4648 223.981 70.3252 223.87C70.1261 223.713 69.9176 223.568 69.7009 223.436C69.4198 223.256 69.1515 223.058 68.8979 222.841C68.6961 222.665 68.5446 222.439 68.4588 222.186C68.3612 221.884 68.3712 221.558 68.4871 221.262C68.5778 220.955 68.7612 220.684 69.0124 220.485C69.2608 220.289 69.5619 220.172 69.8777 220.147C70.2452 220.111 70.6162 220.157 70.9644 220.28C71.455 220.419 71.8842 220.719 72.1819 221.132C72.3122 221.324 72.3991 221.541 72.4366 221.769C72.4741 221.997 72.4613 222.231 72.3991 222.454L71.3865 222.124C71.4142 222.017 71.4178 221.905 71.3972 221.797C71.3766 221.688 71.3323 221.585 71.2673 221.496C71.1117 221.278 70.8859 221.119 70.6275 221.047C70.395 220.962 70.1406 220.959 69.9062 221.037C69.7984 221.081 69.7023 221.149 69.6258 221.236C69.5492 221.323 69.4942 221.427 69.4654 221.54C69.4083 221.697 69.4146 221.87 69.483 222.022C69.5605 222.175 69.6688 222.309 69.8011 222.418C69.9932 222.572 70.1933 222.716 70.4006 222.849C70.6918 223.031 70.969 223.234 71.2301 223.457C71.4346 223.635 71.5904 223.862 71.6831 224.117C71.778 224.426 71.7675 224.758 71.6534 225.06C71.56 225.349 71.3876 225.605 71.1556 225.801C70.9048 226.009 70.6013 226.144 70.2784 226.192C69.9 226.249 69.5131 226.213 69.1517 226.086C68.7856 225.978 68.4463 225.794 68.156 225.547Z" fill="#5E5F60"/>
<path d="M74.6652 223.699L73.8567 226.183C73.8287 226.246 73.8145 226.314 73.8151 226.383C73.8156 226.452 73.8309 226.521 73.8598 226.583C73.9489 226.706 74.0797 226.792 74.2277 226.826L74.799 227.012L74.5471 227.786L73.8132 227.547C73.4573 227.461 73.1465 227.244 72.9421 226.941C72.8618 226.775 72.8182 226.595 72.8141 226.411C72.81 226.228 72.8455 226.046 72.9184 225.877L73.7269 223.393L73.1973 223.221L73.4447 222.461L73.9742 222.633L74.3377 221.516L75.2667 221.819L74.9032 222.936L75.9994 223.292L75.7521 224.052L74.6652 223.699Z" fill="#5E5F60"/>
<path d="M80.2782 227.555L76.8363 226.435C76.7433 226.766 76.7853 227.12 76.9531 227.421C77.121 227.721 77.401 227.943 77.7321 228.038C77.9472 228.124 78.1832 228.144 78.4092 228.094C78.6353 228.044 78.841 227.927 78.9995 227.759L80.0028 228.086C79.7389 228.451 79.3642 228.723 78.9339 228.86C78.4576 229.008 77.9454 228.995 77.4772 228.822C77.073 228.696 76.7083 228.468 76.4188 228.159C76.1411 227.858 75.9545 227.485 75.8807 227.082C75.8161 226.642 75.854 226.193 75.9916 225.77C76.1293 225.348 76.3628 224.962 76.6741 224.645C76.9618 224.359 77.3287 224.166 77.7277 224.091C78.1469 224.023 78.5765 224.056 78.9805 224.187C79.3845 224.319 79.7513 224.545 80.0501 224.847C80.3179 225.134 80.4989 225.492 80.5725 225.878C80.649 226.294 80.6156 226.723 80.4756 227.122C80.4189 227.27 80.353 227.415 80.2782 227.555ZM79.5935 226.502C79.649 226.347 79.669 226.182 79.6519 226.019C79.6349 225.855 79.5813 225.698 79.4951 225.558C79.3159 225.268 79.0359 225.055 78.7089 224.958C78.4068 224.851 78.0748 224.864 77.7826 224.995C77.4785 225.136 77.237 225.384 77.1038 225.692L79.5935 226.502Z" fill="#5E5F60"/>
<path d="M83.7623 225.973C84.0443 225.927 84.3327 225.937 84.6109 226.003C84.8891 226.068 85.1517 226.188 85.3837 226.355C85.6157 226.522 85.8125 226.732 85.9628 226.975C86.1131 227.218 86.214 227.488 86.2597 227.77C86.3309 228.201 86.2929 228.643 86.1493 229.056C86.0205 229.48 85.7891 229.866 85.4754 230.179C85.1927 230.466 84.8353 230.667 84.4436 230.761C84.0569 230.855 83.6511 230.837 83.2741 230.708C82.9494 230.611 82.6537 230.436 82.413 230.197C82.203 229.99 82.0372 229.743 81.9255 229.47L81.0205 232.25L80.0915 231.948L82.2484 225.321L83.1774 225.623L82.9617 226.286C83.2031 226.126 83.4761 226.019 83.7623 225.973ZM85.2443 227.875C85.198 227.626 85.0854 227.395 84.9186 227.205C84.7517 227.015 84.5366 226.874 84.296 226.795C84.0554 226.717 83.7982 226.705 83.5514 226.76C83.3047 226.816 83.0776 226.936 82.894 227.11C82.6777 227.312 82.5197 227.569 82.4364 227.853C82.3388 228.133 82.3151 228.434 82.3676 228.727C82.407 228.985 82.5242 229.225 82.7034 229.416C82.8654 229.6 83.0747 229.738 83.3088 229.813C83.5528 229.891 83.8134 229.901 84.0625 229.842C84.3116 229.783 84.5398 229.657 84.7224 229.478C84.9383 229.272 85.0956 229.012 85.1784 228.725C85.2747 228.452 85.2974 228.159 85.2443 227.875Z" fill="#5E5F60"/>
<path d="M88.4751 52.3538C88.1538 52.6487 87.7514 52.8408 87.3195 52.9053C86.7626 52.9805 86.1956 52.9174 85.6687 52.7217L84.2752 52.2681L83.2691 55.3591L82.015 54.9509L84.4932 47.3369L87.1315 48.1956C87.6501 48.3434 88.1261 48.6125 88.5198 48.9806C88.8477 49.279 89.0788 49.6684 89.1834 50.0986C89.2709 50.5136 89.246 50.9443 89.1112 51.3462C88.986 51.7295 88.7675 52.0757 88.4751 52.3538ZM87.1683 51.7286C87.3297 51.6485 87.4717 51.5344 87.5848 51.3943C87.6978 51.2541 87.779 51.0912 87.8229 50.9166C88.0929 50.0871 87.7642 49.5188 86.8352 49.2165L85.4417 48.7629L84.6242 51.2747L86.0177 51.7282C86.3884 51.8692 86.7979 51.8693 87.1683 51.7286Z" fill="black"/>
<path d="M92.8948 49.5231L90.2552 57.633L89.001 57.2248L91.6406 49.1149L92.8948 49.5231Z" fill="black"/>
<path d="M98.6761 57.5499L94.0312 56.0381C93.9049 56.4837 93.9603 56.9613 94.1854 57.3667C94.4104 57.7722 94.7869 58.0726 95.2326 58.2024C95.5225 58.3193 95.8412 58.3453 96.146 58.277C96.4509 58.2087 96.7276 58.0493 96.9393 57.82L98.2909 58.2599C97.933 58.7583 97.427 59.1315 96.8444 59.3266C96.2025 59.5212 95.5145 59.504 94.8826 59.2775C94.3371 59.1102 93.8455 58.8017 93.4579 58.3833C93.0879 57.9762 92.8385 57.4744 92.7378 56.9342C92.6321 56.344 92.6811 55.7367 92.88 55.1714C93.0512 54.5964 93.366 54.0746 93.7949 53.6548C94.1832 53.2723 94.6768 53.0137 95.213 52.912C95.7811 52.809 96.3663 52.853 96.9129 53.0398C97.4483 53.2049 97.9328 53.5037 98.3204 53.908C98.6814 54.2951 98.9256 54.7761 99.0246 55.2955C99.1236 55.8557 99.0776 56.4317 98.8909 56.9689C98.8331 57.1674 98.7614 57.3615 98.6761 57.5499ZM97.74 56.133C97.8149 55.925 97.8415 55.7028 97.8178 55.4829C97.7942 55.263 97.7209 55.0513 97.6035 54.8637C97.3632 54.4734 96.986 54.1862 96.5455 54.0581C96.1392 53.9158 95.6939 53.9341 95.3011 54.1092C94.8898 54.2944 94.5634 54.6272 94.3864 55.0415L97.74 56.133Z" fill="black"/>
<path d="M144.085 84.466C144.395 84.7876 144.605 85.1924 144.687 85.6306C144.776 86.1321 144.732 86.6478 144.56 87.1267L143.402 90.6858L142.162 90.2822L143.26 86.9085C143.438 86.4673 143.436 85.9739 143.255 85.5334C143.161 85.3386 143.026 85.1664 142.859 85.0288C142.691 84.8912 142.496 84.7914 142.287 84.7365C142.084 84.6598 141.867 84.6266 141.65 84.6392C141.434 84.6517 141.223 84.7097 141.03 84.8093C140.624 85.0586 140.333 85.4566 140.217 85.9182L139.119 89.2919L137.87 88.8853L138.968 85.5115C139.143 85.0698 139.141 84.5775 138.963 84.1365C138.869 83.9416 138.734 83.7695 138.567 83.6318C138.399 83.4942 138.204 83.3945 137.995 83.3396C137.792 83.2619 137.575 83.2283 137.358 83.2408C137.142 83.2534 136.93 83.3119 136.738 83.4123C136.332 83.6617 136.041 84.0597 135.925 84.5213L134.827 87.895L133.573 87.4868L135.534 81.4623L136.788 81.8705L136.563 82.561C136.854 82.3778 137.185 82.2658 137.527 82.2342C137.892 82.2001 138.26 82.2413 138.608 82.3552C139.062 82.4935 139.473 82.7438 139.804 83.0829C140.121 83.418 140.325 83.8427 140.39 84.2985C140.7 83.9882 141.1 83.7815 141.533 83.7069C141.984 83.6136 142.451 83.642 142.888 83.7892C143.337 83.9121 143.749 84.1447 144.085 84.466Z" fill="black"/>
<path d="M101.033 55.9902C101.417 55.6171 101.896 55.3565 102.419 55.2368C102.94 55.1203 103.483 55.1482 103.99 55.3177C104.396 55.4351 104.769 55.6462 105.079 55.9339C105.389 56.2217 105.626 56.5781 105.773 56.9742L106.058 56.0983L107.312 56.5065L105.351 62.531L104.097 62.1228L104.389 61.2238C104.06 61.4495 103.684 61.5969 103.289 61.6548C102.801 61.7251 102.303 61.6715 101.841 61.4987C101.379 61.326 100.968 61.0398 100.646 60.6666C100.299 60.2509 100.07 59.7497 99.9832 59.2156C99.8913 58.6286 99.9439 58.0283 100.136 57.4665C100.309 56.908 100.617 56.4008 101.033 55.9902ZM105.175 57.943C105.109 57.6017 104.954 57.2839 104.724 57.0225C104.502 56.7757 104.218 56.5915 103.902 56.4882C103.58 56.3813 103.236 56.3634 102.906 56.4364C102.575 56.5093 102.271 56.6705 102.025 56.9026C101.737 57.1746 101.526 57.5179 101.414 57.8977C101.283 58.2759 101.25 58.6814 101.318 59.076C101.376 59.4241 101.53 59.7493 101.762 60.0151C101.981 60.2649 102.263 60.4506 102.579 60.5525C102.901 60.6605 103.246 60.6792 103.577 60.6064C103.908 60.5337 104.214 60.3724 104.46 60.1397C104.737 59.8553 104.946 59.511 105.068 59.1333C105.191 58.7557 105.226 58.3548 105.169 57.9616L105.175 57.943Z" fill="black"/>
<path d="M108.412 63.3685C108.108 63.1006 107.878 62.7592 107.744 62.377C107.623 62.0193 107.612 61.6338 107.714 61.2704L109.009 61.6922C108.981 61.8231 108.98 61.9588 109.008 62.09C109.037 62.2212 109.093 62.3449 109.173 62.4526C109.357 62.7109 109.624 62.8989 109.929 62.9858C110.211 63.094 110.519 63.1157 110.813 63.048C110.92 63.021 111.018 62.9674 111.098 62.8922C111.178 62.817 111.238 62.7227 111.271 62.618C111.308 62.5131 111.313 62.3995 111.285 62.2918C111.257 62.1841 111.197 62.0871 111.114 62.0132C110.832 61.7526 110.526 61.5192 110.2 61.3161C109.859 61.0926 109.529 60.8519 109.213 60.5948C108.964 60.3836 108.769 60.1164 108.644 59.8154C108.512 59.4756 108.512 59.099 108.644 58.7594C108.744 58.4422 108.944 58.1657 109.214 57.9711C109.514 57.7571 109.868 57.6309 110.236 57.607C110.677 57.5763 111.119 57.6332 111.538 57.7744C112.146 57.9396 112.676 58.3155 113.032 58.8346C113.187 59.0762 113.286 59.3486 113.323 59.6327C113.36 59.9167 113.334 60.2054 113.247 60.4781L111.993 60.0699C112.028 59.9428 112.036 59.8095 112.016 59.6791C111.995 59.5487 111.947 59.4242 111.874 59.3138C111.7 59.0661 111.443 58.8881 111.149 58.8112C110.89 58.7064 110.604 58.685 110.332 58.7502C110.232 58.7775 110.142 58.8296 110.068 58.9015C109.994 58.9734 109.94 59.0628 109.91 59.1614C109.884 59.2363 109.874 59.3161 109.881 59.3953C109.888 59.4745 109.912 59.5513 109.951 59.6205C110.038 59.776 110.157 59.9122 110.298 60.0206C110.446 60.1353 110.667 60.2942 110.965 60.4989C111.309 60.7076 111.638 60.9398 111.951 61.1939C112.193 61.4059 112.385 61.6697 112.511 61.9657C112.641 62.2961 112.646 62.662 112.525 62.9954C112.423 63.3279 112.218 63.6197 111.94 63.83C111.643 64.0446 111.292 64.1732 110.926 64.2019C110.016 64.2596 109.119 63.9568 108.431 63.3592L108.412 63.3685Z" fill="black"/>
<path d="M120.08 64.5164L115.468 63.0152C115.404 63.2377 115.386 63.4705 115.413 63.7003C115.441 63.93 115.514 64.1521 115.628 64.3537C115.857 64.7512 116.229 65.0465 116.669 65.1795C116.958 65.2959 117.276 65.3215 117.58 65.2529C117.885 65.1843 118.16 65.0248 118.371 64.7956L119.723 65.2355C119.37 65.739 118.862 66.1136 118.276 66.3022C117.636 66.4981 116.949 66.4814 116.319 66.2546C115.772 66.0868 115.279 65.7778 114.89 65.3589C114.52 64.9527 114.272 64.4511 114.174 63.9113C114.069 63.3211 114.118 62.7138 114.316 62.1485C114.489 61.5746 114.801 61.0528 115.227 60.6304C115.618 60.2495 116.113 59.9918 116.649 59.8891C117.217 59.7836 117.803 59.8277 118.349 60.017C118.885 60.182 119.369 60.4808 119.757 60.8851C120.118 61.271 120.361 61.752 120.456 62.2711C120.549 62.8227 120.499 63.3885 120.312 63.9153C120.253 64.1222 120.175 64.3234 120.08 64.5164ZM119.144 63.0996C119.217 62.8917 119.243 62.6703 119.22 62.4511C119.197 62.232 119.126 62.0205 119.012 61.8317C118.77 61.4406 118.391 61.153 117.949 61.0246C117.543 60.8833 117.098 60.9016 116.705 61.0757C116.295 61.2627 115.971 61.5957 115.795 62.0095L119.144 63.0996Z" fill="black"/>
<path d="M122.827 66.5737L120.513 69.1675L119.714 68.9075L121.48 66.1353L122.827 66.5737Z" fill="black"/>
<path d="M81.5528 65.0356L80.4334 64.6712L78.7999 69.6901L77.5364 69.2789L79.17 64.26L78.4546 64.0272L78.7865 63.0076L79.5018 63.2405L79.6406 62.8141C79.7051 62.528 79.8323 62.2599 80.0132 62.029C80.1941 61.798 80.424 61.6101 80.6866 61.4786C81.3098 61.2903 81.9798 61.3269 82.5792 61.5821L82.2399 62.6248C81.9643 62.5035 81.654 62.4863 81.3669 62.5765C81.2478 62.6493 81.1449 62.7456 81.0646 62.8596C80.9842 62.9736 80.928 63.1028 80.8995 63.2392L80.7607 63.6656L81.8801 64.0299L81.5528 65.0356Z" fill="black"/>
<path d="M83.8314 63.5118C83.7533 63.3631 83.7217 63.1945 83.7406 63.0277C83.7596 62.861 83.8282 62.7039 83.9377 62.5767C84.0472 62.4495 84.1924 62.358 84.3546 62.3141C84.5169 62.2703 84.6886 62.276 84.8476 62.3307C84.9524 62.3628 85.0496 62.4157 85.1334 62.4862C85.2173 62.5566 85.2861 62.6432 85.3358 62.7407C85.4354 62.9416 85.4524 63.1734 85.383 63.3865C85.3137 63.5995 85.1636 63.7769 84.9647 63.8807C84.8678 63.9327 84.761 63.9638 84.6512 63.9722C84.5415 63.9806 84.4311 63.9661 84.3273 63.9295C84.2204 63.8974 84.1213 63.8437 84.036 63.7719C83.9507 63.7001 83.8811 63.6115 83.8314 63.5118ZM84.6856 64.9277L82.7248 70.9522L81.4706 70.544L83.4315 64.5195L84.6856 64.9277Z" fill="black"/>
<path d="M88.6981 63.9478L86.06 72.0531L84.8059 71.6449L87.444 63.5396L88.6981 63.9478Z" fill="black"/>
<path d="M92.0332 65.0333L89.3951 73.1386L88.1595 72.7364L90.7976 64.6311L92.0332 65.0333Z" fill="black"/>
<path d="M97.8752 70.3482L96.7892 73.6848C96.7241 73.8507 96.7267 74.0354 96.7963 74.1996C96.9154 74.3654 97.0919 74.4813 97.2915 74.5248L98.0579 74.7743L97.72 75.8123L96.7353 75.4918C96.2587 75.3731 95.8427 75.0825 95.5676 74.6761C95.4563 74.4553 95.3943 74.213 95.386 73.9661C95.3777 73.7191 95.4232 73.4734 95.5194 73.2459L96.5978 69.9324L95.8825 69.6996L96.2143 68.68L96.9297 68.9129L97.4169 67.416L98.6803 67.8272L98.1931 69.3241L99.6609 69.8018L99.3291 70.8214L97.8752 70.3482Z" fill="black"/>
<path d="M105.574 71.9314C105.874 72.2525 106.074 72.6542 106.148 73.0869C106.226 73.5883 106.178 74.101 106.007 74.5785L104.849 78.1376L103.608 77.734L104.707 74.3602C104.885 73.9191 104.883 73.4256 104.702 72.9852C104.608 72.7915 104.473 72.6202 104.307 72.483C104.14 72.3457 103.947 72.2457 103.738 72.1898C103.536 72.1122 103.319 72.0785 103.102 72.091C102.885 72.1036 102.674 72.1621 102.482 72.2625C102.073 72.5087 101.779 72.907 101.664 73.37L100.566 76.7437L99.3165 76.337L101.946 68.2595L103.2 68.6677L102.295 71.4483C102.597 71.2603 102.941 71.1471 103.296 71.1182C103.68 71.0852 104.067 71.1326 104.432 71.2573C104.864 71.3818 105.257 71.6137 105.574 71.9314Z" fill="black"/>
<path d="M113.205 78.0641L108.583 76.5599C108.52 76.7824 108.501 77.0152 108.529 77.245C108.556 77.4748 108.629 77.6969 108.743 77.8984C108.965 78.3041 109.335 78.6085 109.777 78.7474C110.066 78.8626 110.383 78.8881 110.686 78.8204C110.99 78.7527 111.265 78.595 111.477 78.3681L112.829 78.808C112.473 79.2984 111.969 79.6623 111.392 79.847C110.751 80.0428 110.065 80.0261 109.434 79.7994C108.887 79.6315 108.394 79.3225 108.005 78.9036C107.635 78.4974 107.387 77.9958 107.29 77.4561C107.184 76.8658 107.233 76.2585 107.432 75.6932C107.604 75.1193 107.917 74.5975 108.342 74.1751C108.733 73.7942 109.228 73.5365 109.765 73.4338C110.333 73.3283 110.919 73.3724 111.465 73.5617C112.001 73.7262 112.485 74.027 112.871 74.4344C113.233 74.8176 113.477 75.2975 113.572 75.8158C113.672 76.3762 113.628 76.9527 113.443 77.4907C113.379 77.6881 113.3 77.8799 113.205 78.0641ZM112.261 76.6705C112.333 76.4625 112.359 76.2412 112.336 76.0221C112.313 75.8031 112.243 75.5916 112.129 75.4026C111.887 75.0115 111.509 74.7239 111.067 74.5955C110.66 74.4533 110.215 74.4716 109.822 74.6466C109.413 74.8336 109.088 75.1666 108.912 75.5804L112.261 76.6705Z" fill="black"/>
<path d="M121.555 78.0555L120.45 77.6957L118.816 82.7145L117.553 82.3033L119.186 77.2844L118.471 77.0516L118.803 76.0321L119.518 76.2649L119.657 75.8386C119.721 75.5525 119.849 75.2843 120.03 75.0534C120.21 74.8225 120.44 74.6345 120.703 74.5031C121.326 74.3147 121.996 74.3514 122.596 74.6066L122.256 75.6493C121.981 75.528 121.67 75.5108 121.383 75.6009C121.264 75.6737 121.161 75.7701 121.081 75.884C121.001 75.998 120.944 76.1272 120.916 76.2637L120.777 76.69L121.896 77.0544L121.555 78.0555Z" fill="black"/>
<path d="M122.627 83.632C122.253 83.2253 122 82.7223 121.898 82.1799C121.799 81.589 121.844 80.9831 122.029 80.4136C122.215 79.8441 122.535 79.3277 122.963 78.9082C123.371 78.5296 123.88 78.2755 124.429 78.1758C124.996 78.0801 125.577 78.1231 126.124 78.3011C126.671 78.4791 127.167 78.7868 127.569 79.1978C127.954 79.6014 128.215 80.1062 128.323 80.6528C128.439 81.2433 128.396 81.8535 128.199 82.4217C128.023 82.9961 127.695 83.5124 127.25 83.9169C126.83 84.2956 126.311 84.5494 125.753 84.6495C125.18 84.755 124.589 84.711 124.038 84.5217C123.499 84.3514 123.013 84.045 122.627 83.632ZM125.381 83.5034C125.724 83.4368 126.04 83.275 126.294 83.0367C126.591 82.7553 126.808 82.3995 126.922 82.006C127.06 81.6242 127.099 81.2132 127.033 80.8121C126.973 80.4738 126.816 80.1597 126.583 79.907C126.356 79.665 126.072 79.4844 125.757 79.382C125.445 79.2803 125.112 79.2601 124.79 79.3235C124.456 79.3894 124.15 79.5541 123.912 79.7962C123.627 80.0852 123.42 80.4404 123.308 80.8298C123.095 81.3665 123.1 81.9648 123.32 82.4992C123.423 82.7233 123.573 82.923 123.759 83.0852C123.945 83.2474 124.164 83.3685 124.4 83.4403C124.723 83.5524 125.07 83.5768 125.405 83.511L125.381 83.5034Z" fill="black"/>
<path d="M132.798 80.7923C133.188 80.72 133.591 80.752 133.965 80.885L133.544 82.178L133.228 82.0752C133.031 81.9956 132.821 81.9557 132.608 81.9578C132.396 81.96 132.186 82.0041 131.991 82.0877C131.579 82.3556 131.291 82.7761 131.189 83.2567L130.156 86.4311L128.902 86.0229L130.863 79.9984L132.117 80.4066L131.831 81.2871C132.101 81.0364 132.436 80.8651 132.798 80.7923Z" fill="black"/>
<path d="M42.7459 185.229L41.3103 182.742L41.7331 182.501L42.9041 184.522L47.4369 181.343L47.718 181.742L42.7459 185.229Z" fill="#5E5F60"/>
</svg>
